<svg version="1.0" xmlns="http://www.w3.org/2000/svg" width="100%" height="auto" viewBox="0 0 100 100"><g fill="#FFF" stroke-width="0"><path d="M0 630v630h2240V0H0v630zM1840.1 4.5c19.4 4.1 38.8 15.2 53.7 30.9 12.9 13.6 22.1 30.2 26.8 48.3 3.6 13.7 3.8 31.8.5 44.8-11.2 43.8-48.7 70-93.6 65.4-11.6-1.2-27.6-6.1-37.5-11.6-26.4-14.7-46-39.8-53.6-68.8-2.3-8.5-2.7-12-2.6-23.5 0-15.2 1.5-23.7 6.1-34.8 9.8-24.2 29.3-41.5 55.4-49.3 13.5-4 29.7-4.5 44.8-1.4zM1235.5 129c10 2.5 25.9 10.3 34.6 16.8 20.4 15.5 33.5 40.4 35.4 67.3 2.1 28.7-10.4 58-32.5 76.6-9.2 7.8-26.2 16.4-38 19.4-11.5 3-31.1 3.2-42.5.5-44.1-10.3-74.6-50.7-72.2-95.6 2.4-43.2 33.5-78.3 76.6-86.5 10.1-1.9 28-1.2 38.6 1.5zm273.9 19.6c7.7 2.9 14.2 10.1 20.8 22.9 10.4 20.2 11.3 20.6 47.8 21.6 15.1.4 30.2 1.2 33.5 1.8 28.2 5.3 47 15.6 69.5 38.1 20.3 20.3 35.5 40.9 46 62.5 10.5 21.4 13.7 35.2 12.5 53.5-.4 6.3-.7 15.8-.6 21 .2 12.4-2.2 22-9.4 36.5-9 18.3-21.1 35-32.6 44.9-10.4 9.1-11.6 10.4-12.3 13.6-.3 1.8-.6 12.8-.6 24.4-.1 30.6-1.7 41.5-7 46.8-2.5 2.4-3.6 2.8-8.8 2.8-5.2 0-11-1.2-16.4-3.5-1.6-.6-1.8-.1-1.8 4.6 0 5.2-.1 5.5-5.8 10.9-3.3 3.1-7.3 8.2-9.1 11.6-1.9 3.6-4.8 7.3-7.1 9-3.3 2.4-4.1 3.8-5.1 8.3-.6 2.9-.7 5.7-.2 6.1.4.4 5.1 1.5 10.3 2.4 35.8 6.3 69.9 17.8 87.7 29.6 14.8 9.8 28.4 29.7 35.8 52.4 8.6 26.7 10.2 47 17 214.1 1.4 33.5 2.8 65.3 3.1 70.6l.7 9.6 7.1 2.3c13 4.1 32 11.2 38.1 14.2 10.6 5.1 10.5 9.3-.1 12.4-5 1.4-6 1.4-22.6-1.6-20.8-3.6-22-3.6-14.6-.6 8.4 3.4 19 10.4 29.8 19.4 13.2 11.1 13.5 11.4 11.8 14.9-1.1 2.4-2 2.8-5.9 3.1-4 .3-6.6-.7-21.8-8.3-9.6-4.7-17.5-8.5-17.6-8.3-.2.3 1.3 16.7 1.8 19.7.2 1.4 17.2 5.9 22.7 6.1 3.7 0 109.2-20.7 110-21.7.5-.6 72.4-192.9 113.8-304.5l9.5-25.7 5.1-.5c10-1.1 193.7-10.9 194.2-10.4.6.7-105.6 315-107 316.4-.6.7-14.9 4.7-31.8 8.9l-30.7 7.8 1.4 2.8c.8 1.5 1.5 4.7 1.5 7 0 6.2-4.7 10.1-24.2 20-9 4.5-21.5 11.7-27.8 15.9-13.2 8.8-26.1 16.5-35.9 21.4-4.1 2.1-10.3 6.7-15.7 11.6-39.3 36.1-72.4 57.8-105.1 68.9-26.5 9.1-51.3 12-105.6 12.8l-38.7.5.5 3.2c.3 1.7 2.3 19.3 4.5 39.1s4.2 37.2 4.5 38.7l.5 2.8h-456.7l6.8-40.7c3.7-22.5 7-41.9 7.3-43.3l.5-2.5h-31.2c-28.9 0-32-.2-41.7-2.3-30.1-6.7-46.9-21-59.1-50.5-5.9-14.4-8.8-25.7-11.4-44.6-12.7-89.9-11.3-191.9 4-307.7 6.3-47.7 9.6-62.9 17.9-84.4 7.7-19.7 17.6-35.7 30.7-49.5 17.9-18.7 40.3-31.4 72.9-41.1 6.9-2.1 12.6-4 12.8-4.3.1-.3 5.2-8.5 11.3-18.1 22.3-35 33.3-60.1 46.4-105.7 6.7-23.7 25-96.9 37.9-151.8 13.3-56.4 19.3-75.7 31.7-101 16.2-33.3 39.3-53.6 66.7-58.5 8.1-1.5 28-.5 33.6 1.6zm624.5 164.2c22.6 37.6 41.1 68.7 41.1 69.1 0 1.4-83.1 50.3-84.5 49.7-.7-.2-9.6-5.4-19.7-11.4-10-6-28.3-16.8-40.5-24.1-12.3-7.2-22.3-13.6-22.3-14.1 0-.7 75.6-127.5 81.7-136.9.8-1.3 1.8-1.9 2.3-1.5.4.5 19.3 31.6 41.9 69.2zm-.1 144.5c-22.7 32.2-41.7 58.6-42.3 58.6-.5 0-10.2-13.1-21.5-29.1s-29.8-42.2-41.2-58.2c-11.3-16-20.5-29.3-20.3-29.4.3-.3 38 21.7 71.9 42 5.5 3.3 10.6 5.7 11.5 5.5.9-.2 19.8-11.3 42.1-24.5s40.6-23.9 40.8-23.7c.2.1-18.3 26.6-41 58.8z"/><path d="M1195.5 172.4c-.8 2.8-3.9 14.5-7 26.1-3 11.5-5.9 21.6-6.3 22.4-.4.7-3.2 2.3-6.1 3.5-5.4 2.1-5.4 2.2-7.2 8.6-2.6 9.3-2.7 9.1 3.2 7.4 2.8-.9 5.3-1.4 5.5-1.2.2.2-1.2 6.8-3.1 14.7-1.9 7.9-3.5 14.6-3.5 15 0 1.1 82.2 2.3 83.2 1.3.5-.5 1.9-5.2 3.2-10.5l2.3-9.7h-25.3c-14 0-25.4-.3-25.4-.6 0-.4 1.4-6 3.1-12.4l3.2-11.8 6.6-2.8c3.6-1.5 6.7-2.8 6.9-2.9.5-.4 4.3-14.8 3.9-15.1-.2-.2-3 .5-6.2 1.6s-6 1.9-6.1 1.7c-.2-.2 1.9-9 4.7-19.6 2.7-10.6 4.9-19.4 4.7-19.6-.2-.1-7.6-.5-16.6-.7l-16.2-.5-1.5 5.1zm216.1 465.7c.4.8 5.8 8.1 11.9 16.4 32.3 43.6 48.7 70 75.2 121 9.6 18.5 33.3 66.7 33.3 67.8 0 .2 1.4 3.5 3.2 7.3 3 6.7 3.2 6.8 3.8 3.9 18.7-80.3 25.5-128.4 23.1-161.2-1.2-14.8-4.1-34.6-5.3-35.8-.9-1-25.8-2.4-41.8-2.5-25.9 0-48.7-3.5-83.5-12.6-9.3-2.4-17.8-4.7-18.9-5-1.4-.5-1.6-.3-1 .7z"/></g><path d="M1814.8 2.7c.7.3 1.6.2 1.9-.1.4-.3-.2-.6-1.3-.5-1.1 0-1.4.3-.6.6zm-81.7 84.9c0 1.1.3 1.4.6.6.3-.7.2-1.6-.1-1.9-.3-.4-.6.2-.5 1.3zm105.7 107.1c.7.3 1.6.2 1.9-.1.4-.3-.2-.6-1.3-.5-1.1 0-1.4.3-.6.6zm-617 76c.6.2 1.8.2 2.5 0 .6-.3.1-.5-1.3-.5-1.4 0-1.9.2-1.2.5z" fill="#CFF"/><path d="M1818.3 2.7c.9.2 2.5.2 3.5 0 .9-.3.1-.5-1.8-.5-1.9 0-2.7.2-1.7.5zM1822 64c-9.6 12.7-17.6 23.3-17.7 23.8-.2.4 1.9 2.1 4.5 3.9 2.6 1.8 8.6 5.9 13.3 9.2 4.7 3.2 10.5 6.5 13 7.2 4.7 1.3 10.9 1.8 10.9.8 0-.3.6-.6 1.3-.6 1.2 0 23.6-9 24.5-9.8.4-.3-31.6-57.6-32.1-57.5-.1.1-8.1 10.4-17.7 23zm-88.8 28c0 1.9.2 2.7.5 1.7.2-.9.2-2.5 0-3.5-.3-.9-.5-.1-.5 1.8zm190.1 16c0 2.5.2 3.5.4 2.2.2-1.2.2-3.2 0-4.5-.2-1.2-.4-.2-.4 2.3zm-65.4 2.2-13.5 5.1-3.2 15c-1.8 8.3-3.1 15.1-2.9 15.3.1.1 3.6-3.9 7.8-8.9 13.4-16.2 26-31.7 25.7-31.7-.2.1-6.4 2.4-13.9 5.2zm-24.9-.8c0 .2.7.7 1.6 1 .8.3 1.2.2.9-.4-.6-1-2.5-1.4-2.5-.6zm63.4 61.8-2.9 3.3 3.3-2.9c1.7-1.7 3.2-3.1 3.2-3.3 0-.8-.8-.1-3.6 2.9zm-680.1 99.5c.9.2 2.5.2 3.5 0 .9-.3.1-.5-1.8-.5-1.9 0-2.7.2-1.7.5z" fill="#CCF"/><path d="M1886 28.4c0 .2.8 1 1.8 1.7 1.5 1.3 1.6 1.2.3-.4s-2.1-2.1-2.1-1.3zm-55 79c0 1.3 8.4 4.5 10.6 4 3.6-.9 4.3-2.8.8-2.1-1.6.3-3.6.2-4.4-.3-2-1-7-2.2-7-1.6z" fill="#9CF"/><path d="m1757.9 27.7-2.4 2.8 2.8-2.4c2.5-2.3 3.2-3.1 2.4-3.1-.2 0-1.4 1.2-2.8 2.7z" fill="#99F"/><g fill="#69F" stroke-width="0"><path d="M1808.7 3.7c-.3.5.6.8 1.9.8 1.3 0 2.4-.3 2.4-.8 0-.4-.9-.7-1.9-.7-1.1 0-2.2.3-2.4.7zm15.3.3c2.5.4 4.7.6 4.9.4.2-.2 1 .5 1.8 1.6s2.6 2 4.1 2c3.6 0 7.3 1.1 6.8 1.9-.4.6 1.1 1 5.2 1.3.6.1 1.2.5 1.2.9s2.5 1.6 5.5 2.5c3 1 5.5 2.1 5.5 2.6 0 .4.4.8.9.8 1.1 0 15 7.9 16.8 9.5 26.6 24.1 37.8 45.2 39 73.5.6 13.7-.9 23.9-4.9 34-2.2 5.5-6.6 14.1-7.7 15-1 .8-3.1 4.9-3.1 5.9 0 .5.8 1.2 1.8 1.4.9.3.2.5-1.6.6-2.6.1-3.3.5-3 1.8.2 1 1 1.7 1.6 1.6.7-.2 1.2.3 1.2.9 0 .7.7.2 1.6-1 1.2-1.7 1.9-2 2.9-1.2s1.3.6 1.1-.7c0-1 .5-1.7 1.2-1.5.8.1 1.1-.2.7-.8-.3-.5.1-1.3.9-1.6.9-.3 1.3-1 1-1.5-.3-.5-.1-.9.5-.9 1.5 0 7.7-13.4 10.3-22.5 3.3-11.4 3.3-33.9 0-46.9-9.3-36.9-40.2-68.2-76.7-77.7-3.8-1-7.7-1.6-8.7-1.3-.9.2-1.9 0-2.3-.6-.3-.5-3.4-.9-6.8-.9l-6.2.2 4.5.7zm11.7 2.6c-.3.3-1.2.4-1.9.1-.8-.3-.5-.6.6-.6 1.1-.1 1.7.2 1.3.5zm-32.9-1.9c.6.2 1.8.2 2.5 0 .6-.3.1-.5-1.3-.5-1.4 0-1.9.2-1.2.5zm-4 1c.7.3 1.6.2 1.9-.1.4-.3-.2-.6-1.3-.5-1.1 0-1.4.3-.6.6zm-4 1c.7.3 1.6.2 1.9-.1.4-.3-.2-.6-1.3-.5-1.1 0-1.4.3-.6.6z"/><path d="M1785.5 9.8c-11 4.9-17.5 9.2-25.6 16.9-8.3 7.9-17.6 21.3-16.3 23.4.4.7.3.9-.3.6-1.4-.9-2.4 1.8-1.6 4 .4 1 .2 1.4-.4 1-1.4-.9-2.3 1.5-1.6 4.5.3 1.5.2 1.9-.4 1-.7-.9-1.5.7-2.8 5-1.3 4.6-1.9 10.4-2 21.3l-.3 15 .8-15c.5-8.5 1.5-17.2 2.4-20 .9-2.8 1.4-3.7 1.1-2-1.2 6.6-1.7 24.5-.9 29.1.7 4.4.9 3.5 1.5-7.6.8-15.2 3.7-27.6 9-38.5 8.3-16.9 19.8-28.8 35.8-36.7 10.4-5.2 11.3-6.3 1.6-2zm41.4 14.7c-.3.3-2.5.6-4.8.7-2.3.1-4.4.4-4.6.7-.2.4 4 .5 9.3.4 15.2-.4 27.1 3.1 39.6 11.7 31 21.1 43.1 59.7 28.1 89.3-2 3.9-5.2 8.8-7.1 10.9-3.6 4-4.3 5.5-2.1 4.1 2.7-1.6 8.5-9 11-13.8 4.8-9.5 6.1-16.1 6.1-29 0-10.8-.4-12.9-3.2-21.1-7.7-22.7-24.4-40.8-45.2-48.9-8.2-3.2-25.7-6.5-27.1-5zM1810 28c0 .6 1.1.8 2.8.4 3.9-1 4-1.4.4-1.4-1.8 0-3.2.5-3.2 1zm-7 3.1c0 .5.5.7 1 .4.6-.3 1-.8 1-1.1 0-.2-.4-.4-1-.4-.5 0-1 .5-1 1.1z"/><path d="M1843 45c.8.5 1.1 1 .7 1-.5 0-.1.7.7 1.6.9.8 1.6 2.2 1.6 3 0 .8.5 1.4 1.1 1.4.5 0 .7.4.4 1-.3.5-.1 1 .5 1s.8.4.5 1c-.3.5-.2 1 .4 1 .6 0 1.3 1.1 1.7 2.5.3 1.4 1 2.5 1.6 2.5.5 0 .6.4.3 1-.3.5-.1 1 .5 1s.8.4.5 1c-.3.5-.2 1 .3 1s1.7 1.9 2.6 4.3c.9 2.4 2.5 5.3 3.7 6.5 1.1 1.2 1.7 2.2 1.4 2.2-1.4 0 2.8 6 4.3 6.1 1 0 1.2.3.5.6-1 .3-.9 1.1.2 3.4.9 1.6 2 2.9 2.6 2.9.6 0 .7.4.4 1-.3.5.2 1 1.2 1.1 1.1 0 1.3.3.5.6-1 .4-.9.9.5 1.9 1.7 1.3 1.7 1.5-.2 3l-2 1.6 2-.4c2-.3 2.3.6 1.4 4.2-.2.8-1.1 2.1-1.9 2.7-1.3 1.1-1.3 1.2.3.7 1-.4 1.7-.1 1.8.7 0 .8.2 2.9.2 4.8.2 3.1.5 3.4 3.6 3.6 4 .3 7.1-1.3 6.4-3.2-.3-.7 0-1.3.7-1.3.6 0 .8-.5.4-1.1-.4-.8.1-.9 1.5-.4 1.9.6 2.1.3 1.7-1.9-.3-1.5.2-3.2 1.1-4.1 1.1-1.2 1.2-1.9.4-2.9-.8-.9-.8-1.6-.2-2 1.2-.8.3-13-1.2-16.6-.5-1.4-1.1-3.1-1.3-3.8-.5-2.7-7.8-16.1-9.3-17.2-.4-.3-1-1.3-1.4-2.3-.4-1-1.1-1.6-1.6-1.2-.6.3-1.4-.3-2-1.3-.5-1-2.8-2.4-5-3.2-2.3-.7-4.1-1.7-4.1-2.2 0-.8-4.1-2.8-6.7-3.2-.7-.1-1.5-.5-1.9-.8-.3-.4-1.3-.4-2.1-.1-.8.3-1.8.1-2.2-.5-.4-.6-1.7-1.3-2.9-1.5-1.2-.2-2.5-.6-2.8-1-.4-.4-1.2-.7-1.8-.7-.6 0-.4.5.4 1zm17 6.5c0 .7-3 1.3-3.4.7-.3-.4.4-.9 1.5-.9 1-.1 1.9 0 1.9.2zm10.9 37.1c.3 1.6.1 1.7-1.3.5-1.9-1.6-2.1-3.4-.3-2.9.6.3 1.4 1.3 1.6 2.4zm-47.3 14.7c.3 1 .9 1.5 1.2 1.2.3-.3 0-1.1-.7-1.8-1-.9-1.1-.8-.5.6zm-88.4 3.2c0 1.6.2 2.2.5 1.2.2-.9.2-2.3 0-3-.3-.6-.5.1-.5 1.8zm.9 5.1c0 1.1.3 1.4.6.6.3-.7.2-1.6-.1-1.9-.3-.4-.6.2-.5 1.3zm130.8.1c-1.3 1.6-1.2 1.7.4.4.9-.7 1.7-1.5 1.7-1.7 0-.8-.8-.3-2.1 1.3zm-5 6c-1.3 1.6-1.2 1.7.4.4.9-.7 1.7-1.5 1.7-1.7 0-.8-.8-.3-2.1 1.3zm-5 6c-1.3 1.6-1.2 1.7.4.4.9-.7 1.7-1.5 1.7-1.7 0-.8-.8-.3-2.1 1.3zm-58.9 13.7c0 .2.8 1 1.8 1.7 1.5 1.3 1.6 1.2.3-.4s-2.1-2.1-2.1-1.3zm36.8 18.3c.6.2 1.8.2 2.5 0 .6-.3.1-.5-1.3-.5-1.4 0-1.9.2-1.2.5zm214.7 654.5-4 4.3 4.3-4c3.9-3.6 4.7-4.5 3.9-4.5-.2 0-2.1 1.9-4.2 4.2zm-9 14-4 4.3 4.3-4c2.3-2.1 4.2-4 4.2-4.2 0-.8-.9 0-4.5 3.9zm112.9 7-2.9 3.3 3.3-2.9c3-2.8 3.7-3.6 2.9-3.6-.2 0-1.6 1.5-3.3 3.2zm-134.5 8.5c-1.3 1.6-1.2 1.7.4.4 1.6-1.3 2.1-2.1 1.3-2.1-.2 0-1 .8-1.7 1.7zm125.6 5.5-4 4.3 4.3-4c3.9-3.6 4.7-4.5 3.9-4.5-.2 0-2.1 1.9-4.2 4.2zm-22.1 16-2.9 3.3 3.3-2.9c3-2.8 3.7-3.6 2.9-3.6-.2 0-1.6 1.5-3.3 3.2z"/></g><g fill="#66F" stroke-width="0"><path d="M1813 3.9c0 .5-1.6.8-3.5.7-1.9-.1-3.5.3-3.5.7 0 .5-.7.6-1.6.3-1-.4-1.3-.2-.8.6s-.2.9-2.5.5c-1.8-.4-3-.3-2.7.2.3.5-.5 1.1-1.9 1.3-1.4.3-2.5.1-2.5-.3 0-.5-.7-.6-1.5-.3-.8.4-1.3 1-1 1.4.6 1-3.4 2.5-4.2 1.6-.4-.3-1.4.1-2.4 1-.9.8-3 1.9-4.5 2.3-1.8.5-2.8 1.4-2.8 2.4.1.9-.2 1.5-.6 1.2-.5-.3-1.1.1-1.4.7-.5 1.1-.7 1.1-1.2 0-.3-.6-1-.9-1.6-.6-.7.4-.6.9.1 1.4 1.6.9.3 3.8-2 4.5-1 .4-1.9 1.4-2 2.3 0 1-.3 1.2-.6.5-.7-2-3.6 1.4-2.9 3.3.5 1.3.2 1.5-1.4 1.1-2.6-.7-3.9 3.5-1.9 6 1.2 1.5 1.2 1.6-.3 1-1-.3-1.8-.2-1.8.3 0 .6-.5 1-1.1 1-.5 0-.7-.5-.3-1.2.4-.7.3-.8-.5-.4-.8.6-.9 1.2-.2 2 .8.9.6 1.8-.7 3.2-1.5 1.7-1.7 3.4-1.1 8.4.5 3.6-.1 6.1-1.3 5.4-.7-.4-1-.4-.6.1.4.4.3 1.4-.3 2.2-.6.7-.9 2.3-.6 3.5.4 1.2.1 2.8-.5 3.5-.6.7-.8 1.3-.4 1.3.3 0 .1 1.2-.4 2.6-.6 1.4-.6 2.3-.1 2 .4-.3 1.6-3.4 2.5-6.8 5.3-19.2 18.7-36.6 34.8-45 2.6-1.4 4.4-2.9 4-3.3-.4-.5-.2-.5.4-.2.7.4 3.6-.2 6.5-1.2 13.4-4.5 33.9-5.1 44.9-1.2 1.4.5 3.7 1.2 5.2 1.5 4.5 1 15.8 6.7 23.5 11.9 12.3 8.3 26 24.3 32 37.3 1.4 3.1 2.7 5.3 3 5.1.7-.8-5.1-11.6-9.9-18.4-8.1-11.6-20.4-23.3-30.6-29.1-4.1-2.3-7.8-4.2-8.3-4.2-.5 0-.9-.4-.9-.8 0-.5-2.5-1.6-5.5-2.6-3-.9-5.5-2.2-5.5-2.7 0-.6-.3-.8-.8-.5-.4.2-2.5-.4-4.7-1.4-2.2-1.1-5.4-1.9-7.2-2-1.8 0-3.7-.7-4.5-1.8-.7-.9-2.2-1.8-3.3-1.9-11.5-1.1-14.5-1.2-14.5-.4zm-46 30.5c0 .2-.9.6-2 .9-1.1.3-1.8.1-1.4-.4.5-.9 3.4-1.3 3.4-.5zm-3.6 5.4c.2.4-.4.8-1.4.8-1 0-1.6-.4-1.4-.8.3-.4.9-.8 1.4-.8.5 0 1.1.4 1.4.8zm-4 4.6c-.3.9-1 1.3-1.6 1-.5-.3-.4-1.2.3-2 1.5-1.8 2.2-1.3 1.3 1zm0 5.1c-.4.8-1 1.2-1.5.9-1.1-.6-.2-2.4 1.1-2.4.5 0 .7.7.4 1.5z"/><path d="M1833.8 6.7c.7.3 1.6.2 1.9-.1.4-.3-.2-.6-1.3-.5-1.1 0-1.4.3-.6.6zM1820.5 25c-1 1.6 1.7 2.1 9.1 1.7l6.9-.3-8-.3c-6.5-.3-7.3-.5-4.5-1.1l3.5-.7-3.2-.2c-1.7 0-3.5.4-3.8.9zm13.3-.3c.7.3 1.6.2 1.9-.1.4-.3-.2-.6-1.3-.5-1.1 0-1.4.3-.6.6zm-20.7 1.2c-.8.5-.2 1 2 1.5 1.8.3 3.4.4 3.7.1.3-.3 0-.5-.7-.5s-1-.4-.7-.8c.6-1-2.7-1.3-4.3-.3zm-5.8 1.3c-3.4 1.1-4.5 4.9-1.1 4 1-.2 1.5-.8 1.2-1.3-.3-.5.1-.6.9-.3.9.3 1.6-.3 2-1.5.3-1.2.4-2.1.4-2-.1.1-1.6.6-3.4 1.1zm-5.2 2.5c0 .7-.6 1.3-1.1 1.3-1.4 0-8.9 4.9-11.5 7.5-3.4 3.3-10.1 12.7-11.8 16.5-5 11-7.5 26.6-5.6 34.5.3 1.6 1.2 5.7 1.9 9s1.7 6.7 2.2 7.5c.7 1.1.8 1 .4-.5-6.2-24.9-3.7-41.8 8.6-58.3 3.4-4.6 13.6-13.3 16.9-14.4.6-.2.9-1.3.6-2.3-.2-1.1-.5-1.4-.6-.8z"/><path d="M1814.7 32.6c-9.3 2.9-21.9 12.1-25.3 18.6-1.8 3.4-1.8 4.2.1 3.4.9-.3 1.9.3 2.5 1.7 1.1 2.1 1.1 2.1-.4.3-.9-1.1-1.6-1.5-1.6-.9s.7 1.7 1.7 2.4c1.3 1.1 1.7 1.1 2 .1.3-.6 1.1-1.2 1.9-1.2.8 0 1.4.6 1.3 1.2-.3 2.8.2 3.6 3.1 4 2.1.3 3.5-.1 5-1.7 1.1-1.2 1.7-2.5 1.3-2.8-.3-.4-.1-.7.5-.7 1.8 0 1.4 2.1-.5 3.6-1.7 1.3-1.7 1.5.2 3 1.1.8 1.9 2 1.7 2.6-.1.6.4 2.1 1.3 3.4 1.3 2 1.3 2.3 0 1.8-.8-.4-1.5-1.1-1.5-1.7 0-.6-.3-.7-.6-.4-.4.4-.2 1.2.3 1.9 1.1 1.4 1.3 4.8.3 4.8-.3 0-.6.8-.6 1.9 0 1.1.5 1.7 1.3 1.4.7-.3 1.3-1.2 1.3-2.1 0-.8.3-1.3.6-.9.4.3 1.8-1.1 3.1-3.1 1.4-2 3.2-4.4 3.9-5.2 1.7-1.8 6.9-8.4 10.4-13 1.4-1.8 3.1-3.9 3.8-4.6.6-.7 1.2-1.5 1.2-1.8 0-.3.8-1.4 1.8-2.4.9-1 2.2-2.7 2.7-3.7.8-1.3 1.7-1.6 3.3-1.1 1.2.4 2 1.2 1.7 1.7-.4.5-.1.9.5.9s.9.3.6.8c-.2.4.9.8 2.6.9 1.7 0 3.4.6 3.8 1.3.4.7 1.5 1 2.3.7.8-.3 1.8-.3 2.1.1.4.3 1.2.7 1.9.8 2.6.4 6.7 2.4 6.7 3.2 0 .5 1.8 1.5 4.1 2.2 2.2.8 4.5 2.2 5 3.2.6 1 1.4 1.6 2 1.3.5-.4 1.2.2 1.6 1.2.4 1 1 2 1.4 2.3 1.5 1.1 8.8 14.5 9.3 17.2.2.7.8 2.4 1.3 3.8 1.5 3.6 2.4 15.8 1.2 16.6-.6.4-.6 1.1.2 2 .8 1 .7 1.7-.4 2.9-.9.9-1.4 2.6-1.1 4.1.4 2.2.2 2.5-1.7 1.9-1.4-.5-1.9-.4-1.5.4.4.6.2 1.1-.4 1.1-.7 0-1 .6-.7 1.3.7 1.9-2.4 3.5-6.4 3.2-3.2-.2-3.4-.4-3.6-4.5-.2-5.4-1-6.1-3.5-3-1.1 1.4-2.7 3.4-3.7 4.5-.9 1.1-3.6 4.6-6 7.8-2.4 3.1-4.7 5.7-5.2 5.7-.4 0-.9 1.2-1.1 2.7-.2 2.2-.8 2.7-2.3 2.5-1.2-.2-1.6 0-.9.5.8.6.8 1.6-.1 3.6-.6 1.5-1.4 2.5-1.7 2.2-.3-.3-1 .7-1.6 2.3-.6 1.7-2.4 3.8-4 4.8-3.8 2.2-5.2 5.7-1.7 4.4 1.4-.5 2.6-.5 3.3.2.6.6 3 .4 7.3-.7 3.5-1 7.1-1.8 7.9-2 .8-.1 2.3-.5 3.2-.9.9-.4 2.5-.9 3.5-1.1 1-.1 1.7-.8 1.5-1.5-.1-.6.1-.9.6-.6 1.2.7 6.4-2.9 5.5-3.9-.5-.4-.3-.5.4-.2 1.7 1 8.1-5.1 11.7-11.3 4.8-8.1 6.7-14.4 7.3-24.6 1.3-20.7-7.3-40.6-24.1-55.3-3.3-2.8-7.1-5.7-8.5-6.5-10.8-5.6-14.1-7-19.9-8.7-8-2.3-19.6-2.4-26.5-.3zM1796 55.1c0 .5-.7.9-1.5.9s-1.5-.7-1.5-1.5c0-.9.6-1.2 1.5-.9.8.4 1.5 1 1.5 1.5zm11-1.7c0 .3-.4.8-1 1.1-.5.3-1 .1-1-.4 0-.6.5-1.1 1-1.1.6 0 1 .2 1 .4zm-7.3 2.5c0 1.1-.5 1.7-.9 1.5-1.1-.7-1-3.4.1-3.4.6 0 .9.9.8 1.9zm10.4 6.8c1.3 1.6 1.2 1.7-.3.5-.9-.8-2.3-1-2.9-.6-.8.4-.9.3-.5-.4 1-1.7 2.1-1.5 3.7.5zm50.8 80.6c-.2.1-1.3.9-2.4 1.7-1.9 1.4-1.9 1.4-.6-.3.7-.9 1.8-1.7 2.4-1.7.6 0 .8.1.6.3zm-4.8-110.9c.2.2 1.5.9 2.9 1.5 2.4 1.1 2.4 1.1.6-.3-1.6-1.3-4.9-2.4-3.5-1.2zm14.9 9c0 .2.8 1 1.8 1.7 1.5 1.3 1.6 1.2.3-.4s-2.1-2.1-2.1-1.3z"/><path d="M1856.6 52.2c.3.4 1.1.5 1.9.1 2.1-.7 1.9-1.2-.4-1-1.1 0-1.8.5-1.5.9zm-71 5.4c-1.1 2.8-.6 3.4 1.8 2.3 1.4-.7 2.2-1.7 1.9-2.5-.7-1.9-2.9-1.8-3.7.2zm-46.5 3c0 1.1.3 1.4.6.6.3-.7.2-1.6-.1-1.9-.3-.4-.6.2-.5 1.3zm51.3.6c-.4.7-.4 1 .1.6.4-.4 1.5-.2 2.4.5 1.4 1.1 1.4 1 .2-.6-1.6-2-1.8-2.1-2.7-.5zm-7.4 2.3c-.7.8-.9 1.5-.4 1.5s.2.5-.6 1c-1.2.8-1.1 1 .7 1s2.2-.5 2.1-2.5c-.3-2.9-.2-2.9-1.8-1zm-45.3 2.4c-.4 1.7-.3 2.1.5 1.3.5-.5.8-1.6.6-2.3-.3-.8-.7-.3-1.1 1zm61.3 0c0 .7-.5.9-1.2.5-.7-.5-.8-.3-.3.5.5.9 1 1 1.8.2.6-.6.8-1.4.4-1.8-.4-.3-.7-.1-.7.6zm110.1 5.6c.1 1.9 1.8 5.1 1.8 3.5 0-.8-.4-2.2-.9-3-.5-.8-.9-1.1-.9-.5zM1779.5 73c-.3.6.1.7.9.4 1.8-.7 2.1-1.4.7-1.4-.6 0-1.3.4-1.6 1zm-28.5 1c0 .5.5 1 1 1 .6 0 1-.5 1-1 0-.6-.4-1-1-1-.5 0-1 .4-1 1zm162.2 10.5c0 1.1.4 3.3.8 5 .7 2.7.8 2.7.8.5 0-1.4-.4-3.6-.8-5-.6-2-.8-2.1-.8-.5zm-45.2 2.3c0 .5.7 1.6 1.6 2.3 1.4 1.2 1.6 1.1 1.3-.5-.4-2-2.9-3.5-2.9-1.8zm32.2 6.2c0 1.4.2 1.9.5 1.2.2-.6.2-1.8 0-2.5-.3-.6-.5-.1-.5 1.3zm14.7 13c-.4 7.6-1.4 16.1-2.3 19.5-2.1 7.4-7.9 19.5-11.4 23.6-12.8 15.1-24.5 22-42.7 25.4-30.8 5.8-68-10.4-88-38.4-2.7-3.8-5.4-7-5.8-7-.4-.1.3 1.3 1.5 3.1 7.3 10.2 14.2 18.2 19.9 22.8 3 2.5 6 5.1 6.7 5.7.7.7 1.7 1.3 2.2 1.3.5 0 1.5.6 2.2 1.3 2.3 2.2 18 9.4 25.3 11.5 8.9 2.7 28.6 4.8 30.9 3.4 1-.6 5-1.1 10.8-1.3 2.1-.1 3.6-.5 3.3-.8-.5-1 2.7-.7 4.3.3 1.7 1.1 3.2-.2 2.5-2.2-.4-1.2 0-1 1.1.5 1.7 2.3 5.6 2.1 5.6-.2 0-.8 1-1.2 2.5-1.1 1.4.2 3-.3 3.6-1 .6-.8 1.5-1.2 1.9-.9 1.2.7 11-7.3 11-9 0-.8-.5-1.4-1.2-1.3-.6.2-1.4-.5-1.6-1.5-.3-1.3.4-1.7 3-1.8 1.8-.1 2.5-.3 1.6-.6-1-.2-1.8-.9-1.8-1.4 0-1 2.1-5.1 3.1-5.9 1.1-.9 5.5-9.5 7.7-15 3.7-9.2 5.3-19.6 5-31.6l-.3-10.9-.6 13.5zm-35.8 68.8c-.7.2-1.8-.1-2.3-.6-.8-.8-.4-.9 1.3-.5 1.3.4 1.8.8 1 1.1zm-7.5-78.5c.3 1 .9 1.5 1.2 1.2.3-.3 0-1.1-.7-1.8-1-.9-1.1-.8-.5.6z"/><path d="M1867.3 101.2c-6.3 2.5-6.8 3.8-1.2 3.2 2.4-.3 4.7 0 5.7.8.9.7 1.4.9 1 .4-.4-.5-.3-1.8.3-2.8 1.7-3.2-.2-3.7-5.8-1.6zm32.9 4.3c0 1.6.2 2.2.5 1.2.2-.9.2-2.3 0-3-.3-.6-.5.1-.5 1.8zm-123.2 3.1c0 .3.6 1.8 1.4 3.2.8 1.5 1.7 3.4 2 4.2 1.7 4.4 13.6 19.4 16.3 20.4.9.4-.6-1.8-3.4-4.7-5.3-5.6-10.6-13.4-13.7-20-1.5-3.4-2.6-4.6-2.6-3.1zm122.1 4c0 1.1.3 1.4.6.6.3-.7.2-1.6-.1-1.9-.3-.4-.6.2-.5 1.3zm-5 14.1c-1 2.6-1 2.7.4.9.8-1.1 1.5-2.3 1.5-2.8 0-1.5-.7-.8-1.9 1.9zm-5.1 8.5c-1.5 2.1-1.7 2.8-.6 1.9 1.6-1.3 4.1-5.1 3.3-5.1-.2 0-1.4 1.5-2.7 3.2zm.4 3-1.9 2.3 2.3-1.9c2.1-1.8 2.7-2.6 1.9-2.6-.2 0-1.2 1-2.3 2.2zm-90.4 1.2c0 .2 1.8 1.5 4 3 2.2 1.4 4 2.3 4 1.9 0-.5-1-1.5-2.2-2.3-2.5-1.7-5.8-3.1-5.8-2.6zm83.7 2.6c-1.4 1.6-3 3-3.4 3-.5 0-1.8.8-2.9 1.9-3.4 3.1-15.1 7.2-22.5 7.8-3.8.3-7.7 1.2-8.7 1.9-1.4 1-.4 1.2 6.1.9 4.3-.2 9.3-.9 11-1.5 11.3-4.3 16.7-7.1 17.8-9.3.6-1 1.4-1.5 1.8-1.2 1.2.7 3.5-2.2 3.6-4.6.2-2.5.1-2.4-2.8 1.1zm-73.3 4.5c1.1.8 2.2 1.2 2.5.9.6-.6-1.9-2.4-3.4-2.4-.5.1-.1.7.9 1.5zm3.6 1.3c0 1.2 1.9 2.6 2.6 1.9.2-.2-.2-1-1.1-1.7-.9-.8-1.5-.8-1.5-.2zm6 3.1c0 .8 4.5 3.1 6 3.1.6 0 1-.5 1-1.1 0-.6-.7-.9-1.5-.5-.8.3-1.5.2-1.5-.3s-.9-1.1-2-1.4c-1.1-.3-2-.2-2 .2zm8.6 3c-.3.5.1 1.1.9 1.5.8.3 1.5.1 1.5-.4 0-1.3-1.8-2.2-2.4-1.1zm4 1c-.6.9 1.2 1.5 8.2 2.6 2.4.4 3.2.2 3.2-.9s-1-1.4-4.5-1c-2.7.2-4.5 0-4.5-.6 0-1.3-1.7-1.3-2.4-.1zm70.4 5.6c-.8.9-.8 1.5-.2 1.5 1.2 0 2.6-1.9 1.9-2.6-.2-.2-1 .2-1.7 1.1z"/></g><g fill="#66C" stroke-width="0"><path d="M1800.7 6.2c-.8.5-.5.8.8.8 1.1 0 2.7-.5 3.5-1 1.2-.7 1-.9-.8-.7-1.3.1-2.8.5-3.5.9zm-4.9.5c-2.8.7-2.1 2.1.7 1.5 1.4-.2 2.2-.8 1.9-1.3-.3-.5-.6-.8-.7-.8-.1.1-1 .3-1.9.6zm-8.4 3.8c-1.7 1.3-1.6 1.4 1.4.4 3.3-1.1 4.1-1.9 1.9-1.9-.7 0-2.2.7-3.3 1.5zm-5.4 2c-1.4.8-2 1.4-1.4 1.5.5 0 1.9-.7 3-1.5 2.4-1.8 1.6-1.9-1.6 0zm35.8-.8c.7.3 1.6.2 1.9-.1.4-.3-.2-.6-1.3-.5-1.1 0-1.4.3-.6.6zm-43.4 5.8c-.4.8-1.1 1.5-1.8 1.5-1.3 0-10.5 8.8-15.3 14.6-6.3 7.6-16.3 30.3-14.9 33.9.3.9.2 1.4-.3 1.1-1.3-.9-2.2 4.7-3 20.4-.7 12.9-.6 15.2 1.1 20.8 1.1 3.5 2.1 6.2 2.3 6 .1-.1-.1-3-.7-6.3-1.1-7.4-1.3-29.5-.3-35.3 1.1-6.7 2.4-3.9 2.3 5.1-.1 9.6 2.5 23.2 5.9 29.9 1.3 2.7 2.3 5 2.3 5.3 0 .3.9 2.1 2 4.1 1.1 1.9 1.8 3.9 1.5 4.5-.4.5.1.9 1 .9s1.3.4 1 1c-.3.5.3 2 1.4 3.2 1.2 1.2 2.1 2.8 2.1 3.5 0 .7.9 1.7 2 2.3 2 1.1 5.6 6.8 5.2 8.2-.1.5.1.7.6.7 2.1-.4 3.4.3 4.4 2.6.6 1.4 1.5 2.5 1.9 2.5 1.1 0 5.9 4.9 5.9 5.9 0 .5 1.7 2 3.8 3.4 2.1 1.4 5.4 3.9 7.3 5.6 1.8 1.7 3.9 3.1 4.6 3.1.7 0 1.3.7 1.3 1.5s.6 1.5 1.4 1.5c.7 0 1.9.7 2.6 1.5.7.8 1.6 1.2 2.1 1 .4-.3 1.3.4 1.9 1.5.6 1.1 1.6 2 2.3 2 .7 0 2.3.9 3.6 1.9 1.4 1 3 1.7 3.7 1.4.7-.2 2.6.5 4.3 1.8 1.8 1.3 3.8 2 5 1.6 1.2-.3 2.3-.2 2.6.3.2.4 4.1 1.3 8.6 2 11.1 1.7 24.4.8 35-2.6 10.3-3.2 14.5-5.3 22.9-11.3 3.6-2.5 6.7-4.5 7-4.4.3.1 1.8-1.7 3.5-4l2.9-4.2-5.3 4.5c-8.5 7.2-12.3 10-13.1 9.5-.4-.3-1.3.1-1.9.9-.6.7-2.2 1.2-3.6 1-1.5-.1-2.5.3-2.5 1.1 0 2.3-3.9 2.5-5.6.2-1.1-1.5-1.5-1.7-1.1-.5.7 2-.8 3.3-2.5 2.2-1.6-1-4.8-1.3-4.3-.3.3.3-1.2.7-3.3.8-5.8.2-9.8.7-10.8 1.3-2.3 1.4-22-.7-30.9-3.4-7.3-2.1-23-9.3-25.3-11.5-.7-.7-1.7-1.3-2.2-1.3-.5 0-1.5-.6-2.2-1.3-.7-.6-3.7-3.2-6.7-5.7-6.7-5.5-20.9-22.6-21.7-26-.5-2.6-4.3-8.8-4.9-8.2-.4.4-.6 0-.2-.9.3-.9-.1-2.6-1-3.8-.8-1.2-1.7-3.2-1.9-4.4-.2-1.2-1.3-6.7-2.4-12.2-2.4-11.6-2.9-16.7-1.9-21.2.4-2.1.3-3.4-.5-3.8-.8-.3-.7-.7.2-1.1.6-.3 1.2-1 1.2-1.5 0-.6-.4-.8-.9-.5-.5.4-.7-.3-.4-1.4.3-1.1 1-1.7 1.7-1.3.6.4.5 0-.2-.9-.9-1.1-1-1.8-.2-2.3.5-.3.7-1.7.4-3.1-.4-1.6-.1-3.1 1-4.3 1.6-1.8 2-4.7 1.4-10.6-.2-1.8.4-3.8 1.4-4.9 1.3-1.4 1.5-2.3.7-3.2-.7-.8-.6-1.4.2-2 .8-.4.9-.3.5.4s-.2 1.2.3 1.2c.6 0 1.1-.4 1.1-1 0-.5.8-.7 1.8-.3 1.4.5 1.5.3.5-.8-1.5-1.5-1.7-5.3-.3-4.4.5.3.7 0 .4-.9-.4-1.1 0-1.3 1.5-.9 1.7.4 2 .2 1.5-1.1-.7-1.9 2.2-5.3 2.9-3.3.3.7.6.5.6-.5.1-.9 1-2 2.1-2.3 1.1-.3 2-1 2-1.4 0-1.5 3.7-5.1 4.5-4.3.5.4.5.1.1-.6-1-1.6-2.5-1.5-3.2.3zM1879 31.4c0 .2.8 1 1.8 1.7 1.5 1.3 1.6 1.2.3-.4s-2.1-2.1-2.1-1.3z"/><path d="M1763.6 34.9c-.4.5.3.7 1.4.4 2.3-.6 2.6-1.3.6-1.3-.8 0-1.7.4-2 .9zm-3 4.9c-.2.4.4.8 1.4.8 1 0 1.6-.4 1.4-.8-.3-.4-.9-.8-1.4-.8-.5 0-1.1.4-1.4.8zm22.4 4.9c-7.2 8.7-12.8 25.1-13 37.5 0 7.2 1.5 3.8 1.8-3.8.4-11.4 4.5-23 11.4-32.2 4.5-6 4.4-6.9-.2-1.5zm-24.9-1.3c-.7.8-.8 1.7-.3 2 .6.3 1.3-.1 1.6-1 .9-2.3.2-2.8-1.3-1zm-.6 5.5c-.3.5-.1 1.2.4 1.5.5.3 1.1-.1 1.5-.9.6-1.6-.9-2.1-1.9-.6zm35.5 5.6c0 .8.7 1.5 1.5 1.5s1.5-.4 1.5-.9-.7-1.1-1.5-1.5c-.9-.3-1.5 0-1.5.9zm12-.4c0 .5.5.7 1 .4.6-.3 1-.8 1-1.1 0-.2-.4-.4-1-.4-.5 0-1 .5-1 1.1z"/><path d="M1788.8 54.7c-1.6.4-1.7.6-.2 2 1.5 1.5 1.4 1.7-.7 2.9-1.3.7-2.7 1-3.1.8-.5-.3-.6 1.1-.2 3 .5 3.2.3 3.6-1.6 3.6-2 0-2.1.4-1.7 4 .2 2.2.1 3.7-.3 3.5-.4-.3-1 .5-1.4 1.8-1.2 4.6-.5 9.7 1.9 14.3 1.4 2.6 2.5 5.3 2.5 6 0 2.2 5.3 5.4 7.3 4.3 1.1-.6 1.7-.6 1.7 0 0 .5.9.7 2.1.4 1.2-.4 1.8-1.1 1.5-2-.3-.8-.2-1.2.3-.8.5.3 1.9-.8 3.1-2.5 1.2-1.7 2.6-2.8 3.1-2.5.5.4.9.2.9-.4 0-.5.3-1.6.6-2.5.4-1.1.1-1.6-1-1.6-2.2 0-2-1.6.4-3.3 1.1-.8 1.8-1.6 1.5-1.9-.3-.3.4-1.3 1.5-2.3 1.5-1.3 1.7-2.2.9-3.6-.5-1.1-.6-1.9-.1-1.9 1.2 0 1.1-3.2-.1-4.8-.5-.7-.7-1.5-.3-1.9.3-.3.6-.2.6.4 0 .6.7 1.3 1.5 1.7 1.3.5 1.3.2 0-1.8-.9-1.3-1.4-2.8-1.3-3.4.2-.6-.6-1.8-1.7-2.6-1.9-1.5-1.9-1.7-.2-3 1.9-1.5 2.3-3.6.5-3.6-.6 0-.8.3-.5.7.4.3-.2 1.6-1.3 2.8-1.5 1.6-2.9 2-5 1.7-2.9-.4-3.4-1.2-3.1-4 .1-.6-.5-1.2-1.3-1.2s-1.6.6-1.9 1.2c-.3 1-.7 1-2-.1-1-.7-1.7-1.8-1.7-2.4 0-.6.7-.2 1.6.9 1.4 1.8 1.5 1.8.4-.4-.6-1.2-1.2-2.1-1.3-2.1-.1.1-1 .3-1.9.6zm4.3 7c1.2 1.6 1.2 1.7-.2.6-.9-.7-2-.9-2.4-.5-.5.4-.5.1-.1-.6.9-1.6 1.1-1.5 2.7.5zm6.2 5.4c-.8.8-1.3.7-1.8-.2-.5-.8-.4-1 .3-.5.7.4 1.2.2 1.2-.5s.3-.9.7-.6c.4.4.2 1.2-.4 1.8z"/><path d="M1798 55.4c0 2.3 1.6 2.7 1.7.5.1-1-.2-1.9-.8-1.9-.5 0-.9.6-.9 1.4zm8.4 6.8c-.4.7-.3.8.5.4.6-.4 2-.2 2.9.6 1.5 1.2 1.6 1.1.3-.5-1.6-2-2.7-2.2-3.7-.5zm-69.9 8.8c-.4 1.7-.5 3.4-.2 3.6.2.3.7-1 1.1-2.7.3-1.8.4-3.4.2-3.6-.2-.3-.7 1-1.1 2.7zm-1 7.2c-.2 1.3-.1 4.8.4 7.8l.9 5.5.1-7.8c.1-7.7-.4-9.7-1.4-5.5zm35.6 11.7c-.4 13.1 11 35.1 24.8 47.9 9 8.4 26.6 18.4 32 18.1.9 0 .6-.5-.9-1.1-1.4-.5-4.7-2-7.5-3.1-8.8-3.7-18.8-10.8-26.2-18.5-4-4.1-7.5-8.3-7.9-9.4-.3-1-.9-1.8-1.4-1.8-.4 0-1-.8-1.4-1.8-.3-.9-1-2.4-1.5-3.2-2.3-3.5-5.9-12.9-7.1-18.5-.7-3.3-1.6-7.4-2-9l-.8-3-.1 3.4zm-33.9 7.1c0 1.4.2 1.9.5 1.2.2-.6.2-1.8 0-2.5-.3-.6-.5-.1-.5 1.3zm-1.9 3c0 2.5.2 3.5.4 2.2.2-1.2.2-3.2 0-4.5-.2-1.2-.4-.2-.4 2.3zm1.3 9.4c.6 5.5 4.3 18.1 5 17.3.2-.2 0-1.7-.7-3.3-.6-1.6-1.9-6.5-3-10.9-1.3-5.7-1.7-6.6-1.3-3.1zm121.3 35.3c-1.3 1.7-1.3 1.7.6.3 1.1-.8 2.2-1.6 2.4-1.7.2-.2 0-.3-.6-.3s-1.7.8-2.4 1.7zm44.6 1.3c-.3.5-.1 1 .4 1 .6 0 1.1-.5 1.1-1 0-.6-.2-1-.4-1-.3 0-.8.4-1.1 1zm-35 8c-.3.6.1.7.9.4 1.8-.7 2.1-1.4.7-1.4-.6 0-1.3.4-1.6 1zm-37.5 2.1c0 .8 7.9 2.4 8.5 1.7.2-.2-1.6-.8-4-1.4-2.5-.6-4.5-.7-4.5-.3zm13 2.1c0 .4.9.8 2 .8s2-.4 2-.9c0-.6-.9-.9-2-.8-1.1.1-2 .5-2 .9zm11.8-.5c.7.3 1.6.2 1.9-.1.4-.3-.2-.6-1.3-.5-1.1 0-1.4.3-.6.6zm27.6 7.9c-1.8 1.4-1.8 1.5.4.4 1.2-.6 2.2-1.3 2.2-1.5 0-.8-.5-.6-2.6 1.1zm-5.6 8.6c.5.5 1.6.8 2.3.6.8-.3.3-.7-1-1.1-1.7-.4-2.1-.3-1.3.5z"/></g><g fill="#36C" stroke-width="0"><path d="M1814.2 12.1c-23.3 3-42.8 16.4-53.1 36.4-3 5.6-4 8.7-3.6 10.5.4 1.6.2 2-.3 1.2-1.5-2.2-4.2 9.6-4.7 20.4-.3 7-.2 9.2.5 7.4.8-2 .9-1.7.5 1.9-.4 2.7-.1 4.9.7 5.9 1.1 1.3 1.1 1.4 0 .8-1.5-.9-.8 3 1.4 8.2.8 1.8 1.2 3.6.9 4.1-.3.5-.1 1.2.4 1.6.6.3.7 1.3.4 2.2-.4 1.1-.3 1.4.5.9 1.1-.6 1.5.5 1.1 3 0 .4.3 1 .8 1.3.4.3 1.9 2.6 3.2 5.1 4.6 8.6 9.6 15.5 16.5 22.8 6.8 7.1 20.4 17.2 23.2 17.2.8 0 1.4.5 1.4 1.1 0 .5.5.7 1 .4.6-.3 1-.2 1 .3s.8 1.2 1.8 1.5c.9.3 4.8 1.8 8.7 3.2 3.8 1.5 9.2 3.1 12 3.6 5.7 1.2 31.4 1.8 28.8.7-1.4-.5-1.4-.7-.3-.7.8-.1 2.6-.4 4-.6 2.2-.5 2.3-.4.5.5-1.6.8-1.1.9 2 .4 6.3-.9 21.4-8.8 27.8-14.5 9.7-8.6 17-20.4 21.2-33.9 2.6-8.5 3.1-26.8 1.1-37.1-4.3-21.1-16-40.6-32.5-54.5-14-11.7-28.4-18.4-45.5-21-10-1.5-12.1-1.5-21.4-.3zm30.3 4.3c23.4 6.5 44.9 23.8 56.9 45.7 1.9 3.5 4.9 10.7 6.7 15.9 2.8 8.4 3.3 11.1 3.7 23 .3 10.3 0 15.2-1.2 20.5-2.1 8.9-8.4 21.8-13.1 27l-3.6 4 3.4-5c7.6-11.1 11.1-20.6 12.7-34.6 3.6-31.9-14.7-66.8-44.3-84.7-20.5-12.4-46.2-15.6-66.9-8.5-4.9 1.7-8.8 2.9-8.8 2.6 0-.8 9.6-4.5 16.5-6.4 8.7-2.4 28.6-2.1 38 .5zm-4.6 3.2c15.3 3.7 34.9 16.2 44.3 28 2.9 3.8 5.3 7.1 5.3 7.6 0 .4.6 1.3 1.3 1.9.6.7 1.2 2.1 1.2 3.1s.5 1.8 1.2 1.8c.6 0 .9.3.5.6-.3.3.7 3.1 2.3 6.3 4.5 9 6.1 15.8 6.7 28.1 1 21.9-5.3 36.6-20.9 49.3-16.1 13-40.5 15.6-62.8 6.7-16.3-6.5-33.3-22.9-41.1-39.5-12.8-27.3-9.2-54.5 9.7-73.2 12.3-12.2 26.8-17.2 45.9-16.1 4.7.3 8.3.2 8-.2-.5-.8-5.3-2.2-8.7-2.5-.9-.1-2.2-.6-3-1.2-.7-.6-2.1-.9-3.1-.8-.9.2-1.5-.1-1.1-.6.8-1.4 7-1.1 14.3.7zM1769 40.4c0 .2-.8 1-1.7 1.7-1.6 1.3-1.7 1.2-.4-.4 1.3-1.6 2.1-2.1 2.1-1.3zm-.9 32.5c-2.6 16.6 3.8 38.7 16.1 55.3 13.3 18 33.2 29.2 56.4 31.9 8.4 1 11 1 16.9-.4 3.9-.8 7.1-1.4 7.3-1.2.2.2-2.3 1.3-5.5 2.6-5 2-7.6 2.3-18.3 2.3-10.8 0-13.6-.4-20.5-2.7-26.2-8.7-48.1-33.9-53.6-61.6-1.2-6.2-.8-25 .7-29.9 1.1-3.8 1.4-1.9.5 3.7z"/><path d="M1814.3 28.5c-6.3 1.7-12.6 4.8-15.4 7.6-1.1 1.1-2.4 1.7-3 1.4-.5-.4-.8-.3-.7.2.3.9-7.6 8.5-8.3 8-.2-.1-.3 0-.2.2.1.2-.6 1.6-1.6 3-4.1 5.7-8 13.9-9.6 20.1-2.5 9.7-1.7 25 1.9 35.5 1.5 4.4 3.3 8.3 3.9 8.7.7.4.8.8.4.8s-.3.6.3 1.2c.6.7 3.2 4 5.8 7.3 8 10 10.5 12.5 16.7 17 6.6 4.7 11.6 7.4 14.8 8.1 11.1 2.3 15.9 2.4 17.2.3.3-.4-7.4-12.8-17.2-27.4l-17.7-26.7-1.9 2.6c-1 1.4-2.3 2.4-2.8 2.1-.5-.4-.6 0-.3.8.3.9-.3 1.6-1.5 2-1.2.3-2.1.1-2.1-.4 0-.6-.6-.6-1.7 0-2.4 1.3-7-2.1-7.8-5.8-.3-1.5-1.6-4.3-2.8-6.1-1.9-2.7-2.2-4.1-1.7-8.1.4-2.7.2-5.3-.2-5.7-.5-.5-.2-1.4.7-2.2.8-.7 1.5-2.4 1.5-3.9s.7-3.7 1.6-4.9c.8-1.2 1.2-2.7.9-3.2-.3-.6-.1-1 .6-1 .6 0 .9-.8.6-2-.3-1.3.1-2.1 1.4-2.5 1-.4 1.8-.9 1.7-1.3-.1-.4.6-2.2 1.5-4 1.6-2.9 2.7-4.4 6.4-8.3 8.5-9.3 26.6-13.8 42.9-10.8 5.7 1.1 19.2 7.4 25.7 12.1 4.9 3.7 17.1 16.2 18.7 19.4.8 1.6 2 3.6 2.7 4.5 3.7 4.5 8.4 22.5 8.4 32.4.1 11.4-5.6 29.8-10.7 35-1.1 1-1.9 2.1-1.9 2.4 0 .8-4.3 5.1-5.1 5.1-.3 0-.4-.7 0-1.5.4-1.2.2-1.3-1.4-.2-1.1.6-2 1.6-2 2 0 1.3-4.2 4.7-7.2 5.8-1.6.6-2.6 1.5-2.3 1.9.3.4-.5.6-1.7.2-1.4-.3-1.9-.1-1.4.6.3.6-.2 1.3-1.1 1.5-1.5.4-1.5.5.2.6 1.1 0 4-.8 6.4-1.9 2.3-1.1 4.8-1.7 5.4-1.3.5.3.7.1.3-.5-.6-1 3-2.8 4.7-2.4.5.1.6-.2.2-.8-.5-.9.7-1.4 2.7-1.1 1.5.2 11.5-11.9 14.5-17.5 4.5-8.4 6.3-16.3 6.4-27.5.3-32-23.5-63-54.6-70.9-9.3-2.4-23.4-2.6-31.2-.5zm21.5.2c-1 .2-2.8.2-4 0-1.3-.2-.5-.4 1.7-.4 2.2-.1 3.2.1 2.3.4zm11.3 1.9c11.9 3.6 25.4 12.4 33.1 21.7 3.6 4.4 3 4-4.5-3-9.4-8.9-21.6-15.8-32.7-18.7-3-.8-4.6-1.5-3.4-1.5 1.1-.1 4.5.6 7.5 1.5zm39.9 30.5c1.5 2.8.5 2.3-1.5-.7-.9-1.5-1.2-2.3-.6-2 .6.4 1.6 1.6 2.1 2.7zm3 4.9c.6 1.1.8 2 .6 2-.3 0-1-.9-1.6-2-.6-1.1-.8-2-.6-2 .3 0 1 .9 1.6 2zm3 6.5c0 .5-.5.3-1-.5s-1-2-1-2.5c0-.6.5-.3 1 .5s1 1.9 1 2.5z"/><path d="M1806.5 80.8c.3.3-.1 1.2-.7 2.1-.8 1-.4.9 1-.3 2.6-2.3 2.6-2.3.7-2.3-.8 0-1.3.3-1 .5zm-1.8 9.9c-1.7 1.6-.5 3.2 2.3 3.1 1.7-.1 2.9-.2 2.8-.2-.2-.1-1.2-.9-2.4-1.9-1.1-.9-2.4-1.4-2.7-1zm55.8 15.9c-3.3.7-6.6 1.1-7.2.9-.7-.2-1.3 0-1.3.5 0 .6-1.1 1-2.5 1s-2.5.4-2.5.8-1 .8-2.1.9c-2.9.2-3.5 1.1-2 2.6.9.9 2.9.6 9.4-1.7 9-3.2 16.8-6.5 15.2-6.4-.5 0-3.7.6-7 1.4zm-119-32.4c-1 5.8-.8 27.9.3 35.3.6 3.3.8 6.2.6 6.4-.8.8-4.6-14.4-5.8-23.4-1.1-8-1.4-9-1.5-5-.3 11.8 3.4 30.2 8.5 43.2 5.7 14.5 19.5 32 33.3 42.2 38.9 28.9 88.2 27.8 120.4-2.7 5.7-5.5 4.4-5.7-2.5-.6-12.2 9-26.3 14.1-41.3 15.1-9.1.6-25-1.1-26-2.7-.3-.5-1.4-.6-2.6-.3-1.2.4-3.2-.3-5-1.6-1.7-1.3-3.6-2-4.3-1.8-.7.3-2.3-.4-3.7-1.4-1.3-1-2.9-1.9-3.6-1.9-.7 0-1.7-.9-2.3-2-.6-1.1-1.5-1.8-1.9-1.5-.5.2-1.4-.2-2.1-1-.7-.8-1.9-1.5-2.6-1.5-.8 0-1.4-.7-1.4-1.5s-.6-1.5-1.3-1.5c-.7 0-2.8-1.4-4.6-3.1-1.9-1.7-5.2-4.2-7.3-5.6-2.1-1.4-3.8-2.9-3.8-3.4 0-1-4.8-5.9-5.9-5.9-.4 0-1.3-1.1-1.9-2.5-1-2.3-2.3-3-4.5-2.6-.4 0-.6-.2-.5-.6.4-1.5-3.2-7.2-5.2-8.3-1.1-.6-2-1.6-2-2.3 0-.7-.9-2.3-2.1-3.5-1.1-1.2-1.7-2.7-1.4-3.2.3-.6-.1-1-1-1s-1.4-.4-1-.9c.3-.6-.4-2.6-1.5-4.5-1.1-2-2-3.8-2-4.1 0-.3-1-2.6-2.3-5.3-3.4-6.7-6-20.3-5.9-29.9.1-9-1.2-11.8-2.3-5.1zm314.9 735-2.9 3.3 3.3-2.9c3-2.8 3.7-3.6 2.9-3.6-.2 0-1.6 1.5-3.3 3.2zm-22.9 16-4 4.3 4.3-4c2.3-2.1 4.2-4 4.2-4.2 0-.8-.9 0-4.5 3.9zm125.9 6-1.9 2.3 2.3-1.9c2.1-1.8 2.7-2.6 1.9-2.6-.2 0-1.2 1-2.3 2.2zm-134.5 8.5-2.4 2.8 2.8-2.4c2.5-2.3 3.2-3.1 2.4-3.1-.2 0-1.4 1.2-2.8 2.7zm112.6 6.5-4 4.3 4.3-4c3.9-3.6 4.7-4.5 3.9-4.5-.2 0-2.1 1.9-4.2 4.2zm-9 15-4 4.3 4.3-4c3.9-3.6 4.7-4.5 3.9-4.5-.2 0-2.1 1.9-4.2 4.2z"/></g><path d="M1813.8 14.7c.6.2 1.8.2 2.5 0 .6-.3.1-.5-1.3-.5-1.4 0-1.9.2-1.2.5zm17.5 0c.9.2 2.3.2 3 0 .6-.3-.1-.5-1.8-.5-1.6 0-2.2.2-1.2.5zM1809 16c.8.5 2 1 2.5 1 .6 0 .3-.5-.5-1s-1.9-1-2.5-1c-.5 0-.3.5.5 1zm11.8-.3c.7.3 1.6.2 1.9-.1.4-.3-.2-.6-1.3-.5-1.1 0-1.4.3-.6.6zm-16.3 1.3c.3.5.8 1 1.1 1 .2 0 .4-.5.4-1 0-.6-.5-1-1.1-1-.5 0-.7.4-.4 1zm-8 2.1c-2.7 1.1-5.4 2.5-6 3-1.2 1.2 10.5-3 12-4.3 1.5-1.3-.6-.9-6 1.3zm64.5 4.3c0 .2.7.7 1.6 1 .8.3 1.2.2.9-.4-.6-1-2.5-1.4-2.5-.6zm-29.2 5.3c1.2.2 3 .2 4 0 .9-.3-.1-.5-2.3-.4-2.2 0-3 .2-1.7.4zm10.7 1.7c6.1 1.8 6.1 1.8 5 .7-.6-.6-3-1.3-5.5-1.6l-4.5-.5 5 1.4zm36.5 5.1c1.3 1.4 2.6 2.5 2.8 2.5.3 0-.5-1.1-1.8-2.5s-2.6-2.5-2.8-2.5c-.3 0 .5 1.1 1.8 2.5zm-11 6.4c0 .5.5 1.3 1 1.6.6.3 1 .2 1-.4 0-.5-.4-1.3-1-1.6-.5-.3-1-.2-1 .4zm18 .4c0 .2 1.5 1.6 3.3 3.3l3.2 2.9-2.9-3.3c-2.8-3-3.6-3.7-3.6-2.9zm-13 3.4c0 .5 2.6 3.3 5.7 6.3l5.7 5.5-4.2-5.1c-4.6-5.7-7.2-8.1-7.2-6.7zm19 3.7c0 .2.8 1 1.8 1.7 1.5 1.3 1.6 1.2.3-.4s-2.1-2.1-2.1-1.3zm4.5 6c1 1.4 1.9 2.6 2.2 2.6.7 0-1.7-3.9-2.8-4.6-.6-.3-.3.5.6 2zm-11 5c1 1.4 1.9 2.6 2.2 2.6.7 0-1.7-3.9-2.8-4.6-.6-.3-.3.5.6 2zm14.5.6c.6 1.1.8 2.6.4 3.2-.5.7-.3.8.6.3 1-.6 1.2-.4.7.9-.4.9-.3 1.4.2 1.1.5-.3 1.3.4 1.6 1.6.4 1.1.9 1.8 1.2 1.6.5-.6-4.5-10.7-5.3-10.7-.2 0 0 .9.6 2zm-11 5c.6 1.1 1.3 2 1.6 2 .2 0 0-.9-.6-2s-1.3-2-1.6-2c-.2 0 0 .9.6 2zm-121.4 3.2c-1.5 4.9-1.9 23.7-.7 29.9 3.2 16.1 12.6 32.6 25.4 44.5 9 8.4 17.6 13.6 28.2 17.1 6.9 2.3 9.7 2.7 20.5 2.7 10.7 0 13.3-.3 18.3-2.3 3.2-1.3 5.7-2.4 5.5-2.6-.2-.2-3.2.3-6.8 1.2-10.9 2.5-28.7 0-42.3-6.1-3.2-1.4-5.5-2.1-5.2-1.6 1 1.6 16.8 7.2 24 8.5 6.2 1.2 6.5 1.3 2.7 1.4-10.1.2-25.6-5.2-36.9-13-14.7-10.1-29.4-32.1-31.6-47.4-.5-3.5-.4-3.3 1.2 1.5 6.3 19.5 20.9 37.7 37.9 47.4 2.9 1.7.9-.5-2.5-2.5-24.5-15.2-41.3-49-37.2-75 .9-5.6.6-7.5-.5-3.7zm123.4.3c0 .5.5 1.7 1 2.5s1 1 1 .5c0-.6-.5-1.7-1-2.5s-1-1.1-1-.5zm19.1 18.1c0 1.1.3 1.4.6.6.3-.7.2-1.6-.1-1.9-.3-.4-.6.2-.5 1.3zm1.1 6.4c0 1.4.2 1.9.5 1.2.2-.6.2-1.8 0-2.5-.3-.6-.5-.1-.5 1.3zm-1 5c0 1.4.2 1.9.5 1.2.2-.6.2-1.8 0-2.5-.3-.6-.5-.1-.5 1.3zm0 11c0 1.4.4 3.6.8 5 .6 2 .8 2.1.8.5 0-1.1-.4-3.4-.8-5-.7-2.7-.8-2.7-.8-.5zm-1.2 8.5c0 .5.5 1.7 1 2.5s1 1 1 .5c0-.6-.5-1.7-1-2.5s-1-1.1-1-.5zm-.4 5.8c.3 1 .9 1.5 1.2 1.2.3-.3 0-1.1-.7-1.8-1-.9-1.1-.8-.5.6zm-1.1 3.7c.3.5.8 1 1.1 1 .2 0 .4-.5.4-1 0-.6-.5-1-1.1-1-.5 0-.7.4-.4 1zm-9.8 18.7c-2.2 3.2-3.1 5.1-2.2 4.3 2.2-1.9 7.8-10 6.8-10-.4.1-2.5 2.6-4.6 5.7z" fill="#33C"/><g fill="#03C" stroke-width="0"><path d="M1812.1 15.1c-3 .5-5.7 1.2-6 1.5-.3.4 1.4.3 3.9-.1 12.7-2.1 29.7-.1 42.9 5.2 21.5 8.6 41.9 28.3 50.5 48.9 7.7 18.6 9.2 33.8 5.1 54.4-.3 1.4.2.5 1-2 2.2-6.6 3-20.4 1.6-29.8-5.3-36.2-33.7-68.1-68.2-76.6-8.4-2.1-23.7-2.8-30.8-1.5z"/><path d="M1851 33c.8.5 2 1 2.5 1 .6 0 .3-.5-.5-1s-1.9-1-2.5-1c-.5 0-.3.5.5 1zm10 4.4c0 .3.9 1 2 1.6 1.1.6 2 .8 2 .6 0-.3-.9-1-2-1.6-1.1-.6-2-.8-2-.6zm9 6c0 .2.8 1 1.8 1.7 1.5 1.3 1.6 1.2.3-.4s-2.1-2.1-2.1-1.3zm-101.3 58.1c2.2 15.3 16.9 37.3 31.6 47.4 11.3 7.8 26.8 13.2 36.9 13 3.8-.1 3.6-.2-2.7-1.4-29.5-5.5-55.1-28.2-64.6-57.5-1.6-4.8-1.7-5-1.2-1.5z"/></g><g fill="#36F" stroke-width="0"><path d="M1825.6 18.9c-.4.5.2.8 1.1.6 1-.1 2.4.2 3.1.8.7.6 2.6 1.2 4.1 1.3 4.1.5 8.1 2.2 8.1 3.5 0 .6.7.9 1.5.6.8-.4 1.7-.2 2 .3.4.6 1.5 1 2.5 1 1.1 0 6.3 2.3 11.7 5 11 5.6 20.5 13.5 27.7 23.1 2.5 3.4 4.6 5.5 4.6 4.7 0-.8-.6-2-1.2-2.7-.7-.6-1.3-1.5-1.3-1.9 0-.5-2.4-3.8-5.3-7.6-9.4-11.8-29-24.3-44.3-28-7.3-1.8-13.5-2.1-14.3-.7zm-13.7 13.6c-6.4 2.1-12.9 5.8-16.1 9.2-2.7 2.8-5.8 6.7-5.8 7.1 0 .6 6.3-5 8.5-7.5 1.4-1.6 10.3-6.7 14.5-8.2 1.9-.8 7.8-1.7 13-2.1l9.5-.7-8-.1c-6-.1-9.9.5-15.6 2.3zm29.7.4c3.3 1 7 2.4 8.2 3 1.2.6 2.2.9 2.2.7 0-1.2-8.1-4.6-12.2-5.1-3.9-.5-3.8-.4 1.8 1.4zm-45.1 3.4c-5.8 4.3-13.4 13-16.5 18.8-1.8 3.3-3 6.2-2.8 6.4.2.2 1.7-2.2 3.3-5.3 3-5.7 11.3-15 17-18.9 1.6-1.2 2.8-2.4 2.5-2.7-.3-.2-1.9.5-3.5 1.7z"/><path d="M1858.6 40.5c1 .8 2.3 1.5 2.8 1.5.6 0 .1-.7-1-1.5-1-.8-2.3-1.5-2.8-1.5-.6 0-.1.7 1 1.5zm-91.7 1.2c-1.3 1.6-1.2 1.7.4.4 1.6-1.3 2.1-2.1 1.3-2.1-.2 0-1 .8-1.7 1.7zm101.1 4.6c0 .2 1.5 1.6 3.3 3.3l3.2 2.9-2.9-3.3c-2.8-3-3.6-3.7-3.6-2.9zm-83 9.7c-.9.6-1 1-.3 1 .6 0 1.5-.5 1.8-1 .8-1.2.4-1.2-1.5 0zm-28.4 3.3c.3 1 .9 1.5 1.2 1.2.3-.3 0-1.1-.7-1.8-1-.9-1.1-.8-.5.6zm18.5 8.3c0 1.1.3 1.4.6.6.3-.7.2-1.6-.1-1.9-.3-.4-.6.2-.5 1.3zm-1 4c0 1.1.3 1.4.6.6.3-.7.2-1.6-.1-1.9-.3-.4-.6.2-.5 1.3zm-.8 11.9c0 3.8.2 5.3.4 3.2.2-2 .2-5.2 0-7-.2-1.7-.4-.1-.4 3.8zm-20.1 5c0 1.6.2 2.2.5 1.2.2-.9.2-2.3 0-3-.3-.6-.5.1-.5 1.8zm53.8 5.9c0 1.3 14 8.9 14.9 8.1.2-.3.2-.6 0-.8-.2-.1-2.5-1.7-5-3.4-6.1-4.2-9.9-5.7-9.9-3.9zm-51.9 10.6c0 .8.4 2.2.9 3 1.2 1.8 1.2.2 0-2.5-.6-1.3-.9-1.5-.9-.5zm101 1.2c-4.1 1.9-3.3 2.2 2.5.8 2.3-.5 5.8-1.2 7.9-1.4 5.9-.7 5.3-1.5-1.1-1.3-3.2.1-7.4.9-9.3 1.9zm-98.1 8.2c0 .8.4 1.7.9 2 .5.4.7-.3.4-1.4-.6-2.3-1.3-2.6-1.3-.6zm26.2 5.8c4.4 7.4 18.1 20.8 25.5 25.1 7.6 4.4 18.7 8.4 26.7 9.6 14.4 2.1 31.6-1.6 40.6-8.9 1.4-1.1-1.5 0-6.3 2.5s-9.8 4.4-11 4.4c-1.7-.1-1.8-.2-.4-.6.9-.2 1.4-.9 1.1-1.5-.5-.7 0-.9 1.4-.6 1.2.4 2 .2 1.7-.2-.3-.4.7-1.3 2.3-1.9 3-1.1 7.7-4.9 7-5.6-.2-.3-1.5.3-2.9 1.2-1.3 1-3.3 1.9-4.4 2.1-1.1.1-2.4.7-2.9 1.2-.4.4-1.5.6-2.4.3-.8-.4-1.3-.2-1 .3.4.5-.4 1-1.5 1.1-1.2.1-4.4.6-7.1 1.2-3.1.7-5.3.8-5.9.2-.6-.6-1.9-.6-3.2-.1-3.5 1.3-2.1-2.2 1.7-4.4 1.6-1 3.4-3.1 4-4.7.5-1.6 1.4-2.6 1.9-2.3.5.3.9-.1.9-.9s.9-2.6 2.1-4.1c1.1-1.4 1.9-3.2 1.6-3.9-.3-.7-.8-.5-1.3.8-.4 1.1-1.6 2.7-2.6 3.6-1 .9-4 4.4-6.7 7.8-2.7 3.4-5.2 6.2-5.5 6.2-.3 0-2 .4-3.7.9-2.8.8-5.2.6-14.6-1.4-5.3-1.1-18.7-10-23.7-15.8-5.9-6.6-12.6-15.1-12.6-16 0-.4-.4-.8-1-.8-.5 0 .5 2.4 2.2 5.2zm-21.7 3.8c.9 1.6 1.8 3 2.1 3 .2 0-.2-1.4-1.1-3-.9-1.7-1.8-3-2.1-3-.2 0 .2 1.3 1.1 3zm93.4 1.7c-1.3 1.6-1.2 1.7.4.4 1.6-1.3 2.1-2.1 1.3-2.1-.2 0-1 .8-1.7 1.7zm30.6 2.2c-.3 1.2-2.8 4.4-5.6 7.3-4.5 4.8-5.7 6.8-4.4 6.8.7 0 5-4.4 5-5.1 0-.3.8-1.3 1.8-2.3 2.1-2.2 5-7.6 4.4-8.3-.3-.2-.8.5-1.2 1.6zM1766 130c.6 1.1 1.3 2 1.6 2 .2 0 0-.9-.6-2s-1.3-2-1.6-2c-.2 0 0 .9.6 2zm2 3.4c0 .2.8 1 1.8 1.7 1.5 1.3 1.6 1.2.3-.4s-2.1-2.1-2.1-1.3zm3 4c0 .2.8 1 1.8 1.7 1.5 1.3 1.6 1.2.3-.4s-2.1-2.1-2.1-1.3zm9 10.1c3 3 5.7 5.5 5.9 5.5.3 0-1.9-2.5-4.9-5.5-3-3-5.7-5.5-5.9-5.5-.3 0 1.9 2.5 4.9 5.5zm8 6.9c0 .2.8 1 1.8 1.7 1.5 1.3 1.6 1.2.3-.4s-2.1-2.1-2.1-1.3zm10 7.2c0 .2 1.4 1 3 1.9 1.7.9 3 1.2 3 .7 0-.4-1.3-1.3-3-1.9-1.6-.6-3-1-3-.7zm11 5.9c1.4.8 3 1.4 3.5 1.4.6 0-.1-.6-1.5-1.4-1.4-.8-2.9-1.4-3.5-1.4-.5 0 .1.6 1.5 1.4zm7.5 3c1.7.8 3.7 1.4 4.5 1.4.8 0-.1-.7-2-1.4-4.6-1.8-6.4-1.7-2.5 0zm39.5 2.6c-2.5.5-6.7 1.2-9.5 1.6l-5 .8 5 .2c2.9.2 7.5-.5 11-1.6 6.4-2 5.9-2.4-1.5-1zm-27 .8c4.2 1.3 12.5 2.2 11.5 1.2-.6-.4-3.9-1.1-7.5-1.4-3.6-.3-5.4-.2-4 .2z"/></g><path d="M1764 162.4c0 .2.8 1 1.8 1.7 1.5 1.3 1.6 1.2.3-.4s-2.1-2.1-2.1-1.3z" fill="#69C"/><path d="M1805 97c0 .6.5 1 1.1 1 .5 0 .7.5.4 1-.3.6.1 1.3.9 1.6.9.3 1.3 1 1 1.5-.3.5.2 1.2 1 1.5.9.3 1.4 1 1.1 1.4-.3.4.2 1.1 1.1 1.4.9.4 1.4.9 1.1 1.2-.3.3.2 1.4 1.1 2.4 2.8 3 5.7 7.5 5.4 8.2-.1.5.3.8.8.8.6 0 1 .7 1 1.5s.4 1.5 1 1.5c.9 0 4.1 5.4 3.9 6.6 0 .4.6 1.1 1.5 1.6s1.4 1.4 1 1.9c-.3.5 0 .8.8.7.7-.2 1.2.5 1.2 1.4-.1 1 .2 1.6.6 1.3.5-.3 2.1 1.3 3.7 3.5 1.5 2.2 3 4 3.3 4 .5 0 6-24.5 6-26.8 0-.7-7.7-5.1-17.2-9.8-19.5-9.8-21.8-10.8-21.8-9.4zm-602.5 29.6c-39.9 6-69.5 31.8-79.6 69.5-1.9 6.9-2.3 10.9-2.3 22.4 0 15.1 1.3 22.4 6 34.4 15.3 38.4 54.6 62.7 94.6 58.3 14.4-1.6 20.6-3.4 33.3-9.7 28.1-13.9 46.4-39.7 50.6-71.2 3.7-27.6-8.1-60.3-28.4-79-10.3-9.5-27.4-18.8-41.2-22.3-7.8-2-26.6-3.4-33-2.4zm27.3 41.9c.2.2-1.9 9-4.7 19.6-2.8 10.6-4.9 19.4-4.7 19.6.1.2 2.9-.6 6.1-1.7 3.2-1.1 6-1.8 6.2-1.6.4.3-3.4 14.7-3.9 15.1-.2.1-3.3 1.4-6.9 2.9l-6.6 2.8-2.7 10.1c-1.5 5.6-2.9 11.2-3.2 12.4l-.6 2.3 25.5.2 25.4.3-2.2 9.3c-1.2 5.2-2.7 9.8-3.3 10.4-1.2 1.2-83.2 0-83.2-1.2 0-.5 1.5-7.2 3.4-15.1 1.9-7.9 3.3-14.5 3.1-14.7-.2-.3-2.5.3-5.1 1.2-2.6.9-5 1.4-5.2 1.1-.3-.3.4-3.7 1.5-7.7l1.9-7.2 5.4-2.2c3-1.2 5.8-2.8 6.2-3.5.4-.8 3.5-11.8 6.8-24.4 3.4-12.7 6.5-24.4 7.1-26.2l1-3.1 16.2.5c8.9.3 16.3.7 16.5.8zm307.2 15.9c0 .2.8 1 1.8 1.7 1.5 1.3 1.6 1.2.3-.4s-2.1-2.1-2.1-1.3zm57.3 9.3c.9.2 2.3.2 3 0 .6-.3-.1-.5-1.8-.5-1.6 0-2.2.2-1.2.5zm91.7 44.7c0 .2.8 1 1.8 1.7 1.5 1.3 1.6 1.2.3-.4s-2.1-2.1-2.1-1.3zm53.1 97.2c0 1.1.3 1.4.6.6.3-.7.2-1.6-.1-1.9-.3-.4-.6.2-.5 1.3zm-6.1 293.8c0 .2.8 1 1.8 1.7 1.5 1.3 1.6 1.2.3-.4s-2.1-2.1-2.1-1.3zm492.8 46.3c.7.3 1.6.2 1.9-.1.4-.3-.2-.6-1.3-.5-1.1 0-1.4.3-.6.6zm-18 1c.7.3 1.6.2 1.9-.1.4-.3-.2-.6-1.3-.5-1.1 0-1.4.3-.6.6zm-18 1c.7.3 1.6.2 1.9-.1.4-.3-.2-.6-1.3-.5-1.1 0-1.4.3-.6.6zm-18 1c.7.3 1.6.2 1.9-.1.4-.3-.2-.6-1.3-.5-1.1 0-1.4.3-.6.6zm-19 1c.6.2 1.8.2 2.5 0 .6-.3.1-.5-1.3-.5-1.4 0-1.9.2-1.2.5zm-18 1c.6.2 1.8.2 2.5 0 .6-.3.1-.5-1.3-.5-1.4 0-1.9.2-1.2.5zm-18 1c.6.2 1.8.2 2.5 0 .6-.3.1-.5-1.3-.5-1.4 0-1.9.2-1.2.5zm-18 1c.6.2 1.8.2 2.5 0 .6-.3.1-.5-1.3-.5-1.4 0-1.9.2-1.2.5zm-18 1c.6.2 1.8.2 2.5 0 .6-.3.1-.5-1.3-.5-1.4 0-1.9.2-1.2.5zm-18 1c.6.2 1.8.2 2.5 0 .6-.3.1-.5-1.3-.5-1.4 0-1.9.2-1.2.5zm-18 1c.6.2 1.8.2 2.5 0 .6-.3.1-.5-1.3-.5-1.4 0-1.9.2-1.2.5zm-482.6 10.8c0 1.6.2 2.2.5 1.2.2-.9.2-2.3 0-3-.3-.6-.5.1-.5 1.8zm-.1 24.1c0 1.1.3 1.4.6.6.3-.7.2-1.6-.1-1.9-.3-.4-.6.2-.5 1.3zm204 15c0 1.1.3 1.4.6.6.3-.7.2-1.6-.1-1.9-.3-.4-.6.2-.5 1.3zm1 17c0 1.1.3 1.4.6.6.3-.7.2-1.6-.1-1.9-.3-.4-.6.2-.5 1.3zm1 19c0 1.1.3 1.4.6.6.3-.7.2-1.6-.1-1.9-.3-.4-.6.2-.5 1.3zm1 21c0 1.1.3 1.4.6.6.3-.7.2-1.6-.1-1.9-.3-.4-.6.2-.5 1.3zm1 22c0 1.1.3 1.4.6.6.3-.7.2-1.6-.1-1.9-.3-.4-.6.2-.5 1.3zm1.1 23.4c0 1.4.2 1.9.5 1.2.2-.6.2-1.8 0-2.5-.3-.6-.5-.1-.5 1.3zm-634.1 23.6c0 1.1.3 1.4.6.6.3-.7.2-1.6-.1-1.9-.3-.4-.6.2-.5 1.3zm635.1.4c0 1.4.2 1.9.5 1.2.2-.6.2-1.8 0-2.5-.3-.6-.5-.1-.5 1.3zm-636.1 16.6c0 1.1.3 1.4.6.6.3-.7.2-1.6-.1-1.9-.3-.4-.6.2-.5 1.3zm637.1 8.4c0 1.4.2 1.9.5 1.2.2-.6.2-1.8 0-2.5-.3-.6-.5-.1-.5 1.3zm-637.9 15.5c0 2.2.2 3 .4 1.7.2-1.2.2-3 0-4-.3-.9-.5.1-.4 2.3zm638.9 10.5c0 1.4.2 1.9.5 1.2.2-.6.2-1.8 0-2.5-.3-.6-.5-.1-.5 1.3zm.9 24.6c0 1.1.3 1.4.6.6.3-.7.2-1.6-.1-1.9-.3-.4-.6.2-.5 1.3zm1 16c0 1.1.3 1.4.6.6.3-.7.2-1.6-.1-1.9-.3-.4-.6.2-.5 1.3zM1135.2 976c0 1.9.2 2.7.5 1.7.2-.9.2-2.5 0-3.5-.3-.9-.5-.1-.5 1.8zm.9 22.6c0 1.1.3 1.4.6.6.3-.7.2-1.6-.1-1.9-.3-.4-.6.2-.5 1.3zm1 15c0 1.1.3 1.4.6.6.3-.7.2-1.6-.1-1.9-.3-.4-.6.2-.5 1.3zm826.8 77.1c-1.3 1.6-1.2 1.7.4.4 1.6-1.3 2.1-2.1 1.3-2.1-.2 0-1 .8-1.7 1.7zm-733.1 76c.7.3 1.6.2 1.9-.1.4-.3-.2-.6-1.3-.5-1.1 0-1.4.3-.6.6zm43 0c.7.3 1.6.2 1.9-.1.4-.3-.2-.6-1.3-.5-1.1 0-1.4.3-.6.6zm508 2c.7.3 1.6.2 1.9-.1.4-.3-.2-.6-1.3-.5-1.1 0-1.4.3-.6.6z" fill="#CCC"/><path d="M1811 107c0 .5.5 1 1.1 1 .5 0 .7-.5.4-1-.3-.6-.8-1-1.1-1-.2 0-.4.4-.4 1zm2.1 2.3c-.1 1.3 5.1 8.7 6.1 8.7.5 0-.1-1.3-1.4-2.9-1.2-1.5-2.8-3.7-3.5-4.7-.6-1.1-1.2-1.6-1.2-1.1zm6.4 10.7c.3.5.8 1 1.1 1 .2 0 .4-.5.4-1 0-.6-.5-1-1.1-1-.5 0-.7.4-.4 1zm3.8 5.5c2.9 4.5 4.2 4.5 1.6 0-1.2-1.9-2.5-3.5-3-3.5-.4 0 .2 1.6 1.4 3.5zm3.7 5.5c0 .5.5 1 1 1 .6 0 1 .7 1 1.5s.5 1.5 1 1.5c.6 0 1 .5 1 1 0 .6 1.6 3.4 3.5 6.3 2.6 3.8 3.5 4.6 3.5 3.1 0-1.2-2.3-5.1-5-8.8-5.1-6.6-6-7.5-6-5.6z" fill="#9CC"/><path d="M1587.8 193.7c1.2.2 3 .2 4 0 .9-.3-.1-.5-2.3-.4-2.2 0-3 .2-1.7.4zm461.9 118.6c-22.4 37.4-40.6 68.1-40.5 68.3.2.1 18.6-8 40.8-18.1l40.5-18.4.3-25.1c.1-13.7.1-36.2 0-49.8l-.3-24.9-40.8 68zm-310.6 26.3c0 1.1.3 1.4.6.6.3-.7.2-1.6-.1-1.9-.3-.4-.6.2-.5 1.3zm0 14c0 1.1.3 1.4.6.6.3-.7.2-1.6-.1-1.9-.3-.4-.6.2-.5 1.3zm273.1 52c6.7 9.4 40.6 57.1 58.8 82.9 10 14.3 18.7 26.4 19.1 27 .5.5.9-13.9.8-33v-34l-40-23.5c-22-12.9-40.5-23.7-41.1-23.9-.7-.2.4 1.8 2.4 4.5zm217.6 271.1c.7.3 1.6.2 1.9-.1.4-.3-.2-.6-1.3-.5-1.1 0-1.4.3-.6.6zm-18 1c.7.3 1.6.2 1.9-.1.4-.3-.2-.6-1.3-.5-1.1 0-1.4.3-.6.6zm-18 1c.7.3 1.6.2 1.9-.1.4-.3-.2-.6-1.3-.5-1.1 0-1.4.3-.6.6zm-18 1c.7.3 1.6.2 1.9-.1.4-.3-.2-.6-1.3-.5-1.1 0-1.4.3-.6.6zm-18 1c.7.3 1.6.2 1.9-.1.4-.3-.2-.6-1.3-.5-1.1 0-1.4.3-.6.6zm-18 1c.7.3 1.6.2 1.9-.1.4-.3-.2-.6-1.3-.5-1.1 0-1.4.3-.6.6zm-18 1c.7.3 1.6.2 1.9-.1.4-.3-.2-.6-1.3-.5-1.1 0-1.4.3-.6.6zm-18 1c.7.3 1.6.2 1.9-.1.4-.3-.2-.6-1.3-.5-1.1 0-1.4.3-.6.6zm-37 2c.7.3 1.6.2 1.9-.1.4-.3-.2-.6-1.3-.5-1.1 0-1.4.3-.6.6zm-18 1c.7.3 1.6.2 1.9-.1.4-.3-.2-.6-1.3-.5-1.1 0-1.4.3-.6.6zm-283.7 37.9c0 1.1.3 1.4.6.6.3-.7.2-1.6-.1-1.9-.3-.4-.6.2-.5 1.3zm1 15c0 1.1.3 1.4.6.6.3-.7.2-1.6-.1-1.9-.3-.4-.6.2-.5 1.3zm1 17c0 1.1.3 1.4.6.6.3-.7.2-1.6-.1-1.9-.3-.4-.6.2-.5 1.3zm1.1 19.4c0 1.4.2 1.9.5 1.2.2-.6.2-1.8 0-2.5-.3-.6-.5-.1-.5 1.3zm1 21c0 1.4.2 1.9.5 1.2.2-.6.2-1.8 0-2.5-.3-.6-.5-.1-.5 1.3zm1 22c0 1.4.2 1.9.5 1.2.2-.6.2-1.8 0-2.5-.3-.6-.5-.1-.5 1.3zm1 24c0 1.4.2 1.9.5 1.2.2-.6.2-1.8 0-2.5-.3-.6-.5-.1-.5 1.3zm-634.1 22.6c0 1.1.3 1.4.6.6.3-.7.2-1.6-.1-1.9-.3-.4-.6.2-.5 1.3zm635.1 1.4c0 1.4.2 1.9.5 1.2.2-.6.2-1.8 0-2.5-.3-.6-.5-.1-.5 1.3zm-636 16c0 1.4.2 1.9.5 1.2.2-.6.2-1.8 0-2.5-.3-.6-.5-.1-.5 1.3zm637 9.5c0 1.6.2 2.2.5 1.2.2-.9.2-2.3 0-3-.3-.6-.5.1-.5 1.8zm-638 17c0 1.6.2 2.2.5 1.2.2-.9.2-2.3 0-3-.3-.6-.5.1-.5 1.8zm639 9c0 1.6.2 2.2.5 1.2.2-.9.2-2.3 0-3-.3-.6-.5.1-.5 1.8zm.9 23.1c0 1.1.3 1.4.6.6.3-.7.2-1.6-.1-1.9-.3-.4-.6.2-.5 1.3zm-639.9 29.9c0 1.6.2 2.2.5 1.2.2-.9.2-2.3 0-3-.3-.6-.5.1-.5 1.8zm.9 25.1c0 1.1.3 1.4.6.6.3-.7.2-1.6-.1-1.9-.3-.4-.6.2-.5 1.3zm97.7 171.1c.7.3 1.6.2 1.9-.1.4-.3-.2-.6-1.3-.5-1.1 0-1.4.3-.6.6zm540.5 2c.9.2 2.3.2 3 0 .6-.3-.1-.5-1.8-.5-1.6 0-2.2.2-1.2.5z" fill="#999"/><path d="M1573.8 193.7c2.3.2 6.1.2 8.5 0 2.3-.2.4-.4-4.3-.4s-6.6.2-4.2.4zm105.7 38.3c2.1 2.2 4.1 4 4.4 4 .3 0-1.3-1.8-3.4-4-2.1-2.2-4.1-4-4.4-4-.3 0 1.3 1.8 3.4 4zm412 60.5c0 27.5.1 38.6.2 24.7.2-13.9.2-36.4 0-50-.1-13.6-.2-2.2-.2 25.3zm-352.4 57.1c0 1.1.3 1.4.6.6.3-.7.2-1.6-.1-1.9-.3-.4-.6.2-.5 1.3zM2091 482c0 18.9.2 34.1.6 33.8.6-.7.5-67-.1-67.7-.3-.2-.5 15-.5 33.9zm142.8 193.7c.7.3 1.6.2 1.9-.1.4-.3-.2-.6-1.3-.5-1.1 0-1.4.3-.6.6zm-18 1c.7.3 1.6.2 1.9-.1.4-.3-.2-.6-1.3-.5-1.1 0-1.4.3-.6.6zm-18 1c.7.3 1.6.2 1.9-.1.4-.3-.2-.6-1.3-.5-1.1 0-1.4.3-.6.6zm-18 1c.7.3 1.6.2 1.9-.1.4-.3-.2-.6-1.3-.5-1.1 0-1.4.3-.6.6zm-18 1c.7.3 1.6.2 1.9-.1.4-.3-.2-.6-1.3-.5-1.1 0-1.4.3-.6.6zm-18 1c.7.3 1.6.2 1.9-.1.4-.3-.2-.6-1.3-.5-1.1 0-1.4.3-.6.6zm-18 1c.7.3 1.6.2 1.9-.1.4-.3-.2-.6-1.3-.5-1.1 0-1.4.3-.6.6zm-18 1c.7.3 1.6.2 1.9-.1.4-.3-.2-.6-1.3-.5-1.1 0-1.4.3-.6.6zm-545.7 42.9c0 1.1.3 1.4.6.6.3-.7.2-1.6-.1-1.9-.3-.4-.6.2-.5 1.3zm204 16c0 1.1.3 1.4.6.6.3-.7.2-1.6-.1-1.9-.3-.4-.6.2-.5 1.3zm1 17c0 1.1.3 1.4.6.6.3-.7.2-1.6-.1-1.9-.3-.4-.6.2-.5 1.3zm1 20c0 1.1.3 1.4.6.6.3-.7.2-1.6-.1-1.9-.3-.4-.6.2-.5 1.3zm1 21c0 1.1.3 1.4.6.6.3-.7.2-1.6-.1-1.9-.3-.4-.6.2-.5 1.3zm1.1 22.4c0 1.4.2 1.9.5 1.2.2-.6.2-1.8 0-2.5-.3-.6-.5-.1-.5 1.3zm1 24c0 1.4.2 1.9.5 1.2.2-.6.2-1.8 0-2.5-.3-.6-.5-.1-.5 1.3zm-633.1 5.6c0 1.1.3 1.4.6.6.3-.7.2-1.6-.1-1.9-.3-.4-.6.2-.5 1.3zm634.1 18.9c0 1.6.2 2.2.5 1.2.2-.9.2-2.3 0-3-.3-.6-.5.1-.5 1.8zm-636 15.5c0 1.4.2 1.9.5 1.2.2-.6.2-1.8 0-2.5-.3-.6-.5-.1-.5 1.3zm637 10c0 1.4.2 1.9.5 1.2.2-.6.2-1.8 0-2.5-.3-.6-.5-.1-.5 1.3zm-637.9 18.5c0 2.2.2 3 .4 1.7.2-1.2.2-3 0-4-.3-.9-.5.1-.4 2.3zm638.9 7.5c0 1.4.2 1.9.5 1.2.2-.6.2-1.8 0-2.5-.3-.6-.5-.1-.5 1.3zm-639 43c0 1.9.2 2.7.5 1.7.2-.9.2-2.5 0-3.5-.3-.9-.5-.1-.5 1.8zm1 27c0 1.4.2 1.9.5 1.2.2-.6.2-1.8 0-2.5-.3-.6-.5-.1-.5 1.3zm100.6 174.7c.7.3 1.6.2 1.9-.1.4-.3-.2-.6-1.3-.5-1.1 0-1.4.3-.6.6zm557 1c.7.3 1.6.2 1.9-.1.4-.3-.2-.6-1.3-.5-1.1 0-1.4.3-.6.6zm-73.5 1c.9.2 2.3.2 3 0 .6-.3-.1-.5-1.8-.5-1.6 0-2.2.2-1.2.5zm49 0c.9.2 2.3.2 3 0 .6-.3-.1-.5-1.8-.5-1.6 0-2.2.2-1.2.5z" fill="#666"/><g fill="#333" stroke-width="0"><path d="M1483.8 146.7c.7.3 1.6.2 1.9-.1.4-.3-.2-.6-1.3-.5-1.1 0-1.4.3-.6.6zm34.2 7.7c0 .2.8 1 1.8 1.7 1.5 1.3 1.6 1.2.3-.4s-2.1-2.1-2.1-1.3zm-88.1 19.3c-1.3 1.6-1.2 1.7.4.4 1.6-1.3 2.1-2.1 1.3-2.1-.2 0-1 .8-1.7 1.7zm129.8 20c1.8.2 5 .2 7 0 2.1-.2.7-.4-3.2-.4-3.8 0-5.5.2-3.8.4zm532.3 98.8c0 26.4-.3 48.9-.6 50-.4 1.5-9.1 5.9-34.7 17.5-18.8 8.5-37.5 17-41.5 18.8l-7.3 3.5 20.3 12c11.2 6.6 30 17.8 41.8 24.8l21.5 12.8.5-43.8.5-43.8 40.5 18.4c22.2 10.1 40.8 18.9 41.3 19.6 3.5 5-4.8-9.1-39.7-67.3-22-36.6-40.5-67.4-41.3-68.5-1.1-1.6-1.3 5.7-1.3 46zM1739.2 345c0 1.9.2 2.7.5 1.7.2-.9.2-2.5 0-3.5-.3-.9-.5-.1-.5 1.8zm393.1 78.8-40.2 23.7-.1 33.5c0 28 .2 33.2 1.3 32 1.4-1.5 77.6-109.3 79.1-111.8.4-.6.6-1.2.4-1.2-.2 0-18.4 10.7-40.5 23.8zm-933.8 201.4-4 4.3 4.3-4c3.9-3.6 4.7-4.5 3.9-4.5-.2 0-2.1 1.9-4.2 4.2zm931.8 56.1-90.2 5.1-17.3 46.5c-9.6 25.6-37.4 100.2-61.9 165.7l-44.4 119.1-55.2 10.7c-30.4 6-56 10.6-56.8 10.2-.9-.3-1.3-.2-1 .4.3.6-.2 1-1.1 1-1 0-42.3 7.9-91.8 17.5-49.6 9.6-91.6 17.7-93.4 18-5.2.9-17.6 3.5-17.9 3.9-.8.8-3 9.6-2.4 9.6 3.1 0 198.9-28.6 236.4-34.6 12-1.9 22.3-3.2 22.8-2.8.5.3.9 0 .9-.5 0-.6 1.1-1.1 2.4-1.1 1.3 0 12.4-2.5 24.7-5.6 37-9.1 64.3-14.3 76-14.4h6.5l2.3-7.3c6.6-20.9 15.6-42.4 20.5-49 3.4-4.6 9.1-7 15-6.4 2.8.3 5.8.8 6.7 1.2 1.3.5 1.7-.5 2.2-5.7 1-10.5 3.4-16.8 8.2-21.5 3.6-3.7 4.9-4.3 8.3-4.3 3.2 0 4.5.6 6.1 2.7 4.2 5.2 6.2 17.1 7.6 43.8.4 7.1 1.1 13.7 1.5 14.5.9 1.6 1 1.4 5.3-9.5 1.9-4.8 3.1-6.4 6.3-8.2 9.1-5.2 11.6-2.1 12.2 14.8.3 7.4.8 11.9 1.5 11.9 2 0 60.2-15.1 60.9-15.8.5-.6 106.8-313.8 106.8-314.8 0-.9-22.2.1-107.7 4.9zm-22.1 94.4c1 .9 1.8 2.3 1.8 3.1 0 2.2-29.9 112.2-31.1 114.4-1.5 2.7-5.6 3.4-7.9 1.3-1.1-1-2-2.7-2-3.7 0-1.1 6.8-27 15.1-57.6 15.3-56.8 16.2-59.2 20.7-59.2.8 0 2.4.7 3.4 1.7zm31.8 32.6c19.7 12.3 24.7 15.8 25.5 18.1 1 2.8.5 3.4-20 23.2-11.6 11.2-21.8 20.6-22.8 21-2.7.9-6.7-2.2-6.7-5.2 0-2 3.8-6.3 17.7-19.8l17.7-17.2-21-13c-19.3-12-20.9-13.3-21.2-16.1-.2-2.3.3-3.5 2-4.7 1.2-.9 2.7-1.6 3.3-1.6.5 0 12 6.9 25.5 15.3zm-78.8-8.1c.9.7 1.9 2.4 2.3 3.8.7 2.2-1.1 4.2-17.4 20.1l-18.1 17.6 20.5 12.7c11.3 7 21 13.7 21.6 14.8 1.5 2.8-.3 6.6-3.4 7.3-1.9.5-7.6-2.6-27.6-15-23.5-14.6-25.1-15.8-25.1-18.5 0-2.5 2.9-5.8 19.1-21.7 23.2-22.8 24.6-23.8 28.1-21.1zm-294.1-38.6c0 1.1.3 1.4.6.6.3-.7.2-1.6-.1-1.9-.3-.4-.6.2-.5 1.3zm1.1 20.4c0 1.4.2 1.9.5 1.2.2-.6.2-1.8 0-2.5-.3-.6-.5-.1-.5 1.3zm1 21c0 1.4.2 1.9.5 1.2.2-.6.2-1.8 0-2.5-.3-.6-.5-.1-.5 1.3zm1 23c0 1.4.2 1.9.5 1.2.2-.6.2-1.8 0-2.5-.3-.6-.5-.1-.5 1.3zm1 24c0 1.4.2 1.9.5 1.2.2-.6.2-1.8 0-2.5-.3-.6-.5-.1-.5 1.3zm-634.1 19.6c0 1.1.3 1.4.6.6.3-.7.2-1.6-.1-1.9-.3-.4-.6.2-.5 1.3zm635.1 5.4c0 1.4.2 1.9.5 1.2.2-.6.2-1.8 0-2.5-.3-.6-.5-.1-.5 1.3zm-636.1 14.6c0 1.1.3 1.4.6.6.3-.7.2-1.6-.1-1.9-.3-.4-.6.2-.5 1.3zm637.1 10.4c0 1.4.2 1.9.5 1.2.2-.6.2-1.8 0-2.5-.3-.6-.5-.1-.5 1.3zm-637.9 25.5c0 4.4.2 6.1.4 3.7.2-2.3.2-5.9 0-8-.2-2-.4-.1-.4 4.3z"/><path d="M1774.2 926.5c0 1.6.2 2.2.5 1.2.2-.9.2-2.3 0-3-.3-.6-.5.1-.5 1.8zm.9 19.1c0 1.1.3 1.4.6.6.3-.7.2-1.6-.1-1.9-.3-.4-.6.2-.5 1.3zm-639.8 8.9c0 4.4.2 6.1.4 3.7.2-2.3.2-5.9 0-8-.2-2-.4-.1-.4 4.3zm640.8 6.1c0 1.1.3 1.4.6.6.3-.7.2-1.6-.1-1.9-.3-.4-.6.2-.5 1.3zm-640 28c0 1.1.3 1.4.6.6.3-.7.2-1.6-.1-1.9-.3-.4-.6.2-.5 1.3zm607.7 16.1c.6.2 1.8.2 2.5 0 .6-.3.1-.5-1.3-.5-1.4 0-1.9.2-1.2.5zm-606.7 1.9c0 1.1.3 1.4.6.6.3-.7.2-1.6-.1-1.9-.3-.4-.6.2-.5 1.3zm833.8 77.1c-1.3 1.6-1.2 1.7.4.4 1.6-1.3 2.1-2.1 1.3-2.1-.2 0-1 .8-1.7 1.7zm-730.6 83c.9.2 2.3.2 3 0 .6-.3-.1-.5-1.8-.5-1.6 0-2.2.2-1.2.5zm25.5 0c.6.2 1.8.2 2.5 0 .6-.3.1-.5-1.3-.5-1.4 0-1.9.2-1.2.5zm459.5 2c.9.2 2.3.2 3 0 .6-.3-.1-.5-1.8-.5-1.6 0-2.2.2-1.2.5zm37.5 0c1.2.2 3 .2 4 0 .9-.3-.1-.5-2.3-.4-2.2 0-3 .2-1.7.4zm-82 84c9 .2 23.4.2 32 0 8.6-.1 1.3-.3-16.3-.3s-24.7.2-15.7.3z"/></g><g stroke-width="0"><path d="M1480 147c-29.5 4.1-52.8 23.1-69.5 56.8-12.7 25.6-18.8 44.9-33.5 107.2-31 131.1-43.2 174.7-59 210-9.3 20.6-34.7 61.8-39 63.1-41.5 12.2-62.1 23-81.1 42.5-19.8 20.5-32.2 44.3-40.8 78.9-4 16-12.3 77.5-16 119-8.1 89.7-7.1 172.8 2.9 244.5 4.6 32.7 14.8 58.2 29.6 74.1 5.3 5.6 16.1 12.7 24.4 15.9 17.5 6.9 51.5 9.4 83.6 6.4l6.1-.6-6.8 40.8c-3.7 22.5-7.1 42.4-7.4 44.3l-.6 3.3 227-.3c124.8-.2 227.2-.6 227.5-1 .3-.3-1.5-18-3.9-39.5-2.5-21.4-4.5-40.1-4.5-41.7v-2.8l13.3.7c16.4.8 64.6-1.1 82.7-3.1 54.1-6.3 90.4-24 142.5-69.6 6.1-5.3 11.9-10.6 12.9-11.8 1.1-1.2-9.9 3.7-26.9 12l-28.7 14.2-5.7-1.6c-3.1-.9-6.9-2-8.3-2.6-1.6-.6-12-11.9-25.2-27.3-18.7-21.7-22.3-26.4-20.8-27 1-.5.6-.6-1.3-.3-48.8 7.8-251.7 37.5-256.1 37.5-.9 0-.9-1.1.1-4.8l1.2-4.8-6.6 1.2c-3.6.7-6.6 1.2-6.7 1.1-.3-.4-4.4-56.5-4.4-59.9 0-3.5.2-3.8 4.3-4.9 9.2-2.4 31.7-11.4 41.2-16.3 5.5-2.8 17.4-10 26.3-16 23-15.2 30.3-18.2 49.6-20.5 4.9-.6 9-1.2 9.1-1.3 5.5-9 13-19.3 16.2-22.6 6.7-6.6 11.7-5.5 14.9 3.5.7 2.1 1.3 5.2 1.4 7 0 2.1.6 3.3 1.8 3.7 3.4 1 28.7 8.9 30 9.4.9.3 1.2-.2.8-1.9-.7-3.1-2.2-35.1-4.1-84.4-3.3-84.7-6.7-151-8.5-165.5-2.9-23.2-5.1-33.6-9.7-46.3-6.9-19.2-20.1-37.7-33.2-46.7-17.8-12-47.6-22.2-86-29.5-7.4-1.4-13.5-2.5-13.6-2.5-.2 0-.6 1.5-.9 3.2-1.1 5.9-6.3 13.6-10.6 15.8-7.1 3.6-12.1 2.5-36.5-8.2-23.7-10.4-27.9-11.4-31.5-7.8-4.3 4.3-1.5 19.1 8.9 47 8.7 23.1 11.1 36.6 11.8 65 .6 24.4-.5 37-6.2 70.6-5.8 34.2-17.2 86.2-18.5 84.7-.4-.4-3.8-7.6-7.6-15.8-9.5-21.1-40.3-81.8-51.3-101.4-15.5-27.7-32.2-53-56.8-86.3-6.8-9.2-13.2-17-14.3-17.3-1.1-.3-1.7-1.2-1.4-2 .3-.7.1-1.6-.5-2-.6-.3-1.1-1.1-1.1-1.6 0-.6.4-.8.9-.5 1.1.7.8 3.3 9.7-74.3l7.7-67.5 6.2-9.5c20.4-31.7 23.9-43.8 26.1-91.6.7-16.3 1.7-21.8 4.7-26.2 3.3-4.8 7.4-6.7 13.4-6.1 12.1 1.2 20.3 8.1 31.3 26.3 7.6 12.6 8.3 13.5 12.1 14.5 5 1.4 9.4.2 30.4-8.2 31.3-12.5 47.9-18 78-25.8 40.6-10.4 73.2-14.1 91.3-10.4 8.9 1.8 11.9 3.2 17.1 8l3.8 3.4.7-4.6c1.9-13.8.2-30.6-4.4-45.4-9.4-29.6-41.9-73.3-70.6-94.8-24.7-18.5-44.2-24.1-84-24.2-34.3 0-39.3-2-48.3-19.5-8.7-16.9-14.4-23-24.4-26-6.6-2-18.3-2.6-26.7-1.5zm612 240.6v43.5l2.8-1.5c6.9-3.6 78.7-46.8 79-47.5.1-.4-14.9-7.7-33.5-16.1-18.6-8.4-37.1-16.8-41-18.6l-7.3-3.3v43.5z"/><path d="M1730.7 1007.2c-.4 1.3-2 3.7-3.7 5.3-2.9 2.8-3.7 3-12 3.3l-9 .4-4.1 7.8c-12.3 23-26 33.8-55.2 43.5-7.2 2.4-12.8 4.4-12.4 4.5.4 0 37.8-7.2 83-16s83-16 84-16c.9 0 1.7-.4 1.7-.8s-4.6-1.9-10.2-3.3l-10.3-2.4-1-11-1-11-8.5-2.9c-7.8-2.7-9.9-3-24.6-3.4l-16.1-.4-.6 2.4z"/></g><path d="M1705.8 350.7c.7.3 1.6.2 1.9-.1.4-.3-.2-.6-1.3-.5-1.1 0-1.4.3-.6.6z" fill="#633"/><path d="M1697.8 350.7c.7.3 1.6.2 1.9-.1.4-.3-.2-.6-1.3-.5-1.1 0-1.4.3-.6.6zm5 0c.7.3 1.6.2 1.9-.1.4-.3-.2-.6-1.3-.5-1.1 0-1.4.3-.6.6z" fill="#663"/><path d="M2042.1 971.6c0 1.1.3 1.4.6.6.3-.7.2-1.6-.1-1.9-.3-.4-.6.2-.5 1.3zm1 17c0 1.1.3 1.4.6.6.3-.7.2-1.6-.1-1.9-.3-.4-.6.2-.5 1.3zm-307.3 16.1c.6.2 1.8.2 2.5 0 .6-.3.1-.5-1.3-.5-1.4 0-1.9.2-1.2.5zm16 0c.7.3 1.6.2 1.9-.1.4-.3-.2-.6-1.3-.5-1.1 0-1.4.3-.6.6z" fill="#966"/><path d="M2068.2 996c0 1.4.2 1.9.5 1.2.2-.6.2-1.8 0-2.5-.3-.6-.5-.1-.5 1.3zm-356.9 19.7c1.5.2 3.9.2 5.5 0 1.5-.2.2-.4-2.8-.4s-4.3.2-2.7.4z" fill="#C96"/><path d="M2068.3 1003c0 3 .2 4.3.4 2.7.2-1.5.2-3.9 0-5.5-.2-1.5-.4-.2-.4 2.8z" fill="#C99"/><path d="M1675.5 352.5c-40.7 5.8-80.7 17.1-131 37.1-19.4 7.7-26.3 9-30.6 5.6-1.4-1.2-5.8-7.5-9.9-14.1-9.7-16.1-16.2-21.9-27.8-25-8.6-2.4-15.5 2-18.1 11.4-.6 2.2-1.6 13.2-2.2 24.5-1.3 27-3.1 39.5-6.9 50.5-3.7 10.4-10.7 24.1-19.1 37.1l-5.9 9.1-8 69.4c-4.3 38.2-8.1 71.3-8.4 73.5-.5 3.9-.4 4.2 2.2 4.7 1.5.3 13.3 3.2 26.3 6.5 33.9 8.7 43.9 10.2 72.9 11.2 13.5.5 29.8 1.2 36.3 1.6l11.8.7-4.7-12.9c-14.3-39.8-16.4-51.7-9.3-55.1 3.7-1.8 10.6.2 29.7 8.5 18.5 8.1 24.8 10.2 30.7 10.2 8.9 0 15.2-8.3 18.2-24 1.5-8.1 1.8-8.7 5.8-11.7 2.8-2.1 5.4-5.4 7.3-9.2 1.9-3.8 5.4-8.3 9.3-12l6.2-5.9-.6-5.2c-.6-4.6-.4-5.1 1.1-4.5 14.8 5.7 21.9 5.8 26.3.5 4.4-5.3 5.1-9.6 5.9-40.5.4-17 1.1-30.1 1.8-31.7.6-1.4 4.7-5.7 9.2-9.4 22.3-18.7 44-57 44.2-77.9.2-12.1-3.9-17.8-15.7-22-6.8-2.4-33.1-3-47-1zm55.8 585.4c-3.1 2-11.3 12.2-16.8 21.2l-2.9 4.7-7 .6c-9.6.9-22.1 3.9-29 7-3.2 1.4-11 6.1-17.4 10.4-27.3 18.4-38.1 23.9-64 32.7-6.7 2.3-12.4 4.4-12.6 4.6-.5.5 4.2 61 4.7 61.6.7.6 38.7-7.5 50.2-10.7 36.9-10.4 54.4-23.4 66.3-49.3l2.6-5.7h8.4c10.1 0 13.2-1.4 15.7-7l1.9-4.2 15.6.4c14.3.4 16.2.7 24.9 3.7 5.1 1.8 17.3 7.1 27 11.8 9.7 4.7 19.3 8.7 21.3 9 3.3.5 3.9.2 5.6-2.7l2-3.2-5.1-4.7c-15.2-13.7-27.3-21.9-39.2-26.8-4.4-1.8-7.1-3.2-6-3.3 1 0 9.8 1.4 19.5 3.1 18.4 3.2 23.2 3.3 29.3.4 5.4-2.5 4.7-5.2-2.2-8.9-7-3.7-31.3-12.6-57.6-21-11.5-3.7-21.6-6.9-22.2-7.1-.7-.3-1.3-1.9-1.3-3.7 0-5.4-1.9-10.6-4.7-12.8-3.1-2.4-3.1-2.4-7-.1zm293.7 1.3c-6.5 4.4-9.3 10.4-10.9 23.3-.4 3.6-1 6.7-1.3 7-.3.3-1.7.1-3.2-.5-1.5-.5-4.8-1-7.3-1-11.3 0-16.6 8.3-29.9 46.5l-5.2 15-3.3.3c-16 1.2-44.8 6.8-75.4 14.4-11 2.7-23 5.7-26.7 6.5-3.8.9-6.8 2-6.8 2.5s9.7 12.2 21.6 26.1l21.6 25.2 8.1 2.6 8 2.7 23.6-11.5c39.2-19 61-30.9 81.1-44.3 6.3-4.2 19.2-11.7 28.5-16.6 24.2-12.6 27.1-16 22.5-26.3-1.6-3.4-2-6.5-2-14.7 0-7.1-.5-11.6-1.5-14.1-1.4-3.3-1.7-3.5-5-3-4.6.8-9.1 4-9.9 7.2-1.5 5.8-5.7 13.8-6.7 12.8-.6-.6-1.7-10.2-2.4-21.4-.8-11.2-2.2-23.7-3.1-27.7-2.5-11.5-7.7-15.5-14.4-11z" fill="#FC9"/><path d="M1683.4 481.5c0 6 .1 8.4.3 5.2.2-3.2.2-8.1 0-11-.2-2.9-.3-.3-.3 5.8zm-38 67.7-1.9 2.3 2.3-1.9c2.1-1.8 2.7-2.6 1.9-2.6-.2 0-1.2 1-2.3 2.2zm-122.6 105.5c.7.3 1.6.2 1.9-.1.4-.3-.2-.6-1.3-.5-1.1 0-1.4.3-.6.6zm545.1 371c-1.3 1.6-1.2 1.7.4.4 1.6-1.3 2.1-2.1 1.3-2.1-.2 0-1 .8-1.7 1.7z" fill="#FCC"/><path d="M1738.1 369.6c0 1.1.3 1.4.6.6.3-.7.2-1.6-.1-1.9-.3-.4-.6.2-.5 1.3zm0 10c0 1.1.3 1.4.6.6.3-.7.2-1.6-.1-1.9-.3-.4-.6.2-.5 1.3zm-27.2 56.1c-1.3 1.6-1.2 1.7.4.4.9-.7 1.7-1.5 1.7-1.7 0-.8-.8-.3-2.1 1.3zm-4 5c-1.3 1.6-1.2 1.7.4.4.9-.7 1.7-1.5 1.7-1.7 0-.8-.8-.3-2.1 1.3zm-13 13c-1.3 1.6-1.2 1.7.4.4.9-.7 1.7-1.5 1.7-1.7 0-.8-.8-.3-2.1 1.3zm-10.5 48.8c0 6 .1 8.4.3 5.2.2-3.2.2-8.1 0-11-.2-2.9-.3-.3-.3 5.8zm-1.3 19.1c0 1.1.3 1.4.6.6.3-.7.2-1.6-.1-1.9-.3-.4-.6.2-.5 1.3zm-33.1 13.5c0 .5.5.7 1 .4.6-.3 1-.8 1-1.1 0-.2-.4-.4-1-.4-.5 0-1 .5-1 1.1zm27.4 1.1-1.9 2.3 2.3-1.9c2.1-1.8 2.7-2.6 1.9-2.6-.2 0-1.2 1-2.3 2.2zm-197.6 116.5c.7.3 1.6.2 1.9-.1.4-.3-.2-.6-1.3-.5-1.1 0-1.4.3-.6.6zm8 1c.6.2 1.8.2 2.5 0 .6-.3.1-.5-1.3-.5-1.4 0-1.9.2-1.2.5zm15.5 1c3.7.2 9.7.2 13.5 0 3.7-.2.6-.3-6.8-.3-7.4 0-10.5.1-6.7.3zm34.5 1c1.2.2 3 .2 4 0 .9-.3-.1-.5-2.3-.4-2.2 0-3 .2-1.7.4zm15.5 1c.9.2 2.3.2 3 0 .6-.3-.1-.5-1.8-.5-1.6 0-2.2.2-1.2.5zM1779 989c0 .5.7.7 1.5.4.8-.4 1.5-.8 1.5-1 0-.2-.7-.4-1.5-.4s-1.5.4-1.5 1zm23.8 3.7c.7.3 1.6.2 1.9-.1.4-.3-.2-.6-1.3-.5-1.1 0-1.4.3-.6.6zm10.2 16.7c0 .2.8 1 1.8 1.7 1.5 1.3 1.6 1.2.3-.4s-2.1-2.1-2.1-1.3zm9 8.1c1.3 1.4 2.6 2.5 2.8 2.5.3 0-.5-1.1-1.8-2.5s-2.6-2.5-2.8-2.5c-.3 0 .5 1.1 1.8 2.5zm2.9 10.2c-1.3 1.6-1.2 1.7.4.4 1.6-1.3 2.1-2.1 1.3-2.1-.2 0-1 .8-1.7 1.7z" fill="#FFC"/><path d="M2103.8 774.7c.6.2 1.8.2 2.5 0 .6-.3.1-.5-1.3-.5-1.4 0-1.9.2-1.2.5zm5.4 4.8c0 1.6.2 2.2.5 1.2.2-.9.2-2.3 0-3-.3-.6-.5.1-.5 1.8zm4.6 14.2c.7.3 1.6.2 1.9-.1.4-.3-.2-.6-1.3-.5-1.1 0-1.4.3-.6.6zm-56 6c.7.3 1.6.2 1.9-.1.4-.3-.2-.6-1.3-.5-1.1 0-1.4.3-.6.6zm51.2 1.7c0 .2.8 1 1.8 1.7 1.5 1.3 1.6 1.2.3-.4s-2.1-2.1-2.1-1.3zm-64.5 8.8-8 8.3 8.3-8c7.6-7.4 8.7-8.5 7.9-8.5-.1 0-3.8 3.7-8.2 8.2zm1 14-8 8.3 8.3-8c7.6-7.4 8.7-8.5 7.9-8.5-.1 0-3.8 3.7-8.2 8.2zm119.7 3.8c0 1.4.2 1.9.5 1.2.2-.6.2-1.8 0-2.5-.3-.6-.5-.1-.5 1.3zm-14.8-.3c.3.4-1.5 3-4.1 5.7l-4.8 5.1 5.2-4.9c4.5-4.3 5.8-6.6 3.6-6.6-.4 0-.3.3.1.7zm-133.5 9-2.4 2.8 2.8-2.4c1.5-1.4 2.7-2.6 2.7-2.8 0-.8-.8-.1-3.1 2.4zm132.6 8.5-8 8.3 8.3-8c7.6-7.4 8.7-8.5 7.9-8.5-.1 0-3.8 3.7-8.2 8.2zm-29 13-4 4.3 4.3-4c3.9-3.6 4.7-4.5 3.9-4.5-.2 0-2.1 1.9-4.2 4.2zm-50.4 13.4c0 1.1.3 1.4.6.6.3-.7.2-1.6-.1-1.9-.3-.4-.6.2-.5 1.3zm50.7-.9c.7.3 1.6.2 1.9-.1.4-.3-.2-.6-1.3-.5-1.1 0-1.4.3-.6.6zm-57 6c.6.2 1.8.2 2.5 0 .6-.3.1-.5-1.3-.5-1.4 0-1.9.2-1.2.5z" fill="#336"/><path d="m2057.5 812.2-4 4.3 4.3-4c3.9-3.6 4.7-4.5 3.9-4.5-.2 0-2.1 1.9-4.2 4.2zm-25 10-4 4.3 4.3-4c2.3-2.1 4.2-4 4.2-4.2 0-.8-.9 0-4.5 3.9zm128.4 11.5-3.4 3.8 3.8-3.4c2-1.9 3.7-3.6 3.7-3.8 0-.8-.8 0-4.1 3.4zm-23.4 8.5-4 4.3 4.3-4c3.9-3.6 4.7-4.5 3.9-4.5-.2 0-2.1 1.9-4.2 4.2zm-9 23-4 4.3 4.3-4c3.9-3.6 4.7-4.5 3.9-4.5-.2 0-2.1 1.9-4.2 4.2z" fill="#036"/><path d="M2101.3 775.8c-.7.5-8.3 26.6-16.8 58-15.9 58.6-16.2 59.9-12.1 61.5 2.5 1 5.4-.4 6.5-3.1 1.8-4.6 30.1-110 30.1-112.1 0-3.6-1.2-5.1-3.9-5.1-1.4 0-3.2.4-3.8.8zm5.4 3.2c.1.8-6.6 26.7-15 57.5-13.6 49.9-15.4 56-17.2 56-1.1 0-2.1-.7-2.3-1.6-.3-1.5 29.2-111 30.4-113 .9-1.5 3.8-.6 4.1 1.1zm3.9 16.6c-2.5 2.4-1.9 5.1 1.7 7.7 1.7 1.3 11.5 7.5 21.6 13.8l18.4 11.3-17.5 17.1c-9.7 9.3-17.8 17.7-18.1 18.6-.8 2.4 2 5.9 4.7 5.9 1.7 0 8.2-5.7 23-20.1 22.5-22 23.1-22.9 17.4-27.2-7.6-5.7-45.8-28.7-47.6-28.7-1.2 0-2.8.7-3.6 1.6zm29 16c12.9 8 23.4 15 23.4 15.7 0 .7-9.2 10.1-20.5 21-19.5 18.9-23.5 21.8-23.5 17.4 0-.8 8.4-9.6 18.6-19.6 10.2-10.1 18.4-18.4 18.2-18.5-.2-.2-10.1-6.3-22-13.7-20.4-12.5-23.4-15-21.1-17.3 1.1-1 2.1-.5 26.9 15zm-104.6 8.6c-21.6 20.7-23 22.7-19.2 26 .9.8 12 7.9 24.6 15.7 23.3 14.4 26.5 15.8 28.9 12 2.5-4 .2-6.1-19-17.9-10.3-6.3-19.5-12.2-20.5-13-1.8-1.4-.9-2.5 15.6-19 17.4-17.3 19.3-19.9 16.4-22.8-3.2-3.2-5.7-1.3-26.8 19zm25.1-16.6c1.2 1.4-1 3.9-17.6 19.9-12.4 11.9-18.6 18.6-18 19.3.6.5 10 6.4 21 13.2 23.7 14.5 23.5 14.4 21.3 16.6-1.5 1.5-3.4.6-25.3-13.1-13-8.1-23.9-15.4-24.3-16.3-.4-1.2 5-7.1 19.8-21.4 11.2-10.9 20.7-19.8 21.1-19.8.3 0 1.3.7 2 1.6z" fill="#039"/><path d="M2049 816.5c-2.4 2.5-4.2 4.5-3.9 4.5.3 0 2.5-2 4.9-4.5 2.4-2.5 4.2-4.5 3.9-4.5-.3 0-2.5 2-4.9 4.5zm-7.5.7-4 4.3 4.3-4c2.3-2.1 4.2-4 4.2-4.2 0-.8-.9 0-4.5 3.9zm112 20-4 4.3 4.3-4c3.9-3.6 4.7-4.5 3.9-4.5-.2 0-2.1 1.9-4.2 4.2zm-8 1-4 4.3 4.3-4c3.9-3.6 4.7-4.5 3.9-4.5-.2 0-2.1 1.9-4.2 4.2zm-22.6 28.5c-1.3 1.6-1.2 1.7.4.4 1.6-1.3 2.1-2.1 1.3-2.1-.2 0-1 .8-1.7 1.7z" fill="#369"/><path d="m2025.5 833.2-4 4.3 4.3-4c2.3-2.1 4.2-4 4.2-4.2 0-.8-.9 0-4.5 3.9zm6 0-4 4.3 4.3-4c2.3-2.1 4.2-4 4.2-4.2 0-.8-.9 0-4.5 3.9zm105 20-4 4.3 4.3-4c3.9-3.6 4.7-4.5 3.9-4.5-.2 0-2.1 1.9-4.2 4.2zm-7 1-4 4.3 4.3-4c3.9-3.6 4.7-4.5 3.9-4.5-.2 0-2.1 1.9-4.2 4.2z" fill="#39C"/><path d="M2102.6 779.7c-2.5 7.8-29.6 109.1-29.6 110.5 0 1 .7 1.8 1.5 1.8s1.5-.2 1.5-.4 6.8-25.3 15-55.7c8.3-30.5 15-55.9 15-56.6 0-1.9-2.8-1.6-3.4.4zm10 18.2c-.9 1.3 1.5 3 23.4 16.6 11.3 7 20.7 12.8 20.9 13 .1.2-8.1 8.6-18.3 18.6-16.9 16.5-20.6 20.9-17.5 20.9 1.7 0 41-38.4 40.7-39.7-.3-1.2-46.2-30.3-47.9-30.3-.4 0-1 .4-1.3.9zm-75.5 24.7c-19.4 18.9-20.2 19.8-18.4 21.4 1 1 11.8 7.9 24.1 15.5 16.7 10.3 22.6 13.5 23.5 12.6.7-.7.7-1.4.2-2-.6-.5-10.8-6.9-22.8-14.4l-21.8-13.5 19.1-18.3c10.5-10.1 18.9-18.7 18.7-19.3-.2-.5-.8-1.1-1.3-1.3-.5-.2-10.1 8.5-21.3 19.3z" fill="#6CF"/></svg>
