<svg version="1.0" xmlns="http://www.w3.org/2000/svg" viewBox="0 0 600 641"><g fill="#4C66E5" stroke="#4C66E5" stroke-width="1.7"><path d="M399 2.7c-.8.3-2.6 1-4 1.6-1.4.6-3.1.9-3.7.8-.7-.1-1.3.3-1.3.9 0 .5-.7 1-1.5 1s-1.5.4-1.5 1c0 .5-.7 1-1.5 1-.9 0-3.9 2.4-6.8 5.3-5.3 5.5-9.2 11.9-10.2 17.2-.7 3-1.5 5.4-3.6 9.9-1.6 3.4.3 21.6 2.2 21.6.5 0 .9.9.9 2 0 2.1 1.5 2.7 2.5.9.5-.6 1.3-.2 2.3 1.3 5.8 8.2 16.8 18.6 22.5 21.1 2.6 1.1 4.7 2.4 4.7 2.9 0 .4 1.1.8 2.4.8 1.3 0 2.6.5 2.8 1.2.3.8 4.3 1.2 13.9 1.2 15-.1 19.4-1.3 25.8-7.3 2.9-2.7 3.2-3.3 2-4.8-1.1-1.3-1.1-1.7-.1-2 .6-.3 1.2-1.1 1.2-1.9 0-.8.3-1.4.8-1.4.4 0 1.6-1.7 2.6-3.8 1-2 2.2-4.5 2.7-5.4 1.2-2.4 1.1-6.1-.1-5.3-.5.3-1 1.5-1 2.7 0 2.1-2.9 8-4.2 8.6-.5.2-.8.7-.8 1.2 0 2.8-12.8 12-16.7 12-1.1 0-2.4.5-3 1.1-1.5 1.5-21.9-.2-23.3-2-.3-.4-2.5-1.5-5-2.6s-5.6-3-7-4.2c-1.4-1.3-2.9-2.3-3.5-2.3-1.5-.1-11.5-13.2-11.5-15.2 0-1-.4-1.8-1-1.8-.5 0-1-.8-1-1.8s-.6-2.4-1.2-3c-2.9-2.9-.8-29.2 2.4-29.2.4 0 .8-.8.8-1.8 0-2.8 9.5-11.8 15.5-14.7 4.8-2.4 6.5-2.7 15.9-2.7 10.6.1 12 .4 21.4 5.1 3.5 1.7 15.2 12.6 15.2 14.2 0 .5.5.9 1 .9 1.9 0 1-1.6-4.1-6.5-2.8-2.8-5.8-5.8-6.7-6.8-.9-.9-2-1.7-2.5-1.7s-2.1-.9-3.6-2c-1.6-1-5-2.7-7.7-3.6-2.7-.9-5.1-2-5.5-2.5-.6-1-15.7-2-17.9-1.2z"/><path d="M406 10c1.1.7.6 1-2 1-2.3 0-3 .3-2.2.9 1 .6.2 1.3-2.7 2.4-9.3 3.7-17.3 16.1-17.4 26.7-.1 2.5 1.4 10.4 2.2 12.5 4.2 10.4 7.8 15.2 15.4 20.3 6.7 4.5 12.4 6.2 21.2 6.2 6.8 0 8.8-.5 13.7-2.9 6.3-3.2 10.2-6.7 11.2-9.9.4-1.2 1.2-2.2 1.7-2.2s.9-1.1.9-2.5.5-2.5 1-2.5c1.5 0 1.2-13.8-.5-19.3-1.5-5.1-5.5-13-6.7-13.5-.5-.2-.8-.9-.9-1.5 0-1-3.5-4.2-11.1-10.2-2.4-1.9-6.3-3.4-12.4-5-7.1-1.7-13.8-2.1-11.4-.5zm17.8 5.9c.2.6 1.1 1.1 1.9 1.1 4.1 0 16.6 12.2 17.9 17.5.3 1.4 1 2.8 1.5 3.1.5.3.9 1.6.9 3 0 1.3.5 2.4 1 2.4.6 0 1 3.2 1 7.5s-.4 7.5-1 7.5c-.5 0-1 1.1-1 2.5s-.4 2.5-1 2.5c-.5 0-1 .7-1 1.5 0 1.6-6 8.5-7.4 8.5-.5 0 .3-1.1 1.8-2.5 1.4-1.3 2.6-2.9 2.6-3.5 0-.5.4-1 1-1 .5 0 1.3-1.8 1.6-4 .4-2.2 1.1-4.3 1.5-4.6 2.4-1.4.4-14.8-3.4-22.4-2.3-4.8-9.7-12.5-12.8-13.5-1.1-.4-1.9-1.1-1.9-1.6s-.7-.9-1.5-.9-1.5-.4-1.5-.9c0-.8-4.6-1.7-14-2.8-8.1-.9-5.7-1.6 4-1 5.6.3 9.6.9 9.8 1.6zM420 22c.8 1.1 2.5 2 3.7 2 1.3 0 2.3.4 2.3.9s1.1 1.2 2.5 1.5c3 .8 9.1 6.3 11.1 10 1.1 2.3 2.9 10.9 2.8 14.1 0 .5-.9 2.9-2 5.2-1.4 3.2-2.4 4.3-4.1 4.3-1.8 0-2.3-.6-2.3-2.6 0-2.3-.2-2.4-1.5-1-.8.8-1.5 1.8-1.5 2.1 0 .4-1.8 2.5-4 4.7s-4 4.3-4 4.7c0 .3-1.5 2.4-3.3 4.5l-3.4 3.8-2.1-2.8c-1.2-1.6-2.6-3.4-3.2-4.1-.5-.7-1-1.9-1-2.8 0-.8-.5-1.5-1-1.5-.6 0-1.8-1.6-2.7-3.5-.9-1.9-2-3.5-2.5-3.5-.4 0-.8-.7-.8-1.5s-.4-1.5-.8-1.5c-1.3 0-3.5-5.1-3.8-8.5-.2-2.6.5-4 5.9-11 .4-.5 3-3.9 5.7-7.4 2.8-3.5 5-6.7 5-7.2 0-1.7 3.6-.9 5 1.1zm28 6.3c0 1.4 4.4 8.9 4.7 8.1.2-.6-.6-2.8-1.8-4.8-1.8-3.1-2.9-4.3-2.9-3.3zm5 12.6c0 1.1.5 2.3 1 2.6.6.4 1-.5 1-1.9s-.4-2.6-1-2.6c-.5 0-1 .9-1 1.9zm2.2 12.1c0 6.8.1 7.2 1 3.7.7-2.4.7-5 0-7.5-.9-3.4-1-3-1 3.8z"/></g><g fill="#3366E5" stroke="#3366E5" stroke-width="1.7"><path d="M394.2 9c-2.4 1.1-4.1 2.4-3.7 2.9.3.6-.4 1.5-1.6 2.1-1.7.9-2 .9-1.4 0 .4-.7-.4-.4-1.9.5-2.5 1.7-3.1 2.8-2.6 5 .1.5-.2.7-.6.2-1.1-1-4.4 2.3-4.4 4.5 0 1-.4 1.8-1 1.8-.5 0-1 .7-1 1.6 0 .9.5 1.2 1.2.8.7-.4.8-.3.4.5-.4.6-1.1.9-1.6.6-1.6-1-2.5 4.6-2.5 14.7 0 6.4.4 10.1 1.3 11 .6.6 1.2 2 1.2 3s.5 1.8 1 1.8c.6 0 1 .8 1 1.8 0 2 10 15.1 11.5 15.2.6 0 2.1 1 3.5 2.3 1.4 1.2 4.5 3.1 7 4.2s4.7 2.2 5 2.6c1.4 1.8 21.8 3.5 23.3 2 .6-.6 1.9-1.1 2.9-1.1 2.8 0 9.9-4.1 9.1-5.3-.3-.5-.1-.7.5-.3 1 .6 7.7-5.2 6.9-6.1-.2-.2-1.5.8-2.8 2.2-1.3 1.3-2.8 2.5-3.2 2.5-.4 0 .4-1.2 1.8-2.7 1.4-1.5 2.5-3.2 2.5-3.6 0-.5.9-.5 2-.2 1.2.4 2 .2 2-.5 0-.6-.4-.8-1-.5-.5.3-1 .3-1-.2 0-1.1 3-10.4 4.1-12.5 1.2-2.4 1.1-10.5-.1-11.3-.5-.3-1-2.1-1-4s-.4-3.7-1-4c-.5-.3-1-1.3-1-2.1 0-1.8-5-10.7-5.7-10.1-.2.3.5 2 1.7 3.9 1.1 1.9 2.7 5.7 3.5 8.4 1.7 5.5 2 19.4.5 19.4-.5 0-1 1.1-1 2.5s-.4 2.5-.9 2.5-1.3 1-1.7 2.2c-.8 2.5-4.1 6-7.3 7.7-1.2.7-1.9 1.6-1.7 2 .7 1.1-2.1 3.5-6.7 5.6-4.4 2.1-19.3 2.5-23 .7-1.2-.5-2.9-1.3-3.7-1.6-2.6-1-8.6-5-11.6-7.6-3.3-2.9-8.4-9.4-8.4-10.7 0-.5-1-2.9-2.2-5.4-1.8-3.6-2.2-6.1-2.3-13.9 0-8.6.3-10 2.9-14.8 2.8-5.3 4.6-7.3 4.6-5.2 0 .6.5.8 1.1.5.6-.4.8-1.3.5-2.1-.3-.8 0-1.1 1-.7 1.4.5 2-1.2.7-2-.5-.2-.3-.2.4-.1.6.2 2.2-.6 3.5-1.8 1.3-1.1 4-2.7 6.1-3.5 2.8-1.1 3.5-1.8 2.5-2.4-.8-.6-.1-.9 2.2-.9 2.9-.1 3.2-.2 1.7-1.1-2-1.2-10.7-.2-10.7 1.2 0 .5-.8.9-1.7.9-1.6-.1-1.6-.2.1-1.5 1.1-.8 2.8-1.5 3.7-1.5 1 0 2.1-.5 2.4-1 .9-1.5-.5-1.2-5.3 1zm19.3.4c2.6 1.2 8.7 2.4 7.9 1.6-.5-.4-2.7-1.1-4.9-1.4-2.2-.3-3.5-.4-3-.2z"/><path d="M415.5 14.9c-1.6.7-1.4.9 1.3 1.4 1.7.4 4.2.2 5.4-.3 2.3-.9 2.3-.9.1-.9-1.2-.1-2.7-.3-3.5-.5-.7-.3-2.2-.1-3.3.3zm20.7 5.7c2.1 2.1 4 3.6 4.3 3.3.3-.3-1.4-2.1-3.8-3.9l-4.2-3.3 3.7 3.9zm-7.6-.7c-1.8.7-1.8.8-.2 1.4 1 .4 2.3.4 2.8 0 .6-.3.8-.1.4.5-.3.6-.2 1.3.4 1.7 1.5.9 1.2-2.1-.2-3.3-.7-.5-2.2-.6-3.2-.3zm6.7 6c1 .4 1.7 1 1.5 1.3-.2.4.8 1.9 2.2 3.5 1.4 1.5 2.5 3.2 2.5 3.7s.6 1.1 1.4 1.4c1 .3 1.2 0 .8-1.2-.4-1-.7-2.2-.7-2.7s-.6-.9-1.3-.9c-.7 0-1.8-1.4-2.4-3-.8-2.2-1.8-3-3.5-2.9-2 0-2 .1-.5.8zm8.3 13.8c.4 1.5 1.1 3.7 1.7 4.7 1.2 2.3 1.1 11.4-.2 13-.4.6-1.1 2.8-1.5 4.8-.4 2.1-1.1 3.8-1.6 3.8-.6 0-1 .5-1 1 0 .6-1.2 2.2-2.6 3.5-1.5 1.4-2.3 2.5-1.8 2.5 1.4 0 7.4-6.9 7.4-8.5 0-.8.5-1.5 1.1-1.5.6 0 .9-.7.5-1.5-.3-.8.1-2.1.9-2.9 2.1-2.1 2.1-15.2 0-16-.8-.3-1.4-1.5-1.2-2.7.1-1.2-.4-2.4-1.1-2.6-1-.4-1.1.2-.6 2.4zm-25.9 41.5c2.1.7 4 .7 6 0 2.5-.9 2.1-1-3.2-1-5.5 0-5.7.1-2.8 1z"/></g><g fill="#4C99E5" stroke="#4C99E5" stroke-width="1.7"><path d="M420.5 5.5c8.2 3.4 13.1 6.1 16.1 8.9 5.7 5.2 11.4 11.2 11.4 11.9 0 .4 1.1 2.5 2.5 4.7s2.5 4.9 2.5 6c0 1.1.5 2 1 2 .6 0 1 1.2 1 2.7 0 1.6.5 4.5 1.1 6.7 1.6 5.8-.4 16-5 25.3-.8 1.8-1.9 3.3-2.3 3.3-.5 0-.8.6-.8 1.4 0 .8-.6 1.6-1.2 1.9-1 .4-1 .7-.1 1.7 1 1.1 1.7.8 3.5-1.5 3-3.8 5.8-9.1 5.8-10.9 0-.8.5-1.6 1.1-1.8 1.3-.4 1.3-25 0-27.6-.5-.9-1.7-3.7-2.7-6.2-1-2.5-2.1-4.7-2.5-5-.4-.3-1.5-1.9-2.5-3.6-2.4-3.9-10.4-12.5-12.9-14-1.1-.6-4.1-2.3-6.8-3.7-2.6-1.5-6.6-2.9-9-3.2l-4.2-.6 4 1.6zm-43.8 8.8c-3.1 2.9-5.7 5.8-5.7 6.5 0 .7-.4 1.2-.9 1.2s-1.2 1.3-1.6 3c-.4 1.6-1.1 3.2-1.6 3.5-.5.4-.9 1.6-.9 2.9 0 1.2-.5 2.7-1.1 3.3-.6.6-.9 2.6-.7 4.4.3 2.9.5 3.1 1.2 1.4.4-1.1 1.2-2.9 1.6-4 .5-1.1 1.1-3.4 1.5-5 1-5.3 4.9-11.8 9.9-16.8 6.6-6.6 5.3-6.9-1.7-.4z"/><path d="M419 23c0 .5.3 1 .8 1 .4 0 2 2.6 3.7 5.8 1.6 3.1 3.9 7.4 5.2 9.4 1.3 2.1 2.3 4.4 2.3 5.2 0 .8.6 1.6 1.3 1.8.6.3 1.3 1.9 1.3 3.6.1 1.8.2 4.8.3 6.7.1 3.1.4 3.5 2.7 3.5 1.4 0 2.3-.4 1.9-.9-.3-.5 0-1.3.5-1.6 1.2-.7 3.3-5.2 3.4-7 .1-3.1-1.6-11.7-2.8-14.1-2-3.7-8.1-9.2-11.1-10-1.4-.3-2.5-1-2.5-1.5s-1.1-.9-2.5-.9-2.5-.5-2.5-1c0-.6-.4-1-1-1-.5 0-1 .4-1 1z"/></g><path d="M398 49.2c0 .5.8.8 1.8.8.9 0 2.8.3 4.1.7 2.1.5 2.3.4 1.2-.8-1.4-1.4-7.1-2-7.1-.7zm35.1-.1c-.1.9-1 1.9-2.2 2.2-1.3.4-1.8 1-1.3 1.8.5.9-.1 1.1-2.4.6-3-.6-4.6.7-2 1.5 1.9.7 5.8-.3 5.8-1.5 0-.5.7-1.5 1.6-2.2.9-.6 1.4-1.8 1.1-2.6-.4-1.1-.6-1-.6.2zm24.9 5c0 3.4.3 4.9.9 4 .8-1.2.4-8.1-.5-9-.2-.2-.4 2-.4 5z" stroke-width="1.7" fill="#6699E5" stroke="#6699E5"/><path d="M398.8 8.1c-.7.4-2.6 1.2-4.3 1.9-1.9.8-2.5 1.4-1.6 1.8.7.2 1.7-.2 2.2-.9.6-1 3.9-1.5 12.6-1.6 6.5-.1 12.4-.2 13.2-.3.8 0 1.2-.3.9-.6-.8-.8-21.4-1-23-.3zm28.1 2.5c.6.3.8 1.1.5 1.7-.2.7.9 2 2.6 2.9 1.6.9 3 1.3 3 .8 0-.6-.5-1-1.1-1-.5 0-.8-.4-.5-.9.3-.5-.2-.8-1.1-.7-1 0-1.8-.5-1.8-1.3s-.6-1.5-1.3-1.7c-.7-.1-.8 0-.3.2zm-2.6 7.4c2.2 1.1 4.4 1.9 5 1.6.7-.2.5-.5-.5-.5-.9-.1-1.8-.5-2-1-.1-.5-1.6-1.3-3.3-1.6-2.8-.6-2.7-.6.8 1.5zm10.2 0c1.1 1.8 6.3 5 6.1 3.8-.3-2.4-1.7-3.7-3.1-3.1-.8.3-1.5 0-1.5-.6s-.5-1.1-1.1-1.1c-.5 0-.8.4-.4 1zm-50.3 6.2c-1.3 1.7-2.7 6.6-1.5 5.3 1-1.1 3.4-6.5 2.9-6.5-.2 0-.8.6-1.4 1.2zm60 4.8c1.7 2.7 3.3 4.8 3.7 4.6.3-.2.7.7.7 2 .3 3.7 1.2 5.4 3 5.4.8 0 1.4-.6 1.1-1.3-.2-.6-1-1.1-1.7-.9-.8.2-1.1-.4-.7-1.9.7-2.8-.8-5.9-2.9-5.9-1.1 0-1.4-.6-1-1.6.3-.9.2-1.2-.5-.9-.6.4-.9-.1-.7-1.1.2-1.1-.2-1.8-.9-1.7-.7.2-1.3-.2-1.3-.7 0-.6-.4-1-1-1-.5 0 .5 2.2 2.2 5zm-65.7 8.3c-.4 2.6-.5 5-.2 5.3.8.8 2-6 1.5-8.3-.3-1-.8.4-1.3 3zm72.5 7.6c0 1.7.5 3.3 1 3.6 1.2.8 1.3 8.9.1 11.3-.5.9-1.7 4.1-2.6 7.1-1.7 4.9-3.3 7.6-7.3 11.7-.7.8-1 1.4-.5 1.4 1.3 0 7.7-7.5 9.4-11.1 3.9-8.1 5-19 2.4-23.9-1.9-3.8-2.5-3.8-2.5-.1zm-16.4 33.7c-.4 1-1.4 1.4-2.5 1.1-1.4-.3-1.8-.1-1.4.9.3 1 1 1.1 2.2.4 2.3-1.2 4.6-4 3.3-4-.5 0-1.3.7-1.6 1.6z" stroke-width="1.7" fill="#334CE5" stroke="#334CE5"/><g fill="#334CCC" stroke="#334CCC" stroke-width="1.7"><path d="M380.5 32.7c-.3 2.1-.9 5.6-1.4 7.8-.5 2.2-.6 6.1-.2 8.8.8 4.8 2.1 7.5 2.1 4.3 0-1.1.4-1.4 1.2-1 .8.5.9.2.5-1-.4-1-.7-2.1-.7-2.4 0-.4-.5 0-1 .8-.6 1-.8-1.7-.4-8 .4-5.2 1.1-10 1.6-10.7.5-.7.5-1.4-.1-1.7-.6-.4-1.2 1-1.6 3.1zm1.6 23.3c-.9.5-1.1 1.5-.6 2.6.7 1.8.8 1.8 1.5-.1.7-1.7.9-1.7.9-.3.1 1 .6 1.8 1.1 1.8.9 0 0-2.7-1.4-4.7-.1-.1-.8.2-1.5.7zm.9 6.4c0 .7.7 1.9 1.5 2.6.8.7 1.5 1.7 1.5 2.1 0 3.1 16.5 15.6 19.3 14.6.6-.2-.9-1.3-3.4-2.5-6.2-3-12.4-8.5-15.5-13.8-2.7-4.7-3.4-5.2-3.4-3z"/><path d="M389 65.8c0 1.1 8.6 9.2 9.7 9.2.4 0-.6-1.2-2.2-2.6-1.7-1.5-4-3.7-5.2-5.1-1.3-1.3-2.3-2-2.3-1.5zm-13 12.7c4.1 4.5 8.1 8.5 8.6 8.5.3 0 1.2.6 1.9 1.2 3.3 2.9 4.5 3.8 5.3 3.8.5 0 2.3.7 4 1.5 4.8 2.5 15.1 4.2 22.6 3.8 9.7-.4 9.6-1.3-.2-1.3-4.4 0-8.4-.5-8.7-1-.3-.6-1.7-1-3.1-1-1.3 0-3.2-.4-4.2-.9-.9-.4-3.5-1.6-5.7-2.7-2.2-1-6.1-3.3-8.6-5.1-2.6-1.8-5.1-3.3-5.7-3.3-.6 0-1.2-.3-1.4-.8-.1-.4-1.9-1.8-3.8-3.1l-3.5-2.4 2.5 2.8zm33 1.4c.8.5 3.1 1.1 5 1.5 2.4.4 2.8.3 1.5-.2-3.1-1.4-8.3-2.4-6.5-1.3z"/><path d="M427.5 80.8c-2.5.9-7.1 1.5-12.2 1.5-4.6 0-8 .4-7.7.8.8 1.3 17.9 1.1 20.9-.3 1.4-.6 2.5-1.5 2.5-1.9 0-.4.8-1 1.8-1.2 1.1-.3 1.2-.5.2-.5-.8 0-3.3.7-5.5 1.6z"/></g><path d="M387 64.8c0 1.1 5.9 8.4 7.3 9 .4.2 1.3.9 2 1.6 2.3 2.3 12.5 6.8 14.3 6.4 1.2-.2.2-.9-2.8-1.8-2.7-.8-4.8-1.8-4.8-2.2 0-.4-.7-.8-1.5-.8s-1.5-.4-1.5-.9-.8-1.2-1.7-1.5c-2.2-.7-6.2-4.2-9.1-8-1.2-1.6-2.2-2.4-2.2-1.8z" fill="#1933CC" stroke="#1933CC" stroke-width="1.7"/><path d="M409.4 51.7c.3.6 0 1.3-.6 1.6-.9.3-.7.7.5 1.2 2.6 1.1 3.4-.3 1.2-2.3-1-.9-1.5-1.2-1.1-.5z" fill="#B2B2E5" stroke="#B2B2E5" stroke-width="1.7"/><path d="M405.2 48.4c1.5 1.4 3.1 2.6 3.6 2.6 1.3 0 3.6 2.9 2.9 3.7-.4.3-2.2-.2-4.2-1.1-2-1-4.1-1.5-4.8-1.2-.9.3-.9.5.1.5.6.1 1.2.8 1.2 1.6s.4 1.5.9 1.5 1.3 1 1.7 2.2c.3 1.2 1.7 3.2 3 4.5 1.3 1.3 2.4 2.8 2.4 3.4 0 .5.5 1.5 1 2.2.6.7 1.6 2 2.3 3 1.3 1.8 1.4 1.8 2.8.1 1.1-1.5 1.1-1.6 0-.9-1.1.6-1.3.1-.9-3.1.9-6.1 1.2-6.8 3.3-8.2 1.3-.8 1.5-1.2.5-1.1-5 .5-5.4-1.6-.7-3.6l3.2-1.4-3.2-.1c-2.8 0-3.3-.4-3.3-2.4s-.6-2.4-4.2-2.9c-2.4-.4-5.6-.9-7.3-1.3l-3-.6 2.7 2.6z" fill="#B2CCE5" stroke="#B2CCE5" stroke-width="1.7"/><path d="M414.8 26.1c-1.6 1.6-2.8 3.2-2.8 3.5 0 .6-5.8 7.8-9.7 12-2.5 2.8-1.7 3.7 4.2 5 5.6 1.1 5.7 1.2 8.3 1.3 1.7.1 2.2.7 2.2 2.7 0 2.4.3 2.5 4.3 2.3 2.3-.2 4.9-.6 5.7-1 .8-.4 2.3-1 3.3-1.3 2.8-.9 2-2.6-3.8-8.1-3.2-3.1-5.5-6.2-5.5-7.3 0-1.2-.5-2.4-1-2.7-.6-.4-.9-2.2-.8-4.1.3-5-1.2-5.8-4.4-2.3zm6.7 32.7c-3.1 1.8-3.4 2.3-4.2 8.5-.5 3-.3 3.6.9 3.2.8-.3 2.1-1.8 3-3.3.9-1.5 3-4.2 4.7-6 1.7-1.7 3.1-3.4 3.1-3.7 0-1.1-4.7-.3-7.5 1.3z" stroke-width="1.7" fill="#CCCCE5" stroke="#CCCCE5"/><path d="M419.1 29.2c-.1 1.5.4 3 .9 3.3.6.3 1 1.6 1 2.7 0 1.2 1.6 3.7 3.6 5.5 4.1 3.7 6 3.7 2.6 0-1.2-1.3-2.2-2.9-2.2-3.5 0-.7-.5-1.2-1.2-1.2-.6 0-.8-.3-.5-.6.4-.4-.2-1.9-1.2-3.3s-2.1-3.3-2.4-4.1c-.3-.9-.6-.4-.6 1.2z" fill="#CCE5E5" stroke="#CCE5E5" stroke-width="1.7"/><path d="M95.5 67.1c-6.6.9-14.9 3-15.5 3.8-.3.3-1.4 1.1-2.5 1.7-6.1 3.2-9.1 5-10.1 5.9-.6.5-2.5 2.1-4.2 3.5-1.8 1.4-3.2 2.9-3.2 3.3 0 .5-.6 1.4-1.3 2.1-2.8 2.9-5.7 16.6-5.7 27.5 0 7.3.4 9.7 2.3 13.3 1.2 2.3 2.5 4.5 3 4.6.4.2.5.8.1 1.3-.3.5 0 .9.5.9.6 0 1.1.5 1.1 1 0 2.1 11.5 14 13.5 14 .7 0 1.5.4 1.7.8.2.4 2.9 2 6.1 3.5 5.1 2.4 7 2.7 15.8 2.7 9.4 0 18.8-1.8 21.3-4.1.6-.5 1.6-.9 2.3-.9 1.3 0 2.3-.7 5.8-3.8.7-.6 1.6-1.2 1.9-1.2 1.1 0 6.5-6.5 6.6-7.8 0-.6.5-1.2 1-1.2.6 0 1.8-1.7 2.8-3.8.9-2 2-3.9 2.3-4.2 1.6-1.5 4.1-16.4 3.5-21.2-.9-6.3-2.9-14.4-3.9-15.4-.4-.4-.7-1.6-.7-2.6s-.4-1.8-.9-1.8-1.1-1-1.5-2.3c-.3-1.2-2-3.8-3.8-5.7-10.3-11-24.2-16-38.3-13.9zM108 86.4c0 .8-.4 1.8-1 2.1-.5.3-1 2-1 3.6s-.7 4.6-1.5 6.6c-.8 1.9-1.5 4.2-1.5 4.9 0 .8.6 1.1 1.5.8 2.9-1.2 4.3.3 3.6 3.7-.5 2.4-1.7 3.8-4.6 5.5-3.9 2.2-5.1 4.3-5.4 10.1-.1 2.3.1 2.3 11.8 2.3 7.1 0 12.2.4 12.6 1 .4.6-.1 3.3-1 6l-1.7 5H77v-2.8c.1-1.5.7-4.5 1.5-6.7 2-5.6 1.9-6.3-1-5.7-2 .3-2.5 0-2.5-1.5 0-2.8 2.3-7.3 3.7-7.3 2.4 0 5.2-4.3 5.8-9.1.4-2.7 1.1-5.1 1.6-5.5.5-.3.9-2 .9-3.9s.5-3.7 1-4c.6-.3 1-1.6 1-2.9 0-1.2.3-2.6.7-2.9.3-.4 4.6-.7 9.5-.7 7 0 8.8.3 8.8 1.4zM275.3 361c0 3 .2 4.3.4 2.7.2-1.5.2-3.9 0-5.5-.2-1.5-.4-.2-.4 2.8z" stroke-width="1.7" fill="#CCC" stroke="#CCC"/><path d="M369 67.5c0 2.6 11.2 14.5 13.6 14.5.3 0 2.9 1.6 5.6 3.6 2.7 2 5.1 3.4 5.3 3.2.3-.3-1.4-1.9-3.8-3.5-4.8-3.5-9.6-8.2-14.6-14.2-3-3.5-6.1-5.3-6.1-3.6zM409.5 95c.4.6 2.9 1 5.7 1 6.4 0 6-.5-1-1.3-3.2-.4-5-.2-4.7.3zm15.5 0c-2.2.7-2.2.8-.5 1 3.1.4 5.9-.1 7-1.1 1.1-1.1-2.9-1-6.5.1z" stroke-width="1.7" fill="#36C" stroke="#36C"/><g stroke="#000" stroke-width="1.7"><path d="M229.4 76.1c-.3.5-1.6.9-3 .9-1.3 0-2.4.4-2.4 1 0 .5-.7 1-1.6 1-.9 0-3.5 1.4-5.8 3.2-7.9 6.2-14.4 14.8-18.2 24-1 2.7-2.2 4.8-2.6 4.8-.5 0-.8.8-.8 1.9 0 1-.7 3.2-1.5 4.7-.8 1.6-1.5 3.9-1.5 5.1 0 1.2-.4 2.5-1 2.8-.5.3-1 1.5-1 2.6 0 1-.4 2.7-.9 3.7-1.2 2.2-4.1 15-4.1 17.9 0 1.3-.4 2.3-1 2.3-.5 0-1 1.5-1 3.4s-.4 3.7-.9 4c-.5.3-1.2 3.5-1.6 7.1-.3 3.6-1.1 6.7-1.6 7-.5.4-.9 1.9-.9 3.4s-.3 3.1-.7 3.5c-.8.7-2.8 9.8-4 17.9-.3 2-.9 4-1.4 4.3-.5.3-.9 1.8-.9 3.4 0 1.6-.4 3.1-.9 3.5-.5.3-1.3 3-1.6 6-.4 3.1-1.1 5.8-1.6 6.1-.5.3-.9 1.8-.9 3.4 0 1.6-.4 3.1-.9 3.4-.5.3-1.2 2.7-1.6 5.2-.3 2.6-1.1 5.8-1.7 7.3-.6 1.4-1.5 3.7-2.1 5.1-1.6 4.1-2.4 6.3-4.2 11.5-2 6.1-4.7 11.9-5.7 12.3-.5.2-.8 1.2-.8 2.3 0 1-.4 1.9-1 1.9-.5 0-1 .5-1 1 0 1.6-13.1 22.1-14.4 22.5-13.2 3.8-13.5 3.9-24 9.1-12 5.9-23 16.4-28.1 26.9-1.1 2.2-2.3 4.1-2.7 4.3-.5.2-.8 1.1-.8 2.1 0 .9-.4 2.1-.9 2.7-.5.5-1.6 3.6-2.6 6.9-.9 3.3-2.1 6.9-2.6 8-.9 2.2-2.8 13.8-3.5 22.5-.3 3-.9 6.4-1.4 7.5-.5 1.1-1.1 4.7-1.4 8-.3 3.3-.8 8.2-1 11-2.4 22.6-3 36.6-2.9 70.5 0 33.7.9 54.8 2.8 65.5.3 1.6.8 4.8 1.1 7 .3 2.2.9 4.9 1.4 6 .4 1.1 1.6 4.6 2.6 7.8 1 3.1 2.2 5.7 2.6 5.7.4 0 .8.7.8 1.5 0 4.1 9.3 14.1 16.1 17.3 7.4 3.6 13.5 4.5 31.7 4.9 16.1.4 17.2.5 17.2 2.3 0 1-.5 2.2-1 2.5-.6.3-1 2.6-1 5 0 4.7-2.4 18.8-4 24.1-.6 1.7-1 4.7-1 6.7v3.7h229.1l-.4-8.8c-.3-4.8-1-12.7-1.7-17.7s-1.3-10.5-1.4-12.4l-.1-3.4 12.5-.2c18.2-.3 39-1.7 39.6-2.7.3-.4 2.2-.8 4.1-.8 3.6 0 14.9-2.4 18.8-3.9 1.1-.5 4.5-2 7.5-3.5 3-1.4 6-2.6 6.7-2.6.6 0 1.3-.3 1.5-.8.3-.7 11.4-8.3 13.2-9.1.6-.2 2-1.5 3.3-2.7 1.3-1.3 2.8-2.4 3.2-2.4.5 0 2.5-1.5 4.5-3.4s5-4.5 6.8-5.7c1.9-1.4 2.7-2.4 1.9-2.7-.8-.3-1.6 0-2 .5-.7 1.1-7.4 4.3-9 4.3-.6 0-1.1.4-1.1 1 0 .5-.9 1-1.9 1-1.1 0-2.1.3-2.3.7-.1.5-2 1.6-4.1 2.6-2.8 1.2-4.3 1.4-5.7.7-1-.5-2.6-1-3.6-1-1.6 0-9-7.1-12.8-12.3-1-1.5-3.2-4.1-5-5.9-1.7-1.8-4.5-5-6.3-7.2-2.9-3.6-3.3-3.8-6.4-2.8-3.8 1.2-13.8 2.9-24.9 4.3-4.1.5-10 1.3-13 1.8-5.1.9-17.9 2.7-35.5 5.1-3.8.5-8.6 1.2-10.5 1.5-1.9.3-8.4 1.2-14.5 2.1-6 .8-12.9 1.9-15.3 2.4-7 1.6-11.2 1.3-11.2-.8 0-1.5-.6-1.7-3.4-1.4l-3.4.4-.6-7.9c-2.1-26.7-2-27.3 3-27.3 1.3 0 2.4-.5 2.4-1 0-.6.9-1 2-1 1 0 3.6-.7 5.7-1.6 2.1-.9 4.9-2.2 6.3-2.8 1.4-.6 3.9-2 5.5-3.1 1.7-1.2 4.7-3 6.8-4.1 2.1-1 4.7-2.7 5.7-3.7 1.1-.9 2.4-1.7 3-1.7.5 0 1-.4 1-.8 0-1.5 13.4-6.2 17.7-6.2 3.1 0 4.8-.6 6.3-2.2 1.1-1.2 2-2.5 2-2.8 0-.7 2.4-3.8 6.1-7.8 1.2-1.2 2.6-2.2 3.3-2.2 2.2.1 4.5 2.6 5.3 6.1.7 2.4 1.6 3.5 3.1 3.7 1.2.2 2.2.8 2.2 1.3s.9.9 2 .9c1 0 3.1.5 4.5 1.2 1.4.6 2.7.9 2.9.7 1.4-1.4-4.1-123.9-6-132.8-.2-1.4-.7-4.2-1-6.1-.3-1.9-.9-4.4-1.4-5.5-.4-1.1-1.6-4.3-2.6-7-.9-2.8-2-5.2-2.3-5.5-.3-.3-1.5-2.2-2.6-4.3-3.5-6.7-14.8-16.7-18.8-16.7-.7 0-2.2-.7-3.3-1.5-1-.8-2.9-1.5-4.1-1.5-1.3 0-2.3-.5-2.3-1 0-.6-1.3-1-2.9-1-1.7 0-3.2-.4-3.6-.9-.3-.6-2.7-1.3-5.3-1.6-2.6-.3-5.5-1-6.4-1.6-1-.5-3.3-.9-5.2-.9-1.9 0-3.8-.5-4.1-1-.3-.6-1.7-1-2.9-1-1.8 0-2.5.7-3 3-1.2 6.4-8.6 10-14.4 7.1-.9-.5-3-1.4-4.7-2.1-1.6-.6-4.3-1.8-5.8-2.6-1.6-.8-3.5-1.4-4.3-1.4-.8 0-1.4-.4-1.4-.9 0-1.1-6.6-2.2-8.6-1.4-1.6.6-2 7.3-.4 7.3.6 0 1 1.4 1 3 0 1.7.4 3.8.9 4.8.5.9 1.7 3.9 2.6 6.7.9 2.7 2.3 6.4 3.1 8.2 2.5 5.5 3.7 19.9 3.1 36.3-.3 8.5-.8 16.6-1.2 18-.3 1.4-.9 4.9-1.2 7.8-.3 2.9-1 5.5-1.4 5.8-.5.3-.9 2.3-.9 4.4 0 2.1-.4 4.1-.8 4.4-.4.2-.9 2.2-1 4.3-.2 2.1-.8 5.6-1.4 7.8-.5 2.2-1.2 5.9-1.5 8.3-.3 2.3-.9 4.2-1.4 4.2-.5 0-.9.9-.9 2s-.4 2-.9 2c-1.3 0-2.6-2-4.7-7.2-1-2.7-2.2-4.8-2.6-4.8-.5 0-.8-.5-.8-1 0-.6-2.2-5.7-5-11.4-2.7-5.7-5-10.7-5-11 0-.4-1.1-2.4-2.5-4.4-1.4-2-2.5-4.4-2.5-5.3 0-1-.4-1.9-.9-2.1-.5-.2-2.5-3.2-4.4-6.8-5.2-9.9-7.2-13.4-7.7-14-.7-.7-2.7-4.1-4.5-7.5-.8-1.7-2.6-4.3-4-5.9-1.4-1.6-2.5-3.3-2.5-3.8s-1.1-2-2.5-3.4-2.5-3.1-2.5-3.9c0-.7-.3-1.5-.8-1.7-.4-.2-2.5-2.8-4.7-5.8-5.4-7.5-5.7-7.9-8.2-10.2-2.4-2.3-3.3-9.1-1.3-10.3.6-.3 1-4.2 1-8.6 0-4.3.4-8.7.9-9.7.5-.9 1.5-7.3 2.1-14.2 3.1-33.2 3.3-33.8 7.4-40.5 1.7-2.8 4-6.8 5.1-9 1.1-2.2 2.2-4.2 2.5-4.5 2-1.9 4-14.8 5.6-36.5.7-8.9 1.2-9.8 6.1-12.2 2.6-1.2 3.7-1.3 4.6-.4.6.6 2 1.1 3 1.1 2.3 0 8.6 6.1 11.3 11 1 1.9 2.2 3.7 2.5 4 .3.3 1.2 1.6 1.9 2.9 1.1 2.1 1.7 2.3 5.5 1.8 2.4-.4 5.9-1.5 7.7-2.5 1.9-1.1 4.9-2.3 6.6-2.7 1.8-.3 3.4-1.1 3.7-1.6.4-.5 1.7-.9 3.1-.9 1.3 0 2.4-.5 2.4-1 0-.6.8-1 1.9-1 1 0 3.2-.7 4.7-1.5 1.6-.8 3.9-1.5 5.1-1.5 1.2 0 2.5-.5 2.8-1 .3-.6 2.1-1 3.9-1 1.8 0 3.6-.3 4-.7 1.4-1.4 12.2-4.3 16.4-4.3 2.3 0 4.2-.4 4.2-.9 0-.8 2.6-1.2 18.4-2.8 6.1-.6 19.6 1.4 19.6 2.9 0 .4.7.8 1.5.8s1.5.5 1.5 1.2c0 .9.3.9 1.1.1 1.4-1.4-.3-22-2-23.3-.8-.7-4.1-7.8-4.1-9 0-1-6.8-12-7.9-13-.4-.3-1.5-1.8-2.5-3.4-4.4-6.9-17.3-19.8-24.2-24.2-1.6-1-3.1-2.1-3.4-2.4-1.3-1.5-13.4-6-16-6-1.6 0-3.2-.5-3.5-1-.4-.6-6.3-1-14.4-1-7.6 0-15.3-.3-17.1-.6-3.8-.8-10-6.6-10-9.4 0-1.1-.4-2-1-2-.5 0-1-.7-1-1.5s-.4-1.5-.9-1.5-1.2-.8-1.6-1.9c-.3-1-2.4-3.1-4.6-4.5-3.6-2.4-4.8-2.7-12.5-2.5-4.6.1-8.7.6-9 1zM546 197c0 20.6.1 21.3 1.8 19.7 1-1 2.4-1.7 3-1.7.7 0 1.2-.3 1.2-.8 0-.4.9-1.2 1.9-1.7 1.1-.6 3.6-1.9 5.8-3 2.1-1 4.4-2.5 5.1-3.2.7-.7 2-1.3 2.8-1.3.8 0 1.4-.3 1.4-.8 0-.4 1.5-1.4 3.3-2.1 1.7-.8 3.8-2.1 4.5-2.8.7-.7 2-1.3 2.8-1.3.8 0 1.4-.4 1.4-.9s.9-1.1 2-1.4c2.3-.6 2.7-2.7.6-2.7-.8 0-3.9-1.2-6.8-2.8-3-1.5-7-3.3-9.1-4.1-2-.8-3.7-1.8-3.7-2.3 0-.4-1.1-.8-2.4-.8-1.4 0-2.7-.4-3.1-.9-.3-.5-1.9-1.2-3.5-1.6-1.7-.4-3-1.1-3-1.6s-.8-.9-1.8-.9-2.3-.5-3-1.2c-.9-.9-1.2 3.5-1.2 20.2z"/><path d="M362.2 513.7c-3.2 3.2-5.6 4.3-9.5 4.3-3.1 0-3.7.5-5.5 4.2-1.9 4.1-8.4 11.5-12.7 14.8-2.9 2.1-9.3 5-11.2 5-.9 0-1.4.3-1.1.6.3.3 3.2 0 6.5-.6 3.2-.7 8.1-1.6 10.8-2.2 2.8-.5 8.4-1.6 12.5-2.4 4.1-.8 9.3-1.7 11.5-2 2.2-.3 4.9-.9 6-1.3 1.9-.8 11.9-2.7 19.5-3.8 5.7-.7 6.7-1.2 5-2.3-.8-.6-2.5-1-3.7-1-1.7 0-2.3-.6-2.3-2.3 0-4.1-2.1-9.7-3.5-9.7-.8 0-1.5-.4-1.5-.9 0-1-5.1-2-13-2.4-4.6-.3-5.8 0-7.8 2z"/></g><path d="M89.7 85.7c-.4.3-.7 1.3-.7 2.2.1 1.4.2 1.3 1.1-.2.8-1.4 2.4-1.7 8.9-1.7 7 0 7.9.2 7.3 1.7-.4 1.1-.3 1.4.5.9.7-.4 1.2-1.4 1.2-2.2 0-1.1-1.8-1.4-8.8-1.4-4.9 0-9.2.3-9.5.7zm-8 26.3c-.9 1.1-2.4 2-3.4 2-.9 0-1.3.3-1 .6 1 1.1 6.7-1.7 6.7-3.2 0-1.8-.2-1.8-2.3.6zm15.9 7.6c-.3.9-.6 2.9-.6 4.5v2.9h24.3l-.6 4.7-.5 4.8 1.4-4.4c1.1-3.6 1.1-4.7.1-5.3-.6-.4-6.3-.8-12.6-.8H97.7l.7-4c.6-4.1.3-5.2-.8-2.4zM77 137.2c0 .5 9.8.7 21.8.6 21.7-.2 19.2-.6-7.6-1-7.8-.2-14.2 0-14.2.4z" stroke-width="1.7" fill="#E5E5E5" stroke="#E5E5E5"/><path d="M90.1 88.2c-1.4 3.7-2.8 8.8-4.8 17.1-1.7 7.2-2 7.8-5 8.9-1.9.7-3.3 1.9-3.3 2.8 0 .9-.5 2.1-1.2 2.8-.9.9-.9 1.5-.1 2.3.8.8 1.3.8 1.7 0 .4-.6 1.2-1.1 1.8-1.1 1.3 0 .2 11.9-1.3 13.6-.5.6-.6 1.4-.2 1.7.3.4 10 .7 21.3.7h20.8l.6-3.1c1.4-7.2 1.9-6.9-11.4-6.9H97v-2.5c0-1.4.5-4.3 1.2-6.4.9-3 2.1-4.3 4.9-5.5 2.4-1.1 3.9-2.5 4.3-4.2.9-3.4-.1-4.6-2.4-3.2-3 1.9-3.3.4-1.5-6.4.9-3.5 2-7.8 2.5-9.6l.8-3.2h-7.9c-7.3 0-8 .2-8.8 2.2zM504 200c0 3 1 3.8 11.5 9.4 1.1.6 2.2 1.4 2.5 1.7.3.3 2.1 1.4 4 2.5 1.9 1 3.7 2.1 4 2.4.3.3 2.3 1.4 4.5 2.5s4.2 2.3 4.5 2.6c.3.4 2.6 1.8 5.1 3.1 5.1 2.8 4.6 2.9 15.7-4 2.9-1.7 5.4-3.2 5.6-3.2.3 0 4-2.3 8.3-5 4.3-2.8 9.2-5.7 11-6.5 3.6-1.7 5.6-4.5 4.4-6.4-.6-.9-1.4-.9-3.7.1-1.6.7-3.1 1.5-3.4 1.9-1.2 1.4-9.1 5.9-10.5 5.9-.8 0-1.5.3-1.5.8 0 .4-1.7 1.6-3.7 2.7-2.1 1.1-4 2.3-4.3 2.6-.3.3-2.7 1.8-5.5 3.4-2.7 1.5-5.3 3.2-5.7 3.9-.5.8-1.4.7-3-.3-1.3-.8-3.6-2.1-5.3-3-1.6-.8-3.2-1.8-3.5-2.2-.3-.4-2.5-1.8-5-3.1-6.5-3.5-9.4-5.2-10-5.9-.3-.3-2.3-1.4-4.5-2.5-2.2-1-4.6-2.4-5.3-3.1-.7-.7-1.7-1.3-2.2-1.3-.5 0-1.5-.3-2.4-.6-1.2-.4-1.6 0-1.6 1.6zM202.3 327.4c1.5 1.5 2.7 3 2.7 3.4 0 .4 1.4 2.3 3 4.2 1.7 1.9 3.3 4.3 3.6 5.2.3 1 1 1.8 1.5 1.8s.9.5.9 1.1c0 .6.6 1.7 1.3 2.4 2.9 3.3 3.7 4.5 3.7 5.5 0 .5.3 1 .8 1 .4 0 1.6 1.7 2.7 3.7 1.1 2.1 2.7 4.6 3.5 5.5.8.9 2.4 3.4 3.5 5.5s2.2 4 2.5 4.3c.5.5 2.9 5 9.2 17 1.2 2.5 2.5 4.7 2.9 5 .8.8 3.9 7.7 3.9 8.9 0 .6.3 1.1.8 1.1.4 0 1.5 1.9 2.5 4.2 1 2.4 2.4 5.5 3 7 .7 1.6 1.5 2.8 1.9 2.8.5 0 .8.5.8 1.2 0 .6 1.1 3.4 2.4 6.2 1.3 2.8 2.6 5.9 3 6.8.5 1.7 2.8 2.6 2.4 1-.4-1.7 1.5-13.3 2.3-13.8.5-.3.9-2.3.9-4.5 0-2.1.4-4.7.9-5.7.9-1.8 2.6-10.6 4.3-22.7 1.5-10.6 2.1-41.6.8-42.9-.5-.5-1-2.4-1-4.2 0-3-.3-3.2-4.2-3.8-2.4-.4-10.1-.9-17.3-1.1-17.9-.7-33.2-3.2-49.5-8.1l-2.4-.7 2.7 2.7z" stroke-width="1.7" fill="#FFF" stroke="#FFF"/><path d="M414.5 98c-.4.6.7 1 2.5 1s2.9-.4 2.5-1c-.3-.6-1.5-1-2.5-1s-2.2.4-2.5 1z" fill="#4C66CC" stroke="#4C66CC" stroke-width="1.7"/><path d="M95.3 157.7c1.5.2 3.7.2 5 0 1.2-.2 0-.4-2.8-.4-2.7 0-3.8.2-2.2.4z" fill="#B2B2CC" stroke="#B2B2CC" stroke-width="1.7"/><path d="M544.2 149.2c-.1 13-.5 24.5-.8 25.5-.5 1.6-.5 1.6.5.1.8-1.1 1-9.5.8-25.5l-.2-23.8-.3 23.7zm-7.9 28.8c-2.4 1-4.3 2.1-4.3 2.4 0 .6 7.7-2.7 8.7-3.7 1-1.1.1-.8-4.4 1.3zM511 189.5c-1.4.8-3.3 1.4-4.2 1.5-1 0-1.8.5-1.8 1 0 1.1 6.8-1.4 8.5-3.1 1.3-1.3.4-1.1-2.5.6zm32.8 54.6c-.2 8.3 0 15.3.5 15.6.4.2.7-6.6.7-15.1 0-8.6-.2-15.6-.4-15.6-.3 0-.6 6.8-.8 15.1z" stroke-width="1.7" fill="#666" stroke="#666"/><path d="M545 151c0 21.6-.2 25-1.5 25-.8 0-1.5.4-1.5 1 0 .5-.6 1-1.4 1-.8 0-2.9.8-4.8 1.7-6 3-6.8 3.3-8.3 3.3-.8 0-1.5.4-1.5 1 0 .5-.4 1-1 1-.5 0-4.7 1.8-9.4 4-4.6 2.2-9.1 4-10 4-2.5 0-1.9 1.3 1.7 3.4 9.6 5.6 11.8 6.6 12.7 6.1.5-.3.7 0 .5.7-.3.8.6 1.8 2.2 2.5 4.3 1.8 13.8 7.5 14.1 8.5.2.4 1 .8 1.8.8s1.4.4 1.4.8c0 .9 6.2 3.4 6.9 2.7.2-.3-.1-.5-.7-.5-1.5 0-1.7-40.7-.2-43 .6-1 1-1.1 1-.3 0 .7.8 1.3 1.8 1.3s4.1 1.1 6.7 2.5c2.7 1.3 6.2 2.7 7.7 3 1.5.4 2.8 1 2.8 1.3 0 .9 4.9 3.2 6.7 3.2.7 0 1.3.4 1.3 1 0 .5.8 1 1.8 1s2.7.7 3.8 1.5c2.7 2 5.1 2 3.4 0-.7-.8-.9-1.5-.4-1.5.5-.1 0-.9-1.1-1.8-2.2-2-3.6-4.1-6.2-9.2-.9-1.9-2.3-4.1-3-4.8-.7-.7-1.3-2-1.3-2.8 0-.8-.4-1.4-1-1.4-.5 0-1-.6-1-1.3 0-.8-.9-2.2-2-3.2-1-.9-1.9-2-1.8-2.4.2-1.2-1.6-4.6-3.3-6.2-1-.8-2.1-2.7-2.4-4.1-.4-1.5-1.5-3.4-2.6-4.4-1-.9-1.9-2.3-1.9-3.1 0-.7-.5-1.3-1.1-1.3-.6 0-.9-.7-.5-1.5.3-.8.1-1.5-.4-1.5-.6 0-1-.5-1-1.2 0-.6-.8-2-1.7-3.1-1-1-1.8-2.4-1.9-3-.2-2.5-1.7-5.7-2.5-5.7-.5 0-.9 11.2-.9 25zm37 55.7c-.8.3-1.7.9-2 1.2-1.1 1.4-6 4.1-7.4 4.1-.8 0-1.6.4-1.8.8-.4 1.1-14.6 10.2-15.8 10.2-.5 0-1.5.6-2.2 1.3-.7.7-2.5 1.8-4 2.4-1.6.7-2.8 2.1-2.8 3-.1 3.6-.1 19.9-.1 25.3l.1 5.5 2.2-3.5c1.3-1.9 2.6-3.7 3-3.8.5-.2.8-.8.8-1.4 0-.9 4-6.7 7.2-10.2 1-1.1 2-2.8 2.4-3.8.3-1 1-1.8 1.5-1.8s.9-.5.9-1.1c0-.6.6-1.7 1.3-2.4 2.9-3.3 3.7-4.5 3.7-5.5 0-.5.4-1 .9-1s1.2-.8 1.5-1.8c.3-.9 1.9-3.3 3.6-5.2 1.7-1.9 3.3-4.3 3.6-5.3.3-.9 1-1.7 1.5-1.7s.9-.7.9-1.5.4-1.5.9-1.5 1.1-.7 1.5-1.5c.3-.8.4-1.5.3-1.4-.1 0-.9.3-1.7.6zm-59 143.5c0 1 8.7 1 9.3 0 .3-.4-1.7-.7-4.4-.7s-4.9.3-4.9.7zm29 57.2c0 .8-.3 2.3-.6 3.3-.5 1.7-.5 1.7.6.1 1-1.6 1.3-1.7 3.8-.2 2.6 1.5 2.6 1.5.5-.1-1.3-1-2.3-2.4-2.3-3.1 0-.8-.4-1.4-1-1.4-.5 0-1 .6-1 1.4zm-23.6 6.2c-1.7 1.8-2.8 3.4-2.4 3.4.9 0 6.3-6.1 5.8-6.5-.2-.2-1.7 1.2-3.4 3.1zm13.3 3.1c-1.5 5.3-1.8 7.7-.9 6.8.5-.6 1.2-2.7 1.5-4.8.6-3.8.2-5-.6-2zm-23.6 6.8c-5.6 6.1-5.2 6.9.4 1 2.5-2.6 4.4-4.9 4.2-5.1-.2-.3-2.3 1.6-4.6 4.1zm51.5 1.6c-3.8 4.3-2.7 4.6 1.3.4 1.8-1.9 2.9-3.5 2.3-3.5-.5 0-2.1 1.4-3.6 3.1zm3.6 7c-4.5 4.4-8.2 8.3-8.2 8.6 0 .4 1.6-.9 3.6-2.8 11.2-10.8 13.5-13.1 13.2-13.4-.2-.2-4.1 3.2-8.6 7.6zm-68.5-5.4c-1.1 1.1-.8 3.4.7 4.9 2.1 2.1 3.2 1.7 1.2-.5-.9-1-1.4-2.5-1-3.5.6-1.7.2-2.1-.9-.9zm27.3 19.4c-1.6.4-1.9.7-.7.8.9.1 1.7.6 1.7 1.3 0 .9.3.9 1.1.1 1.8-1.8.6-3-2.1-2.2zm8.7 2.6c-.4.3-.7 1.5-.7 2.5s-.9 2.7-2 3.8c-1.3 1.3-1.6 2-.7 2 1.4 0 3.1-2.7 4.2-6.8.6-2.2.4-2.7-.8-1.5zm-176.2 87.2c-.3.6 1 .7 3.2.4 5-.8 5.5-1.3 1-1.3-2 0-3.8.4-4.2.9zm4.5 5.9c0 .4 1.7.6 3.8.4 5.8-.5 6.2-1 1-1.1-2.7-.1-4.8.3-4.8.7z" stroke-width="1.7" fill="#333" stroke="#333"/><path d="M541.7 129.7c-.6 1.8-4.8 9.4-5.7 10.3-.9.9-6 8.9-6 9.5 0 .3-2.2 4.1-5 8.5-2.7 4.4-5 8.4-5 9 0 .5-.3 1-.7 1-.5 0-1.7 1.8-2.7 4-1.1 2.2-2.3 4-2.8 4-.4 0-.8.5-.8 1 0 .6-1.6 3.6-3.5 6.6-5.4 8.4-4.9 8.9 4.2 4.8 10.7-4.9 15.8-7.2 21.2-9.8 3-1.4 6-2.6 6.7-2.6 2.1 0 2.4-2.8 2.4-25.6 0-20.1-.7-25.9-2.3-20.7zM506 206.6c0 .5 1.1 1.9 3.8 4.9.6.7 1.2 1.6 1.2 2 0 .3 1.1 1.8 2.5 3.3 1.4 1.5 2.5 3.2 2.5 3.9 0 .7.4 1.3.8 1.3s1.6 1.5 2.7 3.2c1 1.8 2.2 3.5 2.5 3.8.4.3 2 2.5 3.5 5s3.1 4.7 3.5 5c.4.3 2.8 3.6 5.4 7.5 6.7 9.8 8 11.5 8.8 11.5.5 0 .8-6.4.8-14.3 0-9.4.4-14.7 1.1-15.4.9-.9.7-1-1-.6-1.2.3-2.1.1-2.1-.6 0-.6-.9-1.1-2-1.1s-2-.3-2-.8c0-.4-1.7-1.6-3.7-2.7-2.1-1.1-4.7-2.8-5.7-3.8-1.1-.9-2.7-1.7-3.7-1.7-.9 0-2.2-.7-2.9-1.5-.7-.8-1.8-1.5-2.5-1.5-.8 0-1.5-.3-1.7-.8-.7-1.7-11.8-7.9-11.8-6.6z" stroke-width="1.7" fill="#999" stroke="#999"/><path d="M545.6 176c-.4 1.4-.5 11.5-.4 22.5l.3 20 .3-21.5c.1-16.6.5-21.1 1.4-20.2.7.7 2 1.2 3 1.2s1.8.4 1.8.9 1.3 1.2 3 1.6c1.6.4 3.2 1.1 3.5 1.6.4.5 1.7.9 3.1.9 1.3 0 2.4.4 2.4.8 0 .5 1.7 1.5 3.7 2.3 2.1.8 6.1 2.6 9.1 4.1 2.9 1.6 6 2.8 6.9 2.8 1 0 1.3.6.8 1.7-.5 1.4-.3 1.5.6.6 1.6-1.6.4-4.3-1.8-4.3-1 0-2.7-.7-3.7-1.5-1.1-.8-2.8-1.5-3.8-1.5s-1.8-.5-1.8-1c0-.6-.6-1-1.3-1-1.8 0-6.7-2.3-6.7-3.2 0-.3-1.3-.9-2.8-1.3-1.5-.3-5-1.7-7.7-3-2.6-1.4-5.6-2.5-6.6-2.5-.9 0-1.9-.6-2.2-1.3-.2-.6-.7-.1-1.1 1.3z" fill="#191919" stroke="#191919" stroke-width="1.7"/><path d="M590.4 346.2c-.3.5-7 .8-15 .8-8.9 0-14.4.4-14.4 1s-5.3 1-13.9 1c-8.3 0-14.2.4-14.6 1-.9 1.4-9.5 1.3-9.5-.2 0-1.7-3.8 2.1-5.5 5.5-.8 1.6-1.2 3.3-.9 3.8.6 1.1-1.7 6.9-2.8 6.9-.5 0-.8 1.1-.8 2.5s-.5 2.5-1 2.5c-.6 0-1 .6-.9 1.2.3 1.6-1.2 7.1-2 7.8-1.3 1.1-3.1 5.1-3.1 7 0 1.1-.5 2-1.1 2-.6 0-.9.9-.6 2 .3 1.1.1 2-.4 2s-.9.9-.9 2-.4 2-1 2c-.5 0-1 1.1-1 2.5s-.4 2.5-1 2.5c-.5 0-1 1-1 2.3 0 1.3-.7 3.2-1.5 4.3-.8 1-1.5 2.9-1.5 4.2 0 1.2-.4 3.1-1 4.2-2.4 4.8-2.8 5.7-3.5 8.8-.3 1.8-1.1 3.2-1.6 3.2s-.9 1.3-.9 3c0 1.6-.4 3-.9 3s-1.2 1.8-1.6 4c-.4 2.2-1.1 4-1.6 4s-.9 1.1-.9 2.5-.4 2.5-.9 2.5-1.1 1.8-1.5 4c-.3 2.2-1.5 5.6-2.6 7.5-1.1 2-2 4.4-2 5.5 0 1.1-.5 2-1.1 2-.5 0-.7.4-.4 1 .3.5-.1 2-1 3.3-.8 1.3-1.2 2.7-.8 3 .3.4.1.7-.5.7-.7 0-1.2 1.3-1.2 3 0 1.6-.4 3-.9 3-1 0-2.5 4.7-2.2 6.7.1.6-.3 1.4-.9 1.8-.5.3-1 1.5-1 2.6 0 1-.4 1.9-1 1.9-.5 0-1 .9-1 1.9 0 1.1-.4 2.2-.9 2.6-.6.3-1.3 2.6-1.7 5-.3 2.5-1 4.5-1.5 4.5s-.9 1.1-.9 2.5-.5 2.5-1.1 2.5c-.6 0-.9.6-.6 1.4.8 2-3.9 5.6-7.3 5.6-1.7 0-3 .5-3 1.1 0 .6-1.7.9-4.3.8-2.4-.2-4.9.1-5.7.6-.8.5-2.9.8-4.6.6-1.8-.1-3.5.2-3.9.8-.3.6-2.8 1.1-5.6 1.1-2.7 0-4.9.4-4.9.9s-2 .9-4.5.9c-5.6 0-10.5 1.1-10.5 2.3 0 .5-2.7.9-6 .9s-6 .4-6 1c0 .5-1.8 1-3.9 1-2.2 0-4.2.4-4.5.9-.3.5-2.3 1.1-4.3 1.4-2.1.3-4.7.7-5.8 1-1.1.3-5 .8-8.8 1.2-3.7.4-7 1.2-7.3 1.6-.3.5-2.3.9-4.4.9-2.1 0-4.1.4-4.4.9-.3.4-4.2 1.2-8.6 1.5-4.4.4-8 1.2-8 1.7s-2 .9-4.5.9-4.5.5-4.5 1c0 .6-1.9 1.1-4.2 1-7 0-15.3 1-15.6 2.1-.2.5-1.9.9-3.7.9-2 0-3.5.6-3.9 1.5-.4 1.2.6 1.5 6.4 1.5 4 0 7-.4 7-1s2.2-1 4.9-1c2.8 0 5.2-.4 5.5-.9.3-.4 3.6-1.1 7.3-1.5 3.8-.4 8.2-.9 9.8-1.1 1.7-.2 6.5-.7 10.8-1.1 4.2-.4 7.7-1.1 7.7-1.5 0-.5 3.2-.9 7-.9 3.9 0 7-.4 7-.9s4.5-1.2 10-1.6c5.5-.4 10.3-1.1 10.6-1.6.3-.5 3.4-.9 6.9-.9 3.5 0 6.6-.4 7-.9.3-.5 4.6-1.3 9.5-1.7 5-.3 9-1 9-1.5 0-1.4 2.8-1.1 3.3.4.4.9.6.9.6-.1.1-.7 1.6-1.2 4-1.2 2.2 0 4.1-.3 4.3-.8.4-1 13.7-4.2 17.6-4.2 1.7 0 3.2-.5 3.2-1 0-.6 1.5-1 3.3-1 1.8 0 3.7-.4 4.2-.9.6-.6 5.2-1.3 10.3-1.7 8.5-.6 9.2-.9 9.2-2.8 0-1.2.7-3.4 1.5-5 .8-1.5 1.5-3.5 1.5-4.2 0-.8.4-2.2.9-3.2 1.8-3.4 4.1-9 4.1-10.1 0-.6.5-1.1 1-1.1.6 0 1-.6 1-1.4 0-2 6.4-4.8 9.5-4 2.2.5 2.5.3 2.5-1.8 0-1.3.5-2.9 1.2-3.6.7-.7.9-1.2.4-1.2-1.7 0 4-8.1 6-8.6 3-.8 6.4.4 6.4 2.2 0 .8.4 1.4.9 1.4s1.1 3.3 1.5 7.2c.8 9.9 2.3 19.9 2.5 16.8.2-3 .9-4.1 3.8-5.8 4.1-2.2 6.1-1.5 7.2 2.5.6 2.1 1.1 5.3 1.1 7 0 1.8.5 3.3 1 3.3.6 0 1-.4 1-.9s1.9-1.2 4.3-1.5c8.9-1.1 17.7-3 17.7-3.8 0-.4.9-.8 2.1-.8 3.1 0 4.6-2.1 5.4-7.3.4-2.6 1.1-4.7 1.6-4.7s.9-1.1.9-2.5.4-2.5.9-2.5 1.2-2 1.5-4.5c.4-2.4 1.1-4.7 1.7-5 .5-.4.9-1.7.9-3.1 0-1.3.5-2.4 1-2.4.6 0 1-1.4 1-3 0-1.7.4-3 1-3 .5 0 .7-.7.4-1.5-.4-.8-.1-1.5.5-1.5s1.1-1.1 1.1-2.5c0-2.5 1.7-6.4 3.3-7.6.5-.3.8-1.5.6-2.5-.2-1.9.5-4.5 2.2-7.6.5-1 .9-2.7.9-3.8 0-1.1.5-2 1-2 .6 0 1-1.1 1-2.4 0-1.4.5-2.8 1-3.1.6-.4.8-1.5.5-2.6-.4-1.1-.2-1.9.4-1.9.6 0 1.1-1.1 1.1-2.5s.5-2.5 1-2.5c.6 0 1-1.1 1-2.5s.5-2.5 1.1-2.5c.6 0 .9-1 .8-2.3-.2-2.2.5-4.8 2.2-7.9.5-1 .9-2.7.9-3.8 0-1.1.5-2 1-2 .6 0 1-9.9 1-27.8v-27.9l-4.6.1c-2.5.1-4.8.4-5 .8zm-35.7 48.4c1.3 1.3 1.4 2 .5 3.5-1.9 3.1-1.5 4.9 1.3 4.9 1.4 0 2.5.4 2.5 1 0 .5.7 1 1.5 1 1.4 0 6.1 2.5 7.5 4 .3.3 1.9 1.2 3.5 2.1 14 7.3 14.7 9.6 5.4 18.7-6.4 6.4-12.3 11.8-15.1 14-1.5 1.2-2 1.2-3.3-.1-3-3.1-1.7-5.8 7-14.4 4.6-4.5 7.8-8.3 7-8.3-.8 0-1.5-.4-1.5-.8 0-.5-1.9-1.7-4.2-2.7-2.4-1-5-2.5-5.8-3.4-.8-.9-3-2.4-4.8-3.3-3-1.6-3.2-1.6-4.2.2-.5 1-1 2.8-1 3.9 0 1.2-.4 2.1-.9 2.1-.4 0-1.1 1.9-1.4 4.2-.3 2.4-.9 5.4-1.2 6.8-.4 1.4-.9 3.7-1.2 5.2-.3 1.6-.9 2.8-1.4 2.8-.5 0-.9 1.6-.9 3.5s-.4 3.5-.9 3.5c-.4 0-1.1 2.2-1.4 4.9-.8 6.6-2.5 9.3-5.7 8.9-2.2-.3-2.5-.8-2.8-4.9-.3-4.2-.6-4.6-3.9-5.8-2-.8-4.5-2.1-5.5-3.1-1-.9-3.6-2.6-5.8-3.6-2.2-1-4-2.2-4-2.5 0-.4-1.1-1-2.5-1.3-1.4-.4-2.5-1.1-2.5-1.6 0-.6-.5-1-1.1-1-1.5 0-3.9-2.6-3.9-4.2 0-1.2 20-21.6 22.7-23.2 1.9-1.1 5.3 1.2 5.3 3.6 0 1.3-3.3 5.3-8.7 10.6l-8.7 8.6 2.7.9c1.5.5 2.7 1.2 2.7 1.6 0 .4 3.1 2.5 7 4.7 3.8 2.1 7 4.2 7 4.6 0 2 1.8.5 2.3-2 1.2-5.9 2-8.7 2.6-9.2.4-.3 1.2-3.4 1.9-7 2.1-10.8 2.4-12 3.3-12 .5 0 .9-1.3.9-2.9 0-1.7.5-3.3 1-3.6.6-.3 1-2 1-3.6 0-6.2 4.1-9 7.7-5.3z" fill="#4C3333" stroke="#4C3333" stroke-width="1.7"/><path d="m553 348-4.5.7 5.3.1c2.9.1 5.2-.2 5.2-.8 0-.6-.3-.9-.7-.8-.5 0-2.8.4-5.3.8z" fill="#333319" stroke="#333319" stroke-width="1.7"/><path d="M219.2 233.7c-.1 2.3-.6 4.5-1.2 4.8-.5.3-1 2.4-1 4.6 0 2.2-.4 4.8-.9 5.8-.9 1.6-2.6 10.5-3.7 19.6-.3 2.2-.9 4.9-1.4 6-.5 1.1-1.1 4.5-1.5 7.5-.3 3-1.1 7.5-1.7 10-.5 2.5-1.4 6.1-1.8 8-1.5 6.4-4 20.5-4 22.2 0 1.3 1.5 2 6 3 3.3.6 6 1.6 6 2 0 .4 1.6.8 3.5.8h3.5l-.1-37.8c-.1-32.7-1.2-68.7-1.7-56.5zm19 47.8c.6 1.4 1.5 2.5 2 2.5.4 0 .8.5.8 1.1 0 .6.6 1.7 1.3 2.4 2.9 3.3 3.7 4.5 3.7 5.5 0 .5.4 1 .8 1s2.1 2.2 3.7 5c1.6 2.7 3.2 5 3.5 5 .3 0 1.4 1.6 2.4 3.5 1.1 1.9 2.3 3.5 2.8 3.5.4 0 .8.4.8 1 0 .5 1.8 3.5 4 6.6 4 5.8 5.2 5.5 2.6-.7-.8-1.9-1.7-5-2-7-.3-2-.8-4.3-1.2-5.2-.3-1-.3-2.8 0-4.2.5-1.8 1.3-2.5 3.2-2.5 1.4 0 2.3-.4 1.9-1-.3-.6-1.3-1-2.1-1-2 0-9.4-3.3-9.4-4.2 0-.5-.5-.8-1.1-.8-1.1 0-6.9-4.3-15.1-11.3-3-2.4-4-2.1-2.6.8z" stroke-width="1.7" fill="#FFCCB2" stroke="#FFCCB2"/><path d="M330.6 180.9c-.4.5-4.4 1.2-9.1 1.6-4.7.4-8.5 1.1-8.5 1.6s-1.6.9-3.5.9-3.5.4-3.5.9-1.2 1.1-2.7 1.4c-1.6.3-3.5.7-4.3 1-.8.2-3.3.7-5.5 1.2-2.2.4-4.2 1.1-4.5 1.4-.8 1-5.9 3.1-7.6 3.1-.8 0-4 1.1-7.1 2.6-3.1 1.4-6.9 2.8-8.4 3.1-1.6.3-2.9.9-2.9 1.4 0 .5-1.1.9-2.5.9s-2.5.4-2.5 1c0 2.5-8.4-.2-9.4-3-1.1-2.9-5.1-9-8.6-12.8-4.4-5-10.3-6.4-13.8-3.4-2.1 1.8-2.3 3.3-3.2 16.8-1 16.5-1.8 22.1-3.1 23-.5.3-.9 1.4-.9 2.5 0 2.4-3.2 9.9-4.2 9.9-.5 0-.8.9-.8 2s-.4 2-1 2c-.5 0-1.2 1.1-1.6 2.5-.3 1.4-1 2.5-1.5 2.5s-.9.6-.9 1.4c0 .8-.5 1.6-1.2 1.8-1.1.4-1.4 2.9-3.4 26.5-.3 4-1 7.3-1.5 7.3s-.9 3.1-.9 6.9c0 3.8-.4 7.1-.9 7.3-1.3.4-1.8 27-.6 27.5.6.1 1.8-4.2 2.8-9.9 1-5.7 2.2-11.9 2.7-13.8 2.3-9.6 2.9-13 3.5-18 .4-3 1-6.4 1.5-7.5.5-1.1 1.1-3.8 1.4-6 1.1-9.1 2.8-18 3.7-19.6.5-1 .9-3.6.9-5.8 0-2.2.5-4.3 1-4.6.6-.3 1.1-2.5 1.2-4.8.5-12.2 1.6 23.7 1.7 56.5.1 29.3-.2 37.7-1.1 38.1-3.2 1.1 17.9 3.5 37.4 4.3l14.6.6-1.1-3.4c-.7-1.8-3.3-6.4-5.9-10.1-2.7-3.7-4.8-7.2-4.8-7.7 0-.6-.4-1-.8-1-.5 0-1.7-1.6-2.8-3.5-1-1.9-2.1-3.5-2.4-3.5-.3 0-1.9-2.3-3.5-5-1.6-2.8-3.3-5-3.7-5-.4 0-.8-.5-.8-1.1 0-.6-.6-1.7-1.2-2.4-3-3.3-3.8-4.5-3.8-5.5 0-.5-.4-1-.8-1-.5 0-1.4-1.1-2-2.5-1.4-2.9-.4-3.2 2.6-.8 8.2 7 14 11.3 15.1 11.3.6 0 1.1.3 1.1.8 0 .9 7.4 4.2 9.4 4.2.8 0 1.7.4 2 .9.3.4 2.8 1.1 5.6 1.5 2.7.4 5 1 5 1.4 0 .7 1.4 1.4 9.4 4.6 5.7 2.4 10.8 2.1 13.4-.7 1.2-1.3 2.2-3.1 2.2-4 0-.9.5-1.9 1-2.2.6-.3 1-1.6 1-2.9 0-1.3 1.6-3.9 3.5-5.9 1.9-2 3.5-4 3.5-4.5s1.8-2.9 4-5.3c2.4-2.7 3.8-5 3.5-6-.5-1.4.3-1.6 6.4-1.1 6.1.4 7 .2 7.9-1.5 1.7-3.2 2.1-6.8 2.3-21.4l.1-13.9 8.3-8.3c4.5-4.7 8.6-9.4 9-10.6.3-1.1 1.1-2.1 1.6-2.1s.9-.7.9-1.5.5-1.5 1-1.5c.6 0 1-.4 1-1 0-.5 1.1-3.3 2.4-6.2 2.8-6.1 4-13.2 3.1-18.2-.6-2.9-1.2-3.5-4.1-4.1-1.9-.3-3.4-1-3.4-1.5 0-1.3-25.7-1.3-26.4-.1zm29.2 300.2c-2.1 2.2-3.8 4.6-3.8 5.4 0 .8-.4 1.5-1 1.5-.5 0-1 .6-1 1.4 0 1.4-2.1 2-12.8 3.6-3.9.6-7 1.7-8.4 3-1.2 1.1-2.6 2-3.1 2-.6 0-2.5 1.1-4.3 2.5-1.8 1.4-3.7 2.5-4.3 2.5-.6 0-1.1.4-1.1 1 0 .5-1.1 1.2-2.5 1.6-1.4.3-2.5 1-2.5 1.4 0 1.1-10 6-12.2 6-1 0-1.8.3-1.8.8 0 1.1-4.9 3-9.7 3.8l-4.2.6.4 6.2c.3 3.3.8 10.1 1.1 15l.6 8.8 4.1-.7c2.3-.5 5.4-.9 7-1 1.5-.1 3-.5 3.4-.8.3-.4 2.1-.7 4-.7 1.8 0 3.3-.5 3.3-1 0-.6 1.3-1 2.9-1 1.7 0 3.2-.4 3.5-.9.4-.5 2.4-1.2 4.6-1.6 2.2-.4 4-1 4-1.4 0-.3 1.8-1.4 3.9-2.3 4.2-1.8 13.1-10.4 13.1-12.5 0-.7.5-1.3 1-1.3.6 0 1-.7 1-1.5s.4-1.5.9-1.5 1.1-.9 1.4-2c.4-1.6 1.4-2 4.7-2 3.6 0 4.8-.6 7.6-3.5 3.1-3.3 3.6-3.5 9.8-3.5 3.7 0 6.6.4 6.6 1 0 .5 1.5 1 3.3 1 1.7 0 5.2 1.1 7.7 2.4 2.5 1.3 7.6 4 11.3 6 7.4 3.9 10.4 4.5 11.4 2 .7-1.9-6.3-8.4-12.4-11.6-2.4-1.2-4.3-2.5-4.3-2.9 0-.7-4.5-2.3-6.9-2.4-.8 0-1.6-.5-1.8-1.2-.3-.8.7-1.1 3.4-.8 4.4.4 13.5 2.1 16.3 3 1.1.3 3.1 0 4.5-.7 2.3-1.2 2.4-1.5 1.1-3.4-.8-1.1-4.2-2.9-7.5-4-3.4-1-6.1-2.2-6.1-2.5 0-.5-5.7-1.8-10.2-2.3-.3-.1-1-.4-1.4-.9-.4-.4-1.8-.7-3.1-.7s-2.3-.4-2.3-.9-2.1-1.2-4.6-1.6c-6.6-.9-7.4-1.4-7.4-4.1 0-2.5-2-7.4-2.9-7.3-.3 0-2.3 1.8-4.3 4zm151-1c-1.6 1.5-2.8 3.5-2.8 4.3 0 .9-.4 1.6-1 1.6-.5 0-1 1.8-1 4.1v4.1l-3.9-.7c-3.3-.5-4.2-.3-6.5 2-1.4 1.4-2.6 3.2-2.6 4 0 .8-.3 1.5-.8 1.5-1 0-4.2 7.5-4.2 10 0 1.1-.4 2-1 2-.5 0-1 1.1-1 2.5s-.4 2.5-1 2.5c-.5 0-1 .9-1 1.9 0 4.5-.9 5.1-7.6 5.1-3.6 0-6.4.4-6.4 1 0 .5-1.7 1-3.8 1-2.1 0-4.2.4-4.8 1-.5.5-4.2 1.2-8.2 1.6-4 .4-7.5 1.1-7.8 1.5-.3.5-1.6.9-2.9.9-1.3 0-2.6.4-2.9.9-.5.8-10.1 2.6-11.8 2.3-1.4-.3-.8 1.4 1.2 3.6 1.1 1.2 2 2.4 2 2.7 0 .4 1.5 2.1 3.3 3.8 1.8 1.8 4.6 5 6.3 7.1 4.5 6.1 8.4 9.6 10.5 9.6 1 0 1.9.4 1.9 1 0 1.2 2.7 1.4 3.2.2.5-1.1 10.6-6.2 12.3-6.2.8 0 1.5-.3 1.5-.8 0-.8 7.3-4.2 9-4.2.6 0 1-.3 1-.8 0-.7 3.7-2.5 8-3.7 1.4-.5 4.9-2.3 7.8-4.1 2.9-1.9 5.5-3.4 5.9-3.4.3 0 2.1-1.1 3.9-2.5 1.8-1.4 3.7-2.5 4.3-2.5.6 0 1.1-.4 1.1-.8s2.6-2.1 5.8-3.7c3.1-1.7 5.9-3.2 6.2-3.6.3-.3 2.6-1.4 5.1-2.4 5.2-2.1 7.7-5.1 6-6.8-.6-.6-1.1-4.3-1.1-8.3 0-7.9-1.3-10.1-5.4-9-1.8.4-2.5 1.5-3 4.5-.7 4.5-2 5.8-4 4.2-.9-.8-1.6-4.5-1.9-10.9-.3-5.3-.8-10.6-1-11.7-.3-1.1-.6-2.7-.6-3.6-.1-.9-.9-2.5-1.8-3.6-1.8-2-1.8-2-4.5.8z" stroke-width="1.7" fill="#FFE5B2" stroke="#FFE5B2"/><path d="M365.5 509.9c-1.4.6-.5.8 2.7.7 2.5-.1 4.1-.4 3.5-.8-1.5-.9-3.6-.9-6.2.1z" fill="#E5CC99" stroke="#E5CC99" stroke-width="1.7"/><path d="M231.1 331.4c.2.2 3.1.6 6.4 1 4.1.4 5.5.3 4.5-.4-1.3-.9-11.9-1.5-10.9-.6zm155.5 171.5c-1 1.5 3.8 3 5.1 1.6.9-1 .9-1.4-.3-1.9-2.2-.8-4.2-.7-4.8.3z" stroke-width="1.7" fill="#FFE5CC" stroke="#FFE5CC"/><path d="M257.1 333.4c.2.2 4 .6 8.4.9 4.6.3 6.9.2 5.5-.3-2.4-.8-14.7-1.4-13.9-.6z" fill="#FFFFE5" stroke="#FFFFE5" stroke-width="1.7"/><path d="M549.2 394.2c-.5.7-1.2 2.4-1.6 3.8l-.6 2.5 1.2-2.5c1.5-3.1 2.7-4 4.5-3.3.7.3 1.3 0 1.3-.6 0-1.5-3.5-1.4-4.8.1zm3.3 9.1c-1 2.4.1 3.3 2 1.7.8-.7 2.2-1 3-.6.8.3 1.5 0 1.5-.5 0-.7-1.1-.9-2.5-.7-1.3.3-2.6 0-2.8-.6-.3-.6-.8-.3-1.2.7zM515.2 417c-2.2 2.2-3.8 4-3.4 4 .5 0 2.6-1.8 4.7-4s3.7-4 3.4-4c-.3 0-2.4 1.8-4.7 4zm62.7 9.8-4.4 4.7 4.5-4c2.5-2.2 4.7-4.1 4.9-4.3.2-.1.2-.4 0-.7-.3-.2-2.5 1.7-5 4.3zm-44.2 21.9c-.9.9-.9 6.3.1 6.3.4 0 .8-1.6.9-3.5.2-3.7.1-3.9-1-2.8z" stroke-width="1.7" fill="#33334C" stroke="#33334C"/><path d="M537.9 441.7c-.3 1.8-.2 3.8.1 4.4 1.1 1.7 1.7-1.1 1-4.6l-.6-3-.5 3.2z" fill="#4C99CC" stroke="#4C99CC" stroke-width="1.7"/><path d="M524.2 412.1c-3.1 3-4.1 5-2.4 4.8 1-.1 6.6-6.9 6-7.4-.2-.3-1.9.9-3.6 2.6zm46.3 17.5c-8.1 8.5-9.1 9.9-5.1 6.4 6.4-5.6 13.5-13 12.8-13.4-.4-.2-3.8 2.9-7.7 7zm-30 4.9c-.3.8-.7 2.2-1 3.1-.3.9 0 1.4.7 1.2.7-.3 1.4-1.7 1.5-3.1.2-2.9-.5-3.6-1.2-1.2z" stroke-width="1.7" fill="#4CB2E5" stroke="#4CB2E5"/></svg>